solid
facet normal 0.0 0.0 1.0
 outer loop
  vertex 210.0 295.0 805.0
  vertex 46.48882293701172 163.40623474121094 805.0
  vertex 210.0 -295.0 805.0
 endloop
endfacet
facet normal 0.0 0.0 1.0
 outer loop
  vertex 46.48882293701172 163.40623474121094 805.0
  vertex 48.42915725708008 157.4344940185547 805.0
  vertex 210.0 -295.0 805.0
 endloop
endfacet
facet normal 0.0 0.0 1.0
 outer loop
  vertex 210.0 -295.0 805.0
  vertex 43.81533432006836 120.91231536865234 805.0
  vertex -210.0 -295.0 805.0
 endloop
endfacet
facet normal 0.0 0.0 1.0
 outer loop
  vertex 43.81533432006836 120.91231536865234 805.0
  vertex 40.45085144042969 115.6107406616211 805.0
  vertex -210.0 -295.0 805.0
 endloop
endfacet
facet normal 0.0 0.0 1.0
 outer loop
  vertex -210.0 -295.0 805.0
  vertex -36.44843292236328 110.77264404296875 805.0
  vertex -210.0 295.0 805.0
 endloop
endfacet
facet normal 0.0 0.0 1.0
 outer loop
  vertex -36.44843292236328 110.77264404296875 805.0
  vertex -40.45085144042969 115.6107406616211 805.0
  vertex -210.0 295.0 805.0
 endloop
endfacet
facet normal -0.0 0.0 1.0
 outer loop
  vertex -210.0 295.0 805.0
  vertex -21.288965225219727 190.24134826660156 805.0
  vertex 210.0 295.0 805.0
 endloop
endfacet
facet normal 0.0 0.0 1.0
 outer loop
  vertex -21.288965225219727 190.24134826660156 805.0
  vertex -15.450849533081055 192.55282592773438 805.0
  vertex 210.0 295.0 805.0
 endloop
endfacet
facet normal 0.0 0.0 1.0
 outer loop
  vertex 210.0 295.0 805.0
  vertex 36.44843292236328 179.22735595703125 805.0
  vertex 40.45085144042969 174.38926696777344 805.0
 endloop
endfacet
facet normal 0.0 -0.0 1.0
 outer loop
  vertex 36.44843292236328 179.22735595703125 805.0
  vertex 210.0 295.0 805.0
  vertex 31.871198654174805 183.52566528320312 805.0
 endloop
endfacet
facet normal 0.0 -0.0 1.0
 outer loop
  vertex 31.871198654174805 183.52566528320312 805.0
  vertex 210.0 295.0 805.0
  vertex 26.791339874267578 187.21640014648438 805.0
 endloop
endfacet
facet normal 0.0 0.0 1.0
 outer loop
  vertex 210.0 295.0 805.0
  vertex 21.288965225219727 190.24134826660156 805.0
  vertex 26.791339874267578 187.21640014648438 805.0
 endloop
endfacet
facet normal 0.0 -0.0 1.0
 outer loop
  vertex 21.288965225219727 190.24134826660156 805.0
  vertex 210.0 295.0 805.0
  vertex 15.450849533081055 192.55282592773438 805.0
 endloop
endfacet
facet normal 0.0 -0.0 1.0
 outer loop
  vertex 15.450849533081055 192.55282592773438 805.0
  vertex 210.0 295.0 805.0
  vertex 9.369065284729004 194.11436462402344 805.0
 endloop
endfacet
facet normal 0.0 0.0 1.0
 outer loop
  vertex 210.0 295.0 805.0
  vertex 3.139525890350342 194.90133666992188 805.0
  vertex 9.369065284729004 194.11436462402344 805.0
 endloop
endfacet
facet normal 0.0 -0.0 1.0
 outer loop
  vertex -3.139525890350342 194.90133666992188 805.0
  vertex 210.0 295.0 805.0
  vertex -9.369065284729004 194.11436462402344 805.0
 endloop
endfacet
facet normal 0.0 0.0 1.0
 outer loop
  vertex 210.0 295.0 805.0
  vertex -15.450849533081055 192.55282592773438 805.0
  vertex -9.369065284729004 194.11436462402344 805.0
 endloop
endfacet
facet normal 0.0 -0.0 1.0
 outer loop
  vertex 3.139525890350342 194.90133666992188 805.0
  vertex 210.0 295.0 805.0
  vertex -3.139525890350342 194.90133666992188 805.0
 endloop
endfacet
facet normal 0.0 0.0 1.0
 outer loop
  vertex -21.288965225219727 190.24134826660156 805.0
  vertex -210.0 295.0 805.0
  vertex -26.791339874267578 187.21640014648438 805.0
 endloop
endfacet
facet normal 0.0 0.0 1.0
 outer loop
  vertex -26.791339874267578 187.21640014648438 805.0
  vertex -210.0 295.0 805.0
  vertex -31.871198654174805 183.52566528320312 805.0
 endloop
endfacet
facet normal 0.0 0.0 1.0
 outer loop
  vertex -210.0 295.0 805.0
  vertex -36.44843292236328 179.22735595703125 805.0
  vertex -31.871198654174805 183.52566528320312 805.0
 endloop
endfacet
facet normal 0.0 0.0 1.0
 outer loop
  vertex -49.605735778808594 151.26666259765625 805.0
  vertex -210.0 295.0 805.0
  vertex -50.0 145.0 805.0
 endloop
endfacet
facet normal 0.0 0.0 1.0
 outer loop
  vertex -210.0 295.0 805.0
  vertex -49.605735778808594 138.73333740234375 805.0
  vertex -50.0 145.0 805.0
 endloop
endfacet
facet normal 0.0 0.0 1.0
 outer loop
  vertex -43.81533432006836 169.08767700195312 805.0
  vertex -210.0 295.0 805.0
  vertex -46.48882293701172 163.40623474121094 805.0
 endloop
endfacet
facet normal 0.0 0.0 1.0
 outer loop
  vertex -210.0 295.0 805.0
  vertex -48.42915725708008 157.4344940185547 805.0
  vertex -46.48882293701172 163.40623474121094 805.0
 endloop
endfacet
facet normal 0.0 0.0 1.0
 outer loop
  vertex -48.42915725708008 157.4344940185547 805.0
  vertex -210.0 295.0 805.0
  vertex -49.605735778808594 151.26666259765625 805.0
 endloop
endfacet
facet normal 0.0 0.0 1.0
 outer loop
  vertex -36.44843292236328 179.22735595703125 805.0
  vertex -210.0 295.0 805.0
  vertex -40.45085144042969 174.38926696777344 805.0
 endloop
endfacet
facet normal 0.0 0.0 1.0
 outer loop
  vertex -210.0 295.0 805.0
  vertex -43.81533432006836 169.08767700195312 805.0
  vertex -40.45085144042969 174.38926696777344 805.0
 endloop
endfacet
facet normal 0.0 0.0 1.0
 outer loop
  vertex -48.42915725708008 132.5655059814453 805.0
  vertex -210.0 295.0 805.0
  vertex -46.48882293701172 126.5937728881836 805.0
 endloop
endfacet
facet normal 0.0 0.0 1.0
 outer loop
  vertex -210.0 295.0 805.0
  vertex -43.81533432006836 120.91231536865234 805.0
  vertex -46.48882293701172 126.5937728881836 805.0
 endloop
endfacet
facet normal 0.0 0.0 1.0
 outer loop
  vertex -43.81533432006836 120.91231536865234 805.0
  vertex -210.0 295.0 805.0
  vertex -40.45085144042969 115.6107406616211 805.0
 endloop
endfacet
facet normal 0.0 0.0 1.0
 outer loop
  vertex -49.605735778808594 138.73333740234375 805.0
  vertex -210.0 295.0 805.0
  vertex -48.42915725708008 132.5655059814453 805.0
 endloop
endfacet
facet normal 0.0 0.0 1.0
 outer loop
  vertex -36.44843292236328 110.77264404296875 805.0
  vertex -210.0 -295.0 805.0
  vertex -31.871198654174805 106.47433471679688 805.0
 endloop
endfacet
facet normal 0.0 0.0 1.0
 outer loop
  vertex -210.0 -295.0 805.0
  vertex -26.791339874267578 102.78360748291016 805.0
  vertex -31.871198654174805 106.47433471679688 805.0
 endloop
endfacet
facet normal 0.0 0.0 1.0
 outer loop
  vertex -26.791339874267578 102.78360748291016 805.0
  vertex -210.0 -295.0 805.0
  vertex -21.288965225219727 99.7586441040039 805.0
 endloop
endfacet
facet normal 0.0 0.0 1.0
 outer loop
  vertex -210.0 -295.0 805.0
  vertex -15.450849533081055 97.44717407226562 805.0
  vertex -21.288965225219727 99.7586441040039 805.0
 endloop
endfacet
facet normal -0.0 0.0 1.0
 outer loop
  vertex 9.369065284729004 95.88563537597656 805.0
  vertex -210.0 -295.0 805.0
  vertex 15.450849533081055 97.44717407226562 805.0
 endloop
endfacet
facet normal 0.0 0.0 1.0
 outer loop
  vertex -210.0 -295.0 805.0
  vertex 21.288965225219727 99.7586441040039 805.0
  vertex 15.450849533081055 97.44717407226562 805.0
 endloop
endfacet
facet normal -0.0 0.0 1.0
 outer loop
  vertex -3.139525890350342 95.09866333007812 805.0
  vertex -210.0 -295.0 805.0
  vertex 3.139525890350342 95.09866333007812 805.0
 endloop
endfacet
facet normal 0.0 0.0 1.0
 outer loop
  vertex -210.0 -295.0 805.0
  vertex 9.369065284729004 95.88563537597656 805.0
  vertex 3.139525890350342 95.09866333007812 805.0
 endloop
endfacet
facet normal 0.0 0.0 1.0
 outer loop
  vertex -15.450849533081055 97.44717407226562 805.0
  vertex -210.0 -295.0 805.0
  vertex -9.369065284729004 95.88563537597656 805.0
 endloop
endfacet
facet normal 0.0 0.0 1.0
 outer loop
  vertex -210.0 -295.0 805.0
  vertex -3.139525890350342 95.09866333007812 805.0
  vertex -9.369065284729004 95.88563537597656 805.0
 endloop
endfacet
facet normal -0.0 0.0 1.0
 outer loop
  vertex 31.871198654174805 106.47433471679688 805.0
  vertex -210.0 -295.0 805.0
  vertex 36.44843292236328 110.77264404296875 805.0
 endloop
endfacet
facet normal 0.0 0.0 1.0
 outer loop
  vertex -210.0 -295.0 805.0
  vertex 40.45085144042969 115.6107406616211 805.0
  vertex 36.44843292236328 110.77264404296875 805.0
 endloop
endfacet
facet normal -0.0 0.0 1.0
 outer loop
  vertex 21.288965225219727 99.7586441040039 805.0
  vertex -210.0 -295.0 805.0
  vertex 26.791339874267578 102.78360748291016 805.0
 endloop
endfacet
facet normal 0.0 0.0 1.0
 outer loop
  vertex -210.0 -295.0 805.0
  vertex 31.871198654174805 106.47433471679688 805.0
  vertex 26.791339874267578 102.78360748291016 805.0
 endloop
endfacet
facet normal -0.0 0.0 1.0
 outer loop
  vertex 43.81533432006836 120.91231536865234 805.0
  vertex 210.0 -295.0 805.0
  vertex 46.48882293701172 126.5937728881836 805.0
 endloop
endfacet
facet normal 0.0 0.0 1.0
 outer loop
  vertex 210.0 -295.0 805.0
  vertex 48.42915725708008 132.5655059814453 805.0
  vertex 46.48882293701172 126.5937728881836 805.0
 endloop
endfacet
facet normal -0.0 0.0 1.0
 outer loop
  vertex 49.605735778808594 138.73333740234375 805.0
  vertex 210.0 -295.0 805.0
  vertex 50.0 145.0 805.0
 endloop
endfacet
facet normal 0.0 0.0 1.0
 outer loop
  vertex 210.0 -295.0 805.0
  vertex 49.605735778808594 151.26666259765625 805.0
  vertex 50.0 145.0 805.0
 endloop
endfacet
facet normal -0.0 0.0 1.0
 outer loop
  vertex 48.42915725708008 132.5655059814453 805.0
  vertex 210.0 -295.0 805.0
  vertex 49.605735778808594 138.73333740234375 805.0
 endloop
endfacet
facet normal -0.0 -0.0 1.0
 outer loop
  vertex 49.605735778808594 151.26666259765625 805.0
  vertex 210.0 -295.0 805.0
  vertex 48.42915725708008 157.4344940185547 805.0
 endloop
endfacet
facet normal 0.0 -0.0 1.0
 outer loop
  vertex 46.48882293701172 163.40623474121094 805.0
  vertex 210.0 295.0 805.0
  vertex 43.81533432006836 169.08767700195312 805.0
 endloop
endfacet
facet normal 0.0 0.0 1.0
 outer loop
  vertex 210.0 295.0 805.0
  vertex 40.45085144042969 174.38926696777344 805.0
  vertex 43.81533432006836 169.08767700195312 805.0
 endloop
endfacet
facet normal 0.9980267286300659 0.0627904012799263 0.0
 outer loop
  vertex -49.605735778808594 138.73333740234375 805.0
  vertex -49.605735778808594 138.73333740234375 505.0
  vertex -50.0 145.0 505.0
 endloop
endfacet
facet normal 0.9980267286300659 0.0627904012799263 0.0
 outer loop
  vertex -50.0 145.0 805.0
  vertex -49.605735778808594 138.73333740234375 805.0
  vertex -50.0 145.0 505.0
 endloop
endfacet
facet normal 0.9822872281074524 0.1873815953731537 0.0
 outer loop
  vertex -48.42915725708008 132.5655059814453 805.0
  vertex -48.42915725708008 132.5655059814453 505.0
  vertex -49.605735778808594 138.73333740234375 505.0
 endloop
endfacet
facet normal 0.9822872281074524 0.1873815953731537 0.0
 outer loop
  vertex -49.605735778808594 138.73333740234375 805.0
  vertex -48.42915725708008 132.5655059814453 805.0
  vertex -49.605735778808594 138.73333740234375 505.0
 endloop
endfacet
facet normal 0.9510564804077148 0.3090170621871948 0.0
 outer loop
  vertex -46.48882293701172 126.5937728881836 805.0
  vertex -46.48882293701172 126.5937728881836 505.0
  vertex -48.42915725708008 132.5655059814453 505.0
 endloop
endfacet
facet normal 0.9510564804077148 0.3090170621871948 0.0
 outer loop
  vertex -48.42915725708008 132.5655059814453 805.0
  vertex -46.48882293701172 126.5937728881836 805.0
  vertex -48.42915725708008 132.5655059814453 505.0
 endloop
endfacet
facet normal 0.9048272371292114 0.42577898502349854 0.0
 outer loop
  vertex -43.81533432006836 120.91231536865234 805.0
  vertex -43.81533432006836 120.91231536865234 505.0
  vertex -46.48882293701172 126.5937728881836 505.0
 endloop
endfacet
facet normal 0.9048272371292114 0.42577898502349854 0.0
 outer loop
  vertex -46.48882293701172 126.5937728881836 805.0
  vertex -43.81533432006836 120.91231536865234 805.0
  vertex -46.48882293701172 126.5937728881836 505.0
 endloop
endfacet
facet normal 0.8443278670310974 0.5358269214630127 0.0
 outer loop
  vertex -40.45085144042969 115.6107406616211 805.0
  vertex -40.45085144042969 115.6107406616211 505.0
  vertex -43.81533432006836 120.91231536865234 505.0
 endloop
endfacet
facet normal 0.8443278670310974 0.5358269214630127 0.0
 outer loop
  vertex -43.81533432006836 120.91231536865234 805.0
  vertex -40.45085144042969 115.6107406616211 805.0
  vertex -43.81533432006836 120.91231536865234 505.0
 endloop
endfacet
facet normal 0.7705134749412537 0.6374236941337585 0.0
 outer loop
  vertex -36.44843292236328 110.77264404296875 805.0
  vertex -36.44843292236328 110.77264404296875 505.0
  vertex -40.45085144042969 115.6107406616211 505.0
 endloop
endfacet
facet normal 0.7705134749412537 0.6374236941337585 0.0
 outer loop
  vertex -40.45085144042969 115.6107406616211 805.0
  vertex -36.44843292236328 110.77264404296875 805.0
  vertex -40.45085144042969 115.6107406616211 505.0
 endloop
endfacet
facet normal 0.6845471262931824 0.728968620300293 0.0
 outer loop
  vertex -31.871198654174805 106.47433471679688 805.0
  vertex -31.871198654174805 106.47433471679688 505.0
  vertex -36.44843292236328 110.77264404296875 505.0
 endloop
endfacet
facet normal 0.6845471262931824 0.728968620300293 0.0
 outer loop
  vertex -36.44843292236328 110.77264404296875 805.0
  vertex -31.871198654174805 106.47433471679688 805.0
  vertex -36.44843292236328 110.77264404296875 505.0
 endloop
endfacet
facet normal 0.5877845883369446 0.8090174794197083 0.0
 outer loop
  vertex -26.791339874267578 102.78360748291016 805.0
  vertex -26.791339874267578 102.78360748291016 505.0
  vertex -31.871198654174805 106.47433471679688 505.0
 endloop
endfacet
facet normal 0.5877845883369446 0.8090174794197083 0.0
 outer loop
  vertex -31.871198654174805 106.47433471679688 805.0
  vertex -26.791339874267578 102.78360748291016 805.0
  vertex -31.871198654174805 106.47433471679688 505.0
 endloop
endfacet
facet normal 0.4817545711994171 0.8763062357902527 0.0
 outer loop
  vertex -21.288965225219727 99.7586441040039 805.0
  vertex -21.288965225219727 99.7586441040039 505.0
  vertex -26.791339874267578 102.78360748291016 505.0
 endloop
endfacet
facet normal 0.4817545711994171 0.8763062357902527 0.0
 outer loop
  vertex -26.791339874267578 102.78360748291016 805.0
  vertex -21.288965225219727 99.7586441040039 805.0
  vertex -26.791339874267578 102.78360748291016 505.0
 endloop
endfacet
facet normal 0.3681240975856781 0.929776668548584 0.0
 outer loop
  vertex -15.450849533081055 97.44717407226562 805.0
  vertex -15.450849533081055 97.44717407226562 505.0
  vertex -21.288965225219727 99.7586441040039 505.0
 endloop
endfacet
facet normal 0.3681240975856781 0.929776668548584 0.0
 outer loop
  vertex -21.288965225219727 99.7586441040039 805.0
  vertex -15.450849533081055 97.44717407226562 805.0
  vertex -21.288965225219727 99.7586441040039 505.0
 endloop
endfacet
facet normal 0.2486901730298996 0.9685831069946289 0.0
 outer loop
  vertex -9.369065284729004 95.88563537597656 805.0
  vertex -9.369065284729004 95.88563537597656 505.0
  vertex -15.450849533081055 97.44717407226562 505.0
 endloop
endfacet
facet normal 0.2486901730298996 0.9685831069946289 0.0
 outer loop
  vertex -15.450849533081055 97.44717407226562 805.0
  vertex -9.369065284729004 95.88563537597656 805.0
  vertex -15.450849533081055 97.44717407226562 505.0
 endloop
endfacet
facet normal 0.12533295154571533 0.9921147227287292 0.0
 outer loop
  vertex -3.139525890350342 95.09866333007812 805.0
  vertex -3.139525890350342 95.09866333007812 505.0
  vertex -9.369065284729004 95.88563537597656 505.0
 endloop
endfacet
facet normal 0.12533295154571533 0.9921147227287292 0.0
 outer loop
  vertex -9.369065284729004 95.88563537597656 805.0
  vertex -3.139525890350342 95.09866333007812 805.0
  vertex -9.369065284729004 95.88563537597656 505.0
 endloop
endfacet
facet normal 0.0 1.0 0.0
 outer loop
  vertex 3.139525890350342 95.09866333007812 805.0
  vertex 3.139525890350342 95.09866333007812 505.0
  vertex -3.139525890350342 95.09866333007812 505.0
 endloop
endfacet
facet normal -0.0 1.0 0.0
 outer loop
  vertex -3.139525890350342 95.09866333007812 805.0
  vertex 3.139525890350342 95.09866333007812 805.0
  vertex -3.139525890350342 95.09866333007812 505.0
 endloop
endfacet
facet normal -0.12533295154571533 0.9921147227287292 0.0
 outer loop
  vertex 9.369065284729004 95.88563537597656 805.0
  vertex 9.369065284729004 95.88563537597656 505.0
  vertex 3.139525890350342 95.09866333007812 505.0
 endloop
endfacet
facet normal -0.12533295154571533 0.9921147227287292 0.0
 outer loop
  vertex 3.139525890350342 95.09866333007812 805.0
  vertex 9.369065284729004 95.88563537597656 805.0
  vertex 3.139525890350342 95.09866333007812 505.0
 endloop
endfacet
facet normal -0.2486901730298996 0.9685831069946289 0.0
 outer loop
  vertex 15.450849533081055 97.44717407226562 805.0
  vertex 15.450849533081055 97.44717407226562 505.0
  vertex 9.369065284729004 95.88563537597656 505.0
 endloop
endfacet
facet normal -0.2486901730298996 0.9685831069946289 0.0
 outer loop
  vertex 9.369065284729004 95.88563537597656 805.0
  vertex 15.450849533081055 97.44717407226562 805.0
  vertex 9.369065284729004 95.88563537597656 505.0
 endloop
endfacet
facet normal -0.3681240975856781 0.929776668548584 0.0
 outer loop
  vertex 21.288965225219727 99.7586441040039 805.0
  vertex 21.288965225219727 99.7586441040039 505.0
  vertex 15.450849533081055 97.44717407226562 505.0
 endloop
endfacet
facet normal -0.3681240975856781 0.929776668548584 0.0
 outer loop
  vertex 15.450849533081055 97.44717407226562 805.0
  vertex 21.288965225219727 99.7586441040039 805.0
  vertex 15.450849533081055 97.44717407226562 505.0
 endloop
endfacet
facet normal -0.4817545711994171 0.8763062357902527 0.0
 outer loop
  vertex 26.791339874267578 102.78360748291016 805.0
  vertex 26.791339874267578 102.78360748291016 505.0
  vertex 21.288965225219727 99.7586441040039 505.0
 endloop
endfacet
facet normal -0.4817545711994171 0.8763062357902527 0.0
 outer loop
  vertex 21.288965225219727 99.7586441040039 805.0
  vertex 26.791339874267578 102.78360748291016 805.0
  vertex 21.288965225219727 99.7586441040039 505.0
 endloop
endfacet
facet normal -0.5877845883369446 0.8090174794197083 0.0
 outer loop
  vertex 31.871198654174805 106.47433471679688 805.0
  vertex 31.871198654174805 106.47433471679688 505.0
  vertex 26.791339874267578 102.78360748291016 505.0
 endloop
endfacet
facet normal -0.5877845883369446 0.8090174794197083 0.0
 outer loop
  vertex 26.791339874267578 102.78360748291016 805.0
  vertex 31.871198654174805 106.47433471679688 805.0
  vertex 26.791339874267578 102.78360748291016 505.0
 endloop
endfacet
facet normal -0.6845471262931824 0.728968620300293 0.0
 outer loop
  vertex 36.44843292236328 110.77264404296875 805.0
  vertex 36.44843292236328 110.77264404296875 505.0
  vertex 31.871198654174805 106.47433471679688 505.0
 endloop
endfacet
facet normal -0.6845471262931824 0.728968620300293 0.0
 outer loop
  vertex 31.871198654174805 106.47433471679688 805.0
  vertex 36.44843292236328 110.77264404296875 805.0
  vertex 31.871198654174805 106.47433471679688 505.0
 endloop
endfacet
facet normal -0.7705134749412537 0.6374236941337585 0.0
 outer loop
  vertex 40.45085144042969 115.6107406616211 805.0
  vertex 40.45085144042969 115.6107406616211 505.0
  vertex 36.44843292236328 110.77264404296875 505.0
 endloop
endfacet
facet normal -0.7705134749412537 0.6374236941337585 0.0
 outer loop
  vertex 36.44843292236328 110.77264404296875 805.0
  vertex 40.45085144042969 115.6107406616211 805.0
  vertex 36.44843292236328 110.77264404296875 505.0
 endloop
endfacet
facet normal -0.8443278670310974 0.5358269214630127 0.0
 outer loop
  vertex 43.81533432006836 120.91231536865234 805.0
  vertex 43.81533432006836 120.91231536865234 505.0
  vertex 40.45085144042969 115.6107406616211 505.0
 endloop
endfacet
facet normal -0.8443278670310974 0.5358269214630127 0.0
 outer loop
  vertex 40.45085144042969 115.6107406616211 805.0
  vertex 43.81533432006836 120.91231536865234 805.0
  vertex 40.45085144042969 115.6107406616211 505.0
 endloop
endfacet
facet normal -0.9048272371292114 0.42577898502349854 0.0
 outer loop
  vertex 46.48882293701172 126.5937728881836 805.0
  vertex 46.48882293701172 126.5937728881836 505.0
  vertex 43.81533432006836 120.91231536865234 505.0
 endloop
endfacet
facet normal -0.9048272371292114 0.42577898502349854 0.0
 outer loop
  vertex 43.81533432006836 120.91231536865234 805.0
  vertex 46.48882293701172 126.5937728881836 805.0
  vertex 43.81533432006836 120.91231536865234 505.0
 endloop
endfacet
facet normal -0.9510564804077148 0.3090170621871948 0.0
 outer loop
  vertex 48.42915725708008 132.5655059814453 805.0
  vertex 48.42915725708008 132.5655059814453 505.0
  vertex 46.48882293701172 126.5937728881836 505.0
 endloop
endfacet
facet normal -0.9510564804077148 0.3090170621871948 0.0
 outer loop
  vertex 46.48882293701172 126.5937728881836 805.0
  vertex 48.42915725708008 132.5655059814453 805.0
  vertex 46.48882293701172 126.5937728881836 505.0
 endloop
endfacet
facet normal -0.9822872281074524 0.1873815953731537 0.0
 outer loop
  vertex 49.605735778808594 138.73333740234375 805.0
  vertex 49.605735778808594 138.73333740234375 505.0
  vertex 48.42915725708008 132.5655059814453 505.0
 endloop
endfacet
facet normal -0.9822872281074524 0.1873815953731537 0.0
 outer loop
  vertex 48.42915725708008 132.5655059814453 805.0
  vertex 49.605735778808594 138.73333740234375 805.0
  vertex 48.42915725708008 132.5655059814453 505.0
 endloop
endfacet
facet normal -0.9980267286300659 0.0627904012799263 0.0
 outer loop
  vertex 50.0 145.0 805.0
  vertex 50.0 145.0 505.0
  vertex 49.605735778808594 138.73333740234375 505.0
 endloop
endfacet
facet normal -0.9980267286300659 0.0627904012799263 0.0
 outer loop
  vertex 49.605735778808594 138.73333740234375 805.0
  vertex 50.0 145.0 805.0
  vertex 49.605735778808594 138.73333740234375 505.0
 endloop
endfacet
facet normal -0.9980267286300659 -0.0627904012799263 -0.0
 outer loop
  vertex 49.605735778808594 151.26666259765625 805.0
  vertex 49.605735778808594 151.26666259765625 505.0
  vertex 50.0 145.0 505.0
 endloop
endfacet
facet normal -0.9980267286300659 -0.0627904012799263 -0.0
 outer loop
  vertex 50.0 145.0 805.0
  vertex 49.605735778808594 151.26666259765625 805.0
  vertex 50.0 145.0 505.0
 endloop
endfacet
facet normal -0.9822872281074524 -0.1873815953731537 -0.0
 outer loop
  vertex 48.42915725708008 157.4344940185547 805.0
  vertex 48.42915725708008 157.4344940185547 505.0
  vertex 49.605735778808594 151.26666259765625 505.0
 endloop
endfacet
facet normal -0.9822872281074524 -0.1873815953731537 -0.0
 outer loop
  vertex 49.605735778808594 151.26666259765625 805.0
  vertex 48.42915725708008 157.4344940185547 805.0
  vertex 49.605735778808594 151.26666259765625 505.0
 endloop
endfacet
facet normal -0.9510565996170044 -0.30901670455932617 -0.0
 outer loop
  vertex 46.48882293701172 163.40623474121094 805.0
  vertex 46.48882293701172 163.40623474121094 505.0
  vertex 48.42915725708008 157.4344940185547 505.0
 endloop
endfacet
facet normal -0.9510565996170044 -0.30901670455932617 -0.0
 outer loop
  vertex 48.42915725708008 157.4344940185547 805.0
  vertex 46.48882293701172 163.40623474121094 805.0
  vertex 48.42915725708008 157.4344940185547 505.0
 endloop
endfacet
facet normal -0.9048267602920532 -0.42577993869781494 -0.0
 outer loop
  vertex 43.81533432006836 169.08767700195312 805.0
  vertex 43.81533432006836 169.08767700195312 505.0
  vertex 46.48882293701172 163.40623474121094 505.0
 endloop
endfacet
facet normal -0.9048267602920532 -0.42577993869781494 -0.0
 outer loop
  vertex 46.48882293701172 163.40623474121094 805.0
  vertex 43.81533432006836 169.08767700195312 805.0
  vertex 46.48882293701172 163.40623474121094 505.0
 endloop
endfacet
facet normal -0.8443285822868347 -0.5358258485794067 -0.0
 outer loop
  vertex 40.45085144042969 174.38926696777344 805.0
  vertex 40.45085144042969 174.38926696777344 505.0
  vertex 43.81533432006836 169.08767700195312 505.0
 endloop
endfacet
facet normal -0.8443285822868347 -0.5358258485794067 -0.0
 outer loop
  vertex 43.81533432006836 169.08767700195312 805.0
  vertex 40.45085144042969 174.38926696777344 805.0
  vertex 43.81533432006836 169.08767700195312 505.0
 endloop
endfacet
facet normal -0.7705129981040955 -0.6374242901802063 -0.0
 outer loop
  vertex 36.44843292236328 179.22735595703125 805.0
  vertex 36.44843292236328 179.22735595703125 505.0
  vertex 40.45085144042969 174.38926696777344 505.0
 endloop
endfacet
facet normal -0.7705129981040955 -0.6374242901802063 -0.0
 outer loop
  vertex 40.45085144042969 174.38926696777344 805.0
  vertex 36.44843292236328 179.22735595703125 805.0
  vertex 40.45085144042969 174.38926696777344 505.0
 endloop
endfacet
facet normal -0.6845471262931824 -0.728968620300293 -0.0
 outer loop
  vertex 31.871198654174805 183.52566528320312 805.0
  vertex 31.871198654174805 183.52566528320312 505.0
  vertex 36.44843292236328 179.22735595703125 505.0
 endloop
endfacet
facet normal -0.6845471262931824 -0.728968620300293 -0.0
 outer loop
  vertex 36.44843292236328 179.22735595703125 805.0
  vertex 31.871198654174805 183.52566528320312 805.0
  vertex 36.44843292236328 179.22735595703125 505.0
 endloop
endfacet
facet normal -0.5877854228019714 -0.8090168833732605 -0.0
 outer loop
  vertex 26.791339874267578 187.21640014648438 805.0
  vertex 26.791339874267578 187.21640014648438 505.0
  vertex 31.871198654174805 183.52566528320312 505.0
 endloop
endfacet
facet normal -0.5877854228019714 -0.8090168833732605 -0.0
 outer loop
  vertex 31.871198654174805 183.52566528320312 805.0
  vertex 26.791339874267578 187.21640014648438 805.0
  vertex 31.871198654174805 183.52566528320312 505.0
 endloop
endfacet
facet normal -0.4817527234554291 -0.8763072490692139 -0.0
 outer loop
  vertex 21.288965225219727 190.24134826660156 805.0
  vertex 21.288965225219727 190.24134826660156 505.0
  vertex 26.791339874267578 187.21640014648438 505.0
 endloop
endfacet
facet normal -0.4817527234554291 -0.8763072490692139 -0.0
 outer loop
  vertex 26.791339874267578 187.21640014648438 805.0
  vertex 21.288965225219727 190.24134826660156 805.0
  vertex 26.791339874267578 187.21640014648438 505.0
 endloop
endfacet
facet normal -0.3681251108646393 -0.9297762513160706 -0.0
 outer loop
  vertex 15.450849533081055 192.55282592773438 805.0
  vertex 15.450849533081055 192.55282592773438 505.0
  vertex 21.288965225219727 190.24134826660156 505.0
 endloop
endfacet
facet normal -0.3681251108646393 -0.9297762513160706 -0.0
 outer loop
  vertex 21.288965225219727 190.24134826660156 805.0
  vertex 15.450849533081055 192.55282592773438 805.0
  vertex 21.288965225219727 190.24134826660156 505.0
 endloop
endfacet
facet normal -0.2486901730298996 -0.9685831069946289 -0.0
 outer loop
  vertex 9.369065284729004 194.11436462402344 805.0
  vertex 9.369065284729004 194.11436462402344 505.0
  vertex 15.450849533081055 192.55282592773438 505.0
 endloop
endfacet
facet normal -0.2486901730298996 -0.9685831069946289 -0.0
 outer loop
  vertex 15.450849533081055 192.55282592773438 805.0
  vertex 9.369065284729004 194.11436462402344 805.0
  vertex 15.450849533081055 192.55282592773438 505.0
 endloop
endfacet
facet normal -0.12533295154571533 -0.9921147227287292 -0.0
 outer loop
  vertex 3.139525890350342 194.90133666992188 805.0
  vertex 3.139525890350342 194.90133666992188 505.0
  vertex 9.369065284729004 194.11436462402344 505.0
 endloop
endfacet
facet normal -0.12533295154571533 -0.9921147227287292 -0.0
 outer loop
  vertex 9.369065284729004 194.11436462402344 805.0
  vertex 3.139525890350342 194.90133666992188 805.0
  vertex 9.369065284729004 194.11436462402344 505.0
 endloop
endfacet
facet normal 0.0 -1.0 0.0
 outer loop
  vertex -3.139525890350342 194.90133666992188 805.0
  vertex -3.139525890350342 194.90133666992188 505.0
  vertex 3.139525890350342 194.90133666992188 505.0
 endloop
endfacet
facet normal -0.0 -1.0 -0.0
 outer loop
  vertex 3.139525890350342 194.90133666992188 805.0
  vertex -3.139525890350342 194.90133666992188 805.0
  vertex 3.139525890350342 194.90133666992188 505.0
 endloop
endfacet
facet normal 0.12533295154571533 -0.9921147227287292 0.0
 outer loop
  vertex -9.369065284729004 194.11436462402344 805.0
  vertex -9.369065284729004 194.11436462402344 505.0
  vertex -3.139525890350342 194.90133666992188 505.0
 endloop
endfacet
facet normal 0.12533295154571533 -0.9921147227287292 0.0
 outer loop
  vertex -3.139525890350342 194.90133666992188 805.0
  vertex -9.369065284729004 194.11436462402344 805.0
  vertex -3.139525890350342 194.90133666992188 505.0
 endloop
endfacet
facet normal 0.2486901730298996 -0.9685831069946289 0.0
 outer loop
  vertex -15.450849533081055 192.55282592773438 805.0
  vertex -15.450849533081055 192.55282592773438 505.0
  vertex -9.369065284729004 194.11436462402344 505.0
 endloop
endfacet
facet normal 0.2486901730298996 -0.9685831069946289 0.0
 outer loop
  vertex -9.369065284729004 194.11436462402344 805.0
  vertex -15.450849533081055 192.55282592773438 805.0
  vertex -9.369065284729004 194.11436462402344 505.0
 endloop
endfacet
facet normal 0.3681251108646393 -0.9297762513160706 0.0
 outer loop
  vertex -21.288965225219727 190.24134826660156 805.0
  vertex -21.288965225219727 190.24134826660156 505.0
  vertex -15.450849533081055 192.55282592773438 505.0
 endloop
endfacet
facet normal 0.3681251108646393 -0.9297762513160706 0.0
 outer loop
  vertex -15.450849533081055 192.55282592773438 805.0
  vertex -21.288965225219727 190.24134826660156 805.0
  vertex -15.450849533081055 192.55282592773438 505.0
 endloop
endfacet
facet normal 0.4817527234554291 -0.8763072490692139 0.0
 outer loop
  vertex -26.791339874267578 187.21640014648438 805.0
  vertex -26.791339874267578 187.21640014648438 505.0
  vertex -21.288965225219727 190.24134826660156 505.0
 endloop
endfacet
facet normal 0.4817527234554291 -0.8763072490692139 0.0
 outer loop
  vertex -21.288965225219727 190.24134826660156 805.0
  vertex -26.791339874267578 187.21640014648438 805.0
  vertex -21.288965225219727 190.24134826660156 505.0
 endloop
endfacet
facet normal 0.5877854228019714 -0.8090168833732605 0.0
 outer loop
  vertex -31.871198654174805 183.52566528320312 805.0
  vertex -31.871198654174805 183.52566528320312 505.0
  vertex -26.791339874267578 187.21640014648438 505.0
 endloop
endfacet
facet normal 0.5877854228019714 -0.8090168833732605 0.0
 outer loop
  vertex -26.791339874267578 187.21640014648438 805.0
  vertex -31.871198654174805 183.52566528320312 805.0
  vertex -26.791339874267578 187.21640014648438 505.0
 endloop
endfacet
facet normal 0.6845471262931824 -0.728968620300293 0.0
 outer loop
  vertex -36.44843292236328 179.22735595703125 805.0
  vertex -36.44843292236328 179.22735595703125 505.0
  vertex -31.871198654174805 183.52566528320312 505.0
 endloop
endfacet
facet normal 0.6845471262931824 -0.728968620300293 0.0
 outer loop
  vertex -31.871198654174805 183.52566528320312 805.0
  vertex -36.44843292236328 179.22735595703125 805.0
  vertex -31.871198654174805 183.52566528320312 505.0
 endloop
endfacet
facet normal 0.7705129981040955 -0.6374242901802063 0.0
 outer loop
  vertex -40.45085144042969 174.38926696777344 805.0
  vertex -40.45085144042969 174.38926696777344 505.0
  vertex -36.44843292236328 179.22735595703125 505.0
 endloop
endfacet
facet normal 0.7705129981040955 -0.6374242901802063 0.0
 outer loop
  vertex -36.44843292236328 179.22735595703125 805.0
  vertex -40.45085144042969 174.38926696777344 805.0
  vertex -36.44843292236328 179.22735595703125 505.0
 endloop
endfacet
facet normal 0.8443285822868347 -0.5358258485794067 0.0
 outer loop
  vertex -43.81533432006836 169.08767700195312 805.0
  vertex -43.81533432006836 169.08767700195312 505.0
  vertex -40.45085144042969 174.38926696777344 505.0
 endloop
endfacet
facet normal 0.8443285822868347 -0.5358258485794067 0.0
 outer loop
  vertex -40.45085144042969 174.38926696777344 805.0
  vertex -43.81533432006836 169.08767700195312 805.0
  vertex -40.45085144042969 174.38926696777344 505.0
 endloop
endfacet
facet normal 0.9048267602920532 -0.42577993869781494 0.0
 outer loop
  vertex -46.48882293701172 163.40623474121094 805.0
  vertex -46.48882293701172 163.40623474121094 505.0
  vertex -43.81533432006836 169.08767700195312 505.0
 endloop
endfacet
facet normal 0.9048267602920532 -0.42577993869781494 0.0
 outer loop
  vertex -43.81533432006836 169.08767700195312 805.0
  vertex -46.48882293701172 163.40623474121094 805.0
  vertex -43.81533432006836 169.08767700195312 505.0
 endloop
endfacet
facet normal 0.9510565996170044 -0.30901670455932617 0.0
 outer loop
  vertex -48.42915725708008 157.4344940185547 805.0
  vertex -48.42915725708008 157.4344940185547 505.0
  vertex -46.48882293701172 163.40623474121094 505.0
 endloop
endfacet
facet normal 0.9510565996170044 -0.30901670455932617 0.0
 outer loop
  vertex -46.48882293701172 163.40623474121094 805.0
  vertex -48.42915725708008 157.4344940185547 805.0
  vertex -46.48882293701172 163.40623474121094 505.0
 endloop
endfacet
facet normal 0.9822872281074524 -0.1873815953731537 0.0
 outer loop
  vertex -49.605735778808594 151.26666259765625 805.0
  vertex -49.605735778808594 151.26666259765625 505.0
  vertex -48.42915725708008 157.4344940185547 505.0
 endloop
endfacet
facet normal 0.9822872281074524 -0.1873815953731537 0.0
 outer loop
  vertex -48.42915725708008 157.4344940185547 805.0
  vertex -49.605735778808594 151.26666259765625 805.0
  vertex -48.42915725708008 157.4344940185547 505.0
 endloop
endfacet
facet normal 0.9980267286300659 -0.0627904012799263 0.0
 outer loop
  vertex -50.0 145.0 805.0
  vertex -50.0 145.0 505.0
  vertex -49.605735778808594 151.26666259765625 505.0
 endloop
endfacet
facet normal 0.9980267286300659 -0.0627904012799263 0.0
 outer loop
  vertex -49.605735778808594 151.26666259765625 805.0
  vertex -50.0 145.0 805.0
  vertex -49.605735778808594 151.26666259765625 505.0
 endloop
endfacet
facet normal -1.0 0.0 -0.0
 outer loop
  vertex -210.0 295.0 805.0
  vertex -210.0 295.0 0.0
  vertex -210.0 -295.0 0.0
 endloop
endfacet
facet normal -1.0 -0.0 0.0
 outer loop
  vertex -210.0 295.0 805.0
  vertex -210.0 -295.0 0.0
  vertex -210.0 -295.0 805.0
 endloop
endfacet
facet normal 0.0 -1.0 0.0
 outer loop
  vertex -210.0 -295.0 805.0
  vertex -210.0 -295.0 0.0
  vertex 210.0 -295.0 0.0
 endloop
endfacet
facet normal 0.0 -1.0 0.0
 outer loop
  vertex -210.0 -295.0 805.0
  vertex 210.0 -295.0 0.0
  vertex 210.0 -295.0 805.0
 endloop
endfacet
facet normal 1.0 0.0 0.0
 outer loop
  vertex 210.0 -295.0 805.0
  vertex 210.0 -295.0 0.0
  vertex 210.0 295.0 0.0
 endloop
endfacet
facet normal 1.0 -0.0 0.0
 outer loop
  vertex 210.0 -295.0 805.0
  vertex 210.0 295.0 0.0
  vertex 210.0 295.0 805.0
 endloop
endfacet
facet normal 0.0 1.0 0.0
 outer loop
  vertex 210.0 295.0 805.0
  vertex 210.0 295.0 0.0
  vertex -210.0 295.0 0.0
 endloop
endfacet
facet normal 0.0 1.0 0.0
 outer loop
  vertex 210.0 295.0 805.0
  vertex -210.0 295.0 0.0
  vertex -210.0 295.0 805.0
 endloop
endfacet
facet normal -0.0 0.0 1.0
 outer loop
  vertex -49.605735778808594 151.26666259765625 505.0
  vertex -50.0 145.0 505.0
  vertex -48.42915725708008 157.4344940185547 505.0
 endloop
endfacet
facet normal -0.0 0.0 1.0
 outer loop
  vertex -50.0 145.0 505.0
  vertex -49.605735778808594 138.73333740234375 505.0
  vertex -48.42915725708008 157.4344940185547 505.0
 endloop
endfacet
facet normal -0.0 0.0 1.0
 outer loop
  vertex -48.42915725708008 157.4344940185547 505.0
  vertex -49.605735778808594 138.73333740234375 505.0
  vertex -46.48882293701172 163.40623474121094 505.0
 endloop
endfacet
facet normal -0.0 0.0 1.0
 outer loop
  vertex -49.605735778808594 138.73333740234375 505.0
  vertex -48.42915725708008 132.5655059814453 505.0
  vertex -46.48882293701172 163.40623474121094 505.0
 endloop
endfacet
facet normal -0.0 0.0 1.0
 outer loop
  vertex -46.48882293701172 163.40623474121094 505.0
  vertex -48.42915725708008 132.5655059814453 505.0
  vertex -43.81533432006836 169.08767700195312 505.0
 endloop
endfacet
facet normal -0.0 0.0 1.0
 outer loop
  vertex -48.42915725708008 132.5655059814453 505.0
  vertex -46.48882293701172 126.5937728881836 505.0
  vertex -43.81533432006836 169.08767700195312 505.0
 endloop
endfacet
facet normal -0.0 0.0 1.0
 outer loop
  vertex -43.81533432006836 169.08767700195312 505.0
  vertex -46.48882293701172 126.5937728881836 505.0
  vertex -40.45085144042969 174.38926696777344 505.0
 endloop
endfacet
facet normal -0.0 0.0 1.0
 outer loop
  vertex -46.48882293701172 126.5937728881836 505.0
  vertex -43.81533432006836 120.91231536865234 505.0
  vertex -40.45085144042969 174.38926696777344 505.0
 endloop
endfacet
facet normal -0.0 0.0 1.0
 outer loop
  vertex -40.45085144042969 174.38926696777344 505.0
  vertex -43.81533432006836 120.91231536865234 505.0
  vertex -36.44843292236328 179.22735595703125 505.0
 endloop
endfacet
facet normal -0.0 0.0 1.0
 outer loop
  vertex -43.81533432006836 120.91231536865234 505.0
  vertex -40.45085144042969 115.6107406616211 505.0
  vertex -36.44843292236328 179.22735595703125 505.0
 endloop
endfacet
facet normal -0.0 0.0 1.0
 outer loop
  vertex -36.44843292236328 179.22735595703125 505.0
  vertex -40.45085144042969 115.6107406616211 505.0
  vertex -31.871198654174805 183.52566528320312 505.0
 endloop
endfacet
facet normal -0.0 0.0 1.0
 outer loop
  vertex -40.45085144042969 115.6107406616211 505.0
  vertex -36.44843292236328 110.77264404296875 505.0
  vertex -31.871198654174805 183.52566528320312 505.0
 endloop
endfacet
facet normal -0.0 0.0 1.0
 outer loop
  vertex -31.871198654174805 183.52566528320312 505.0
  vertex -36.44843292236328 110.77264404296875 505.0
  vertex -26.791339874267578 187.21640014648438 505.0
 endloop
endfacet
facet normal -0.0 0.0 1.0
 outer loop
  vertex -36.44843292236328 110.77264404296875 505.0
  vertex -31.871198654174805 106.47433471679688 505.0
  vertex -26.791339874267578 187.21640014648438 505.0
 endloop
endfacet
facet normal -0.0 0.0 1.0
 outer loop
  vertex -26.791339874267578 187.21640014648438 505.0
  vertex -31.871198654174805 106.47433471679688 505.0
  vertex -21.288965225219727 190.24134826660156 505.0
 endloop
endfacet
facet normal -0.0 0.0 1.0
 outer loop
  vertex -31.871198654174805 106.47433471679688 505.0
  vertex -26.791339874267578 102.78360748291016 505.0
  vertex -21.288965225219727 190.24134826660156 505.0
 endloop
endfacet
facet normal -0.0 0.0 1.0
 outer loop
  vertex -21.288965225219727 190.24134826660156 505.0
  vertex -26.791339874267578 102.78360748291016 505.0
  vertex -15.450849533081055 192.55282592773438 505.0
 endloop
endfacet
facet normal -0.0 0.0 1.0
 outer loop
  vertex -26.791339874267578 102.78360748291016 505.0
  vertex -21.288965225219727 99.7586441040039 505.0
  vertex -15.450849533081055 192.55282592773438 505.0
 endloop
endfacet
facet normal -0.0 0.0 1.0
 outer loop
  vertex -15.450849533081055 192.55282592773438 505.0
  vertex -21.288965225219727 99.7586441040039 505.0
  vertex -9.369065284729004 194.11436462402344 505.0
 endloop
endfacet
facet normal -0.0 0.0 1.0
 outer loop
  vertex -21.288965225219727 99.7586441040039 505.0
  vertex -15.450849533081055 97.44717407226562 505.0
  vertex -9.369065284729004 194.11436462402344 505.0
 endloop
endfacet
facet normal -0.0 0.0 1.0
 outer loop
  vertex -9.369065284729004 194.11436462402344 505.0
  vertex -15.450849533081055 97.44717407226562 505.0
  vertex -3.139525890350342 194.90133666992188 505.0
 endloop
endfacet
facet normal -0.0 0.0 1.0
 outer loop
  vertex -15.450849533081055 97.44717407226562 505.0
  vertex -9.369065284729004 95.88563537597656 505.0
  vertex -3.139525890350342 194.90133666992188 505.0
 endloop
endfacet
facet normal -0.0 0.0 1.0
 outer loop
  vertex -3.139525890350342 194.90133666992188 505.0
  vertex -9.369065284729004 95.88563537597656 505.0
  vertex 3.139525890350342 194.90133666992188 505.0
 endloop
endfacet
facet normal -0.0 0.0 1.0
 outer loop
  vertex -9.369065284729004 95.88563537597656 505.0
  vertex -3.139525890350342 95.09866333007812 505.0
  vertex 3.139525890350342 194.90133666992188 505.0
 endloop
endfacet
facet normal 0.0 0.0 1.0
 outer loop
  vertex 3.139525890350342 194.90133666992188 505.0
  vertex -3.139525890350342 95.09866333007812 505.0
  vertex 9.369065284729004 194.11436462402344 505.0
 endloop
endfacet
facet normal 0.0 0.0 1.0
 outer loop
  vertex -3.139525890350342 95.09866333007812 505.0
  vertex 3.139525890350342 95.09866333007812 505.0
  vertex 9.369065284729004 194.11436462402344 505.0
 endloop
endfacet
facet normal 0.0 0.0 1.0
 outer loop
  vertex 9.369065284729004 194.11436462402344 505.0
  vertex 3.139525890350342 95.09866333007812 505.0
  vertex 15.450849533081055 192.55282592773438 505.0
 endloop
endfacet
facet normal 0.0 0.0 1.0
 outer loop
  vertex 3.139525890350342 95.09866333007812 505.0
  vertex 9.369065284729004 95.88563537597656 505.0
  vertex 15.450849533081055 192.55282592773438 505.0
 endloop
endfacet
facet normal 0.0 0.0 1.0
 outer loop
  vertex 15.450849533081055 192.55282592773438 505.0
  vertex 9.369065284729004 95.88563537597656 505.0
  vertex 21.288965225219727 190.24134826660156 505.0
 endloop
endfacet
facet normal 0.0 0.0 1.0
 outer loop
  vertex 9.369065284729004 95.88563537597656 505.0
  vertex 15.450849533081055 97.44717407226562 505.0
  vertex 21.288965225219727 190.24134826660156 505.0
 endloop
endfacet
facet normal 0.0 0.0 1.0
 outer loop
  vertex 21.288965225219727 190.24134826660156 505.0
  vertex 15.450849533081055 97.44717407226562 505.0
  vertex 26.791339874267578 187.21640014648438 505.0
 endloop
endfacet
facet normal 0.0 0.0 1.0
 outer loop
  vertex 15.450849533081055 97.44717407226562 505.0
  vertex 21.288965225219727 99.7586441040039 505.0
  vertex 26.791339874267578 187.21640014648438 505.0
 endloop
endfacet
facet normal 0.0 0.0 1.0
 outer loop
  vertex 26.791339874267578 187.21640014648438 505.0
  vertex 21.288965225219727 99.7586441040039 505.0
  vertex 31.871198654174805 183.52566528320312 505.0
 endloop
endfacet
facet normal 0.0 0.0 1.0
 outer loop
  vertex 21.288965225219727 99.7586441040039 505.0
  vertex 26.791339874267578 102.78360748291016 505.0
  vertex 31.871198654174805 183.52566528320312 505.0
 endloop
endfacet
facet normal 0.0 0.0 1.0
 outer loop
  vertex 31.871198654174805 183.52566528320312 505.0
  vertex 26.791339874267578 102.78360748291016 505.0
  vertex 36.44843292236328 179.22735595703125 505.0
 endloop
endfacet
facet normal 0.0 0.0 1.0
 outer loop
  vertex 26.791339874267578 102.78360748291016 505.0
  vertex 31.871198654174805 106.47433471679688 505.0
  vertex 36.44843292236328 179.22735595703125 505.0
 endloop
endfacet
facet normal 0.0 0.0 1.0
 outer loop
  vertex 36.44843292236328 179.22735595703125 505.0
  vertex 31.871198654174805 106.47433471679688 505.0
  vertex 40.45085144042969 174.38926696777344 505.0
 endloop
endfacet
facet normal 0.0 0.0 1.0
 outer loop
  vertex 31.871198654174805 106.47433471679688 505.0
  vertex 36.44843292236328 110.77264404296875 505.0
  vertex 40.45085144042969 174.38926696777344 505.0
 endloop
endfacet
facet normal 0.0 0.0 1.0
 outer loop
  vertex 40.45085144042969 174.38926696777344 505.0
  vertex 36.44843292236328 110.77264404296875 505.0
  vertex 43.81533432006836 169.08767700195312 505.0
 endloop
endfacet
facet normal 0.0 0.0 1.0
 outer loop
  vertex 36.44843292236328 110.77264404296875 505.0
  vertex 40.45085144042969 115.6107406616211 505.0
  vertex 43.81533432006836 169.08767700195312 505.0
 endloop
endfacet
facet normal 0.0 0.0 1.0
 outer loop
  vertex 43.81533432006836 169.08767700195312 505.0
  vertex 40.45085144042969 115.6107406616211 505.0
  vertex 46.48882293701172 163.40623474121094 505.0
 endloop
endfacet
facet normal 0.0 0.0 1.0
 outer loop
  vertex 40.45085144042969 115.6107406616211 505.0
  vertex 43.81533432006836 120.91231536865234 505.0
  vertex 46.48882293701172 163.40623474121094 505.0
 endloop
endfacet
facet normal 0.0 0.0 1.0
 outer loop
  vertex 46.48882293701172 163.40623474121094 505.0
  vertex 43.81533432006836 120.91231536865234 505.0
  vertex 48.42915725708008 157.4344940185547 505.0
 endloop
endfacet
facet normal 0.0 0.0 1.0
 outer loop
  vertex 43.81533432006836 120.91231536865234 505.0
  vertex 46.48882293701172 126.5937728881836 505.0
  vertex 48.42915725708008 157.4344940185547 505.0
 endloop
endfacet
facet normal 0.0 0.0 1.0
 outer loop
  vertex 48.42915725708008 157.4344940185547 505.0
  vertex 46.48882293701172 126.5937728881836 505.0
  vertex 49.605735778808594 151.26666259765625 505.0
 endloop
endfacet
facet normal 0.0 0.0 1.0
 outer loop
  vertex 46.48882293701172 126.5937728881836 505.0
  vertex 48.42915725708008 132.5655059814453 505.0
  vertex 49.605735778808594 151.26666259765625 505.0
 endloop
endfacet
facet normal 0.0 0.0 1.0
 outer loop
  vertex 49.605735778808594 151.26666259765625 505.0
  vertex 48.42915725708008 132.5655059814453 505.0
  vertex 50.0 145.0 505.0
 endloop
endfacet
facet normal 0.0 0.0 1.0
 outer loop
  vertex 48.42915725708008 132.5655059814453 505.0
  vertex 49.605735778808594 138.73333740234375 505.0
  vertex 50.0 145.0 505.0
 endloop
endfacet
facet normal 0.0 0.0 -1.0
 outer loop
  vertex -210.0 -295.0 0.0
  vertex -210.0 295.0 0.0
  vertex 210.0 295.0 0.0
 endloop
endfacet
facet normal 0.0 0.0 -1.0
 outer loop
  vertex 210.0 -295.0 0.0
  vertex -210.0 -295.0 0.0
  vertex 210.0 295.0 0.0
 endloop
endfacet
endsolid
