solid
facet normal -0.9980267286300659 -0.0627904087305069 0.0
 outer loop
  vertex -50.0 6.1232337864698064e-15 0.0
  vertex -49.605735778808594 -6.266661643981934 0.0
  vertex -49.605735778808594 -6.266661643981934 300.0
 endloop
endfacet
facet normal -0.9980267286300659 -0.0627904087305069 0.0
 outer loop
  vertex -50.0 6.1232337864698064e-15 0.0
  vertex -49.605735778808594 -6.266661643981934 300.0
  vertex -50.0 6.1232337864698064e-15 300.0
 endloop
endfacet
facet normal -0.9822872281074524 -0.1873815655708313 0.0
 outer loop
  vertex -49.605735778808594 -6.266661643981934 0.0
  vertex -48.42915725708008 -12.434494018554688 0.0
  vertex -48.42915725708008 -12.434494018554688 300.0
 endloop
endfacet
facet normal -0.9822872281074524 -0.1873815655708313 0.0
 outer loop
  vertex -49.605735778808594 -6.266661643981934 0.0
  vertex -48.42915725708008 -12.434494018554688 300.0
  vertex -49.605735778808594 -6.266661643981934 300.0
 endloop
endfacet
facet normal -0.9510564804077148 -0.3090170621871948 0.0
 outer loop
  vertex -48.42915725708008 -12.434494018554688 0.0
  vertex -46.48882293701172 -18.406227111816406 0.0
  vertex -46.48882293701172 -18.406227111816406 300.0
 endloop
endfacet
facet normal -0.9510564804077148 -0.3090170621871948 0.0
 outer loop
  vertex -48.42915725708008 -12.434494018554688 0.0
  vertex -46.48882293701172 -18.406227111816406 300.0
  vertex -48.42915725708008 -12.434494018554688 300.0
 endloop
endfacet
facet normal -0.9048272371292114 -0.42577898502349854 0.0
 outer loop
  vertex -46.48882293701172 -18.406227111816406 0.0
  vertex -43.81533432006836 -24.087684631347656 0.0
  vertex -43.81533432006836 -24.087684631347656 300.0
 endloop
endfacet
facet normal -0.9048272371292114 -0.42577898502349854 0.0
 outer loop
  vertex -46.48882293701172 -18.406227111816406 0.0
  vertex -43.81533432006836 -24.087684631347656 300.0
  vertex -46.48882293701172 -18.406227111816406 300.0
 endloop
endfacet
facet normal -0.844327986240387 -0.5358266830444336 0.0
 outer loop
  vertex -43.81533432006836 -24.087684631347656 0.0
  vertex -40.45085144042969 -29.389263153076172 0.0
  vertex -40.45085144042969 -29.389263153076172 300.0
 endloop
endfacet
facet normal -0.844327986240387 -0.5358266830444336 0.0
 outer loop
  vertex -43.81533432006836 -24.087684631347656 0.0
  vertex -40.45085144042969 -29.389263153076172 300.0
  vertex -43.81533432006836 -24.087684631347656 300.0
 endloop
endfacet
facet normal -0.7705132961273193 -0.6374240517616272 0.0
 outer loop
  vertex -40.45085144042969 -29.389263153076172 0.0
  vertex -36.44843292236328 -34.22735595703125 0.0
  vertex -36.44843292236328 -34.22735595703125 300.0
 endloop
endfacet
facet normal -0.7705132961273193 -0.6374240517616272 0.0
 outer loop
  vertex -40.45085144042969 -29.389263153076172 0.0
  vertex -36.44843292236328 -34.22735595703125 300.0
  vertex -40.45085144042969 -29.389263153076172 300.0
 endloop
endfacet
facet normal -0.6845468282699585 -0.7289689183235168 0.0
 outer loop
  vertex -36.44843292236328 -34.22735595703125 0.0
  vertex -31.871198654174805 -38.52566146850586 0.0
  vertex -31.871198654174805 -38.52566146850586 300.0
 endloop
endfacet
facet normal -0.6845468282699585 -0.7289689183235168 0.0
 outer loop
  vertex -36.44843292236328 -34.22735595703125 0.0
  vertex -31.871198654174805 -38.52566146850586 300.0
  vertex -36.44843292236328 -34.22735595703125 300.0
 endloop
endfacet
facet normal -0.5877854228019714 -0.8090168833732605 0.0
 outer loop
  vertex -31.871198654174805 -38.52566146850586 0.0
  vertex -26.791339874267578 -42.21639633178711 0.0
  vertex -26.791339874267578 -42.21639633178711 300.0
 endloop
endfacet
facet normal -0.5877854228019714 -0.8090168833732605 0.0
 outer loop
  vertex -31.871198654174805 -38.52566146850586 0.0
  vertex -26.791339874267578 -42.21639633178711 300.0
  vertex -31.871198654174805 -38.52566146850586 300.0
 endloop
endfacet
facet normal -0.4817536175251007 -0.8763067126274109 0.0
 outer loop
  vertex -26.791339874267578 -42.21639633178711 0.0
  vertex -21.288965225219727 -45.24135208129883 0.0
  vertex -21.288965225219727 -45.24135208129883 300.0
 endloop
endfacet
facet normal -0.4817536175251007 -0.8763067126274109 0.0
 outer loop
  vertex -26.791339874267578 -42.21639633178711 0.0
  vertex -21.288965225219727 -45.24135208129883 300.0
  vertex -26.791339874267578 -42.21639633178711 300.0
 endloop
endfacet
facet normal -0.3681246042251587 -0.9297764897346497 0.0
 outer loop
  vertex -21.288965225219727 -45.24135208129883 0.0
  vertex -15.450849533081055 -47.552825927734375 0.0
  vertex -15.450849533081055 -47.552825927734375 300.0
 endloop
endfacet
facet normal -0.3681246042251587 -0.9297764897346497 0.0
 outer loop
  vertex -21.288965225219727 -45.24135208129883 0.0
  vertex -15.450849533081055 -47.552825927734375 300.0
  vertex -21.288965225219727 -45.24135208129883 300.0
 endloop
endfacet
facet normal -0.24868959188461304 -0.9685832262039185 0.0
 outer loop
  vertex -15.450849533081055 -47.552825927734375 0.0
  vertex -9.369065284729004 -49.11436080932617 0.0
  vertex -9.369065284729004 -49.11436080932617 300.0
 endloop
endfacet
facet normal -0.24868959188461304 -0.9685832262039185 0.0
 outer loop
  vertex -15.450849533081055 -47.552825927734375 0.0
  vertex -9.369065284729004 -49.11436080932617 300.0
  vertex -15.450849533081055 -47.552825927734375 300.0
 endloop
endfacet
facet normal -0.12533354759216309 -0.9921146631240845 0.0
 outer loop
  vertex -9.369065284729004 -49.11436080932617 0.0
  vertex -3.139525890350342 -49.901336669921875 0.0
  vertex -3.139525890350342 -49.901336669921875 300.0
 endloop
endfacet
facet normal -0.12533354759216309 -0.9921146631240845 0.0
 outer loop
  vertex -9.369065284729004 -49.11436080932617 0.0
  vertex -3.139525890350342 -49.901336669921875 300.0
  vertex -9.369065284729004 -49.11436080932617 300.0
 endloop
endfacet
facet normal 0.0 -1.0 0.0
 outer loop
  vertex -3.139525890350342 -49.901336669921875 0.0
  vertex 3.139525890350342 -49.901336669921875 0.0
  vertex 3.139525890350342 -49.901336669921875 300.0
 endloop
endfacet
facet normal 0.0 -1.0 0.0
 outer loop
  vertex -3.139525890350342 -49.901336669921875 0.0
  vertex 3.139525890350342 -49.901336669921875 300.0
  vertex -3.139525890350342 -49.901336669921875 300.0
 endloop
endfacet
facet normal 0.12533354759216309 -0.9921146631240845 0.0
 outer loop
  vertex 3.139525890350342 -49.901336669921875 0.0
  vertex 9.369065284729004 -49.11436080932617 0.0
  vertex 9.369065284729004 -49.11436080932617 300.0
 endloop
endfacet
facet normal 0.12533354759216309 -0.9921146631240845 0.0
 outer loop
  vertex 3.139525890350342 -49.901336669921875 0.0
  vertex 9.369065284729004 -49.11436080932617 300.0
  vertex 3.139525890350342 -49.901336669921875 300.0
 endloop
endfacet
facet normal 0.24868959188461304 -0.9685832262039185 0.0
 outer loop
  vertex 9.369065284729004 -49.11436080932617 0.0
  vertex 15.450849533081055 -47.552825927734375 0.0
  vertex 15.450849533081055 -47.552825927734375 300.0
 endloop
endfacet
facet normal 0.24868959188461304 -0.9685832262039185 0.0
 outer loop
  vertex 9.369065284729004 -49.11436080932617 0.0
  vertex 15.450849533081055 -47.552825927734375 300.0
  vertex 9.369065284729004 -49.11436080932617 300.0
 endloop
endfacet
facet normal 0.3681246042251587 -0.9297764897346497 0.0
 outer loop
  vertex 15.450849533081055 -47.552825927734375 0.0
  vertex 21.288965225219727 -45.24135208129883 0.0
  vertex 21.288965225219727 -45.24135208129883 300.0
 endloop
endfacet
facet normal 0.3681246042251587 -0.9297764897346497 0.0
 outer loop
  vertex 15.450849533081055 -47.552825927734375 0.0
  vertex 21.288965225219727 -45.24135208129883 300.0
  vertex 15.450849533081055 -47.552825927734375 300.0
 endloop
endfacet
facet normal 0.4817536175251007 -0.8763067126274109 0.0
 outer loop
  vertex 21.288965225219727 -45.24135208129883 0.0
  vertex 26.791339874267578 -42.21639633178711 0.0
  vertex 26.791339874267578 -42.21639633178711 300.0
 endloop
endfacet
facet normal 0.4817536175251007 -0.8763067126274109 0.0
 outer loop
  vertex 21.288965225219727 -45.24135208129883 0.0
  vertex 26.791339874267578 -42.21639633178711 300.0
  vertex 21.288965225219727 -45.24135208129883 300.0
 endloop
endfacet
facet normal 0.5877854228019714 -0.8090168833732605 0.0
 outer loop
  vertex 26.791339874267578 -42.21639633178711 0.0
  vertex 31.871198654174805 -38.52566146850586 0.0
  vertex 31.871198654174805 -38.52566146850586 300.0
 endloop
endfacet
facet normal 0.5877854228019714 -0.8090168833732605 0.0
 outer loop
  vertex 26.791339874267578 -42.21639633178711 0.0
  vertex 31.871198654174805 -38.52566146850586 300.0
  vertex 26.791339874267578 -42.21639633178711 300.0
 endloop
endfacet
facet normal 0.6845468282699585 -0.7289689183235168 0.0
 outer loop
  vertex 31.871198654174805 -38.52566146850586 0.0
  vertex 36.44843292236328 -34.22735595703125 0.0
  vertex 36.44843292236328 -34.22735595703125 300.0
 endloop
endfacet
facet normal 0.6845468282699585 -0.7289689183235168 0.0
 outer loop
  vertex 31.871198654174805 -38.52566146850586 0.0
  vertex 36.44843292236328 -34.22735595703125 300.0
  vertex 31.871198654174805 -38.52566146850586 300.0
 endloop
endfacet
facet normal 0.7705132961273193 -0.6374240517616272 0.0
 outer loop
  vertex 36.44843292236328 -34.22735595703125 0.0
  vertex 40.45085144042969 -29.389263153076172 0.0
  vertex 40.45085144042969 -29.389263153076172 300.0
 endloop
endfacet
facet normal 0.7705132961273193 -0.6374240517616272 0.0
 outer loop
  vertex 36.44843292236328 -34.22735595703125 0.0
  vertex 40.45085144042969 -29.389263153076172 300.0
  vertex 36.44843292236328 -34.22735595703125 300.0
 endloop
endfacet
facet normal 0.844327986240387 -0.5358266830444336 0.0
 outer loop
  vertex 40.45085144042969 -29.389263153076172 0.0
  vertex 43.81533432006836 -24.087684631347656 0.0
  vertex 43.81533432006836 -24.087684631347656 300.0
 endloop
endfacet
facet normal 0.844327986240387 -0.5358266830444336 0.0
 outer loop
  vertex 40.45085144042969 -29.389263153076172 0.0
  vertex 43.81533432006836 -24.087684631347656 300.0
  vertex 40.45085144042969 -29.389263153076172 300.0
 endloop
endfacet
facet normal 0.9048272371292114 -0.42577898502349854 0.0
 outer loop
  vertex 43.81533432006836 -24.087684631347656 0.0
  vertex 46.48882293701172 -18.406227111816406 0.0
  vertex 46.48882293701172 -18.406227111816406 300.0
 endloop
endfacet
facet normal 0.9048272371292114 -0.42577898502349854 0.0
 outer loop
  vertex 43.81533432006836 -24.087684631347656 0.0
  vertex 46.48882293701172 -18.406227111816406 300.0
  vertex 43.81533432006836 -24.087684631347656 300.0
 endloop
endfacet
facet normal 0.9510564804077148 -0.3090170621871948 0.0
 outer loop
  vertex 46.48882293701172 -18.406227111816406 0.0
  vertex 48.42915725708008 -12.434494018554688 0.0
  vertex 48.42915725708008 -12.434494018554688 300.0
 endloop
endfacet
facet normal 0.9510564804077148 -0.3090170621871948 0.0
 outer loop
  vertex 46.48882293701172 -18.406227111816406 0.0
  vertex 48.42915725708008 -12.434494018554688 300.0
  vertex 46.48882293701172 -18.406227111816406 300.0
 endloop
endfacet
facet normal 0.9822872281074524 -0.1873815655708313 0.0
 outer loop
  vertex 48.42915725708008 -12.434494018554688 0.0
  vertex 49.605735778808594 -6.266661643981934 0.0
  vertex 49.605735778808594 -6.266661643981934 300.0
 endloop
endfacet
facet normal 0.9822872281074524 -0.1873815655708313 0.0
 outer loop
  vertex 48.42915725708008 -12.434494018554688 0.0
  vertex 49.605735778808594 -6.266661643981934 300.0
  vertex 48.42915725708008 -12.434494018554688 300.0
 endloop
endfacet
facet normal 0.9980267286300659 -0.0627904087305069 0.0
 outer loop
  vertex 49.605735778808594 -6.266661643981934 0.0
  vertex 50.0 5.4366914751602727e-14 0.0
  vertex 50.0 5.4366914751602727e-14 300.0
 endloop
endfacet
facet normal 0.9980267286300659 -0.0627904087305069 0.0
 outer loop
  vertex 49.605735778808594 -6.266661643981934 0.0
  vertex 50.0 5.4366914751602727e-14 300.0
  vertex 49.605735778808594 -6.266661643981934 300.0
 endloop
endfacet
facet normal 0.9980267286300659 0.0627904087305069 0.0
 outer loop
  vertex 50.0 5.4366914751602727e-14 0.0
  vertex 49.605735778808594 6.266661643981934 0.0
  vertex 49.605735778808594 6.266661643981934 300.0
 endloop
endfacet
facet normal 0.9980267286300659 0.0627904087305069 -0.0
 outer loop
  vertex 50.0 5.4366914751602727e-14 0.0
  vertex 49.605735778808594 6.266661643981934 300.0
  vertex 50.0 5.4366914751602727e-14 300.0
 endloop
endfacet
facet normal 0.9822872281074524 0.1873815655708313 0.0
 outer loop
  vertex 49.605735778808594 6.266661643981934 0.0
  vertex 48.42915725708008 12.434494018554688 0.0
  vertex 48.42915725708008 12.434494018554688 300.0
 endloop
endfacet
facet normal 0.9822872281074524 0.1873815655708313 -0.0
 outer loop
  vertex 49.605735778808594 6.266661643981934 0.0
  vertex 48.42915725708008 12.434494018554688 300.0
  vertex 49.605735778808594 6.266661643981934 300.0
 endloop
endfacet
facet normal 0.9510564804077148 0.3090170621871948 0.0
 outer loop
  vertex 48.42915725708008 12.434494018554688 0.0
  vertex 46.48882293701172 18.406227111816406 0.0
  vertex 46.48882293701172 18.406227111816406 300.0
 endloop
endfacet
facet normal 0.9510564804077148 0.3090170621871948 -0.0
 outer loop
  vertex 48.42915725708008 12.434494018554688 0.0
  vertex 46.48882293701172 18.406227111816406 300.0
  vertex 48.42915725708008 12.434494018554688 300.0
 endloop
endfacet
facet normal 0.9048272371292114 0.42577898502349854 0.0
 outer loop
  vertex 46.48882293701172 18.406227111816406 0.0
  vertex 43.81533432006836 24.087684631347656 0.0
  vertex 43.81533432006836 24.087684631347656 300.0
 endloop
endfacet
facet normal 0.9048272371292114 0.42577898502349854 -0.0
 outer loop
  vertex 46.48882293701172 18.406227111816406 0.0
  vertex 43.81533432006836 24.087684631347656 300.0
  vertex 46.48882293701172 18.406227111816406 300.0
 endloop
endfacet
facet normal 0.844327986240387 0.5358266830444336 0.0
 outer loop
  vertex 43.81533432006836 24.087684631347656 0.0
  vertex 40.45085144042969 29.389263153076172 0.0
  vertex 40.45085144042969 29.389263153076172 300.0
 endloop
endfacet
facet normal 0.844327986240387 0.5358266830444336 -0.0
 outer loop
  vertex 43.81533432006836 24.087684631347656 0.0
  vertex 40.45085144042969 29.389263153076172 300.0
  vertex 43.81533432006836 24.087684631347656 300.0
 endloop
endfacet
facet normal 0.7705132961273193 0.6374240517616272 0.0
 outer loop
  vertex 40.45085144042969 29.389263153076172 0.0
  vertex 36.44843292236328 34.22735595703125 0.0
  vertex 36.44843292236328 34.22735595703125 300.0
 endloop
endfacet
facet normal 0.7705132961273193 0.6374240517616272 -0.0
 outer loop
  vertex 40.45085144042969 29.389263153076172 0.0
  vertex 36.44843292236328 34.22735595703125 300.0
  vertex 40.45085144042969 29.389263153076172 300.0
 endloop
endfacet
facet normal 0.6845468282699585 0.7289689183235168 0.0
 outer loop
  vertex 36.44843292236328 34.22735595703125 0.0
  vertex 31.871198654174805 38.52566146850586 0.0
  vertex 31.871198654174805 38.52566146850586 300.0
 endloop
endfacet
facet normal 0.6845468282699585 0.7289689183235168 -0.0
 outer loop
  vertex 36.44843292236328 34.22735595703125 0.0
  vertex 31.871198654174805 38.52566146850586 300.0
  vertex 36.44843292236328 34.22735595703125 300.0
 endloop
endfacet
facet normal 0.5877854228019714 0.8090168833732605 0.0
 outer loop
  vertex 31.871198654174805 38.52566146850586 0.0
  vertex 26.791339874267578 42.21639633178711 0.0
  vertex 26.791339874267578 42.21639633178711 300.0
 endloop
endfacet
facet normal 0.5877854228019714 0.8090168833732605 -0.0
 outer loop
  vertex 31.871198654174805 38.52566146850586 0.0
  vertex 26.791339874267578 42.21639633178711 300.0
  vertex 31.871198654174805 38.52566146850586 300.0
 endloop
endfacet
facet normal 0.4817536175251007 0.8763067126274109 0.0
 outer loop
  vertex 26.791339874267578 42.21639633178711 0.0
  vertex 21.288965225219727 45.24135208129883 0.0
  vertex 21.288965225219727 45.24135208129883 300.0
 endloop
endfacet
facet normal 0.4817536175251007 0.8763067126274109 -0.0
 outer loop
  vertex 26.791339874267578 42.21639633178711 0.0
  vertex 21.288965225219727 45.24135208129883 300.0
  vertex 26.791339874267578 42.21639633178711 300.0
 endloop
endfacet
facet normal 0.3681246042251587 0.9297764897346497 0.0
 outer loop
  vertex 21.288965225219727 45.24135208129883 0.0
  vertex 15.450849533081055 47.552825927734375 0.0
  vertex 15.450849533081055 47.552825927734375 300.0
 endloop
endfacet
facet normal 0.3681246042251587 0.9297764897346497 -0.0
 outer loop
  vertex 21.288965225219727 45.24135208129883 0.0
  vertex 15.450849533081055 47.552825927734375 300.0
  vertex 21.288965225219727 45.24135208129883 300.0
 endloop
endfacet
facet normal 0.24868959188461304 0.9685832262039185 0.0
 outer loop
  vertex 15.450849533081055 47.552825927734375 0.0
  vertex 9.369065284729004 49.11436080932617 0.0
  vertex 9.369065284729004 49.11436080932617 300.0
 endloop
endfacet
facet normal 0.24868959188461304 0.9685832262039185 -0.0
 outer loop
  vertex 15.450849533081055 47.552825927734375 0.0
  vertex 9.369065284729004 49.11436080932617 300.0
  vertex 15.450849533081055 47.552825927734375 300.0
 endloop
endfacet
facet normal 0.12533354759216309 0.9921146631240845 0.0
 outer loop
  vertex 9.369065284729004 49.11436080932617 0.0
  vertex 3.139525890350342 49.901336669921875 0.0
  vertex 3.139525890350342 49.901336669921875 300.0
 endloop
endfacet
facet normal 0.12533354759216309 0.9921146631240845 -0.0
 outer loop
  vertex 9.369065284729004 49.11436080932617 0.0
  vertex 3.139525890350342 49.901336669921875 300.0
  vertex 9.369065284729004 49.11436080932617 300.0
 endloop
endfacet
facet normal 0.0 1.0 0.0
 outer loop
  vertex 3.139525890350342 49.901336669921875 0.0
  vertex -3.139525890350342 49.901336669921875 0.0
  vertex -3.139525890350342 49.901336669921875 300.0
 endloop
endfacet
facet normal 0.0 1.0 -0.0
 outer loop
  vertex 3.139525890350342 49.901336669921875 0.0
  vertex -3.139525890350342 49.901336669921875 300.0
  vertex 3.139525890350342 49.901336669921875 300.0
 endloop
endfacet
facet normal -0.12533354759216309 0.9921146631240845 0.0
 outer loop
  vertex -3.139525890350342 49.901336669921875 0.0
  vertex -9.369065284729004 49.11436080932617 0.0
  vertex -9.369065284729004 49.11436080932617 300.0
 endloop
endfacet
facet normal -0.12533354759216309 0.9921146631240845 0.0
 outer loop
  vertex -3.139525890350342 49.901336669921875 0.0
  vertex -9.369065284729004 49.11436080932617 300.0
  vertex -3.139525890350342 49.901336669921875 300.0
 endloop
endfacet
facet normal -0.24868959188461304 0.9685832262039185 0.0
 outer loop
  vertex -9.369065284729004 49.11436080932617 0.0
  vertex -15.450849533081055 47.552825927734375 0.0
  vertex -15.450849533081055 47.552825927734375 300.0
 endloop
endfacet
facet normal -0.24868959188461304 0.9685832262039185 0.0
 outer loop
  vertex -9.369065284729004 49.11436080932617 0.0
  vertex -15.450849533081055 47.552825927734375 300.0
  vertex -9.369065284729004 49.11436080932617 300.0
 endloop
endfacet
facet normal -0.3681246042251587 0.9297764897346497 0.0
 outer loop
  vertex -15.450849533081055 47.552825927734375 0.0
  vertex -21.288965225219727 45.24135208129883 0.0
  vertex -21.288965225219727 45.24135208129883 300.0
 endloop
endfacet
facet normal -0.3681246042251587 0.9297764897346497 0.0
 outer loop
  vertex -15.450849533081055 47.552825927734375 0.0
  vertex -21.288965225219727 45.24135208129883 300.0
  vertex -15.450849533081055 47.552825927734375 300.0
 endloop
endfacet
facet normal -0.4817536175251007 0.8763067126274109 0.0
 outer loop
  vertex -21.288965225219727 45.24135208129883 0.0
  vertex -26.791339874267578 42.21639633178711 0.0
  vertex -26.791339874267578 42.21639633178711 300.0
 endloop
endfacet
facet normal -0.4817536175251007 0.8763067126274109 0.0
 outer loop
  vertex -21.288965225219727 45.24135208129883 0.0
  vertex -26.791339874267578 42.21639633178711 300.0
  vertex -21.288965225219727 45.24135208129883 300.0
 endloop
endfacet
facet normal -0.5877854228019714 0.8090168833732605 0.0
 outer loop
  vertex -26.791339874267578 42.21639633178711 0.0
  vertex -31.871198654174805 38.52566146850586 0.0
  vertex -31.871198654174805 38.52566146850586 300.0
 endloop
endfacet
facet normal -0.5877854228019714 0.8090168833732605 0.0
 outer loop
  vertex -26.791339874267578 42.21639633178711 0.0
  vertex -31.871198654174805 38.52566146850586 300.0
  vertex -26.791339874267578 42.21639633178711 300.0
 endloop
endfacet
facet normal -0.6845468282699585 0.7289689183235168 0.0
 outer loop
  vertex -31.871198654174805 38.52566146850586 0.0
  vertex -36.44843292236328 34.22735595703125 0.0
  vertex -36.44843292236328 34.22735595703125 300.0
 endloop
endfacet
facet normal -0.6845468282699585 0.7289689183235168 0.0
 outer loop
  vertex -31.871198654174805 38.52566146850586 0.0
  vertex -36.44843292236328 34.22735595703125 300.0
  vertex -31.871198654174805 38.52566146850586 300.0
 endloop
endfacet
facet normal -0.7705132961273193 0.6374240517616272 0.0
 outer loop
  vertex -36.44843292236328 34.22735595703125 0.0
  vertex -40.45085144042969 29.389263153076172 0.0
  vertex -40.45085144042969 29.389263153076172 300.0
 endloop
endfacet
facet normal -0.7705132961273193 0.6374240517616272 0.0
 outer loop
  vertex -36.44843292236328 34.22735595703125 0.0
  vertex -40.45085144042969 29.389263153076172 300.0
  vertex -36.44843292236328 34.22735595703125 300.0
 endloop
endfacet
facet normal -0.844327986240387 0.5358266830444336 0.0
 outer loop
  vertex -40.45085144042969 29.389263153076172 0.0
  vertex -43.81533432006836 24.087684631347656 0.0
  vertex -43.81533432006836 24.087684631347656 300.0
 endloop
endfacet
facet normal -0.844327986240387 0.5358266830444336 0.0
 outer loop
  vertex -40.45085144042969 29.389263153076172 0.0
  vertex -43.81533432006836 24.087684631347656 300.0
  vertex -40.45085144042969 29.389263153076172 300.0
 endloop
endfacet
facet normal -0.9048272371292114 0.42577898502349854 0.0
 outer loop
  vertex -43.81533432006836 24.087684631347656 0.0
  vertex -46.48882293701172 18.406227111816406 0.0
  vertex -46.48882293701172 18.406227111816406 300.0
 endloop
endfacet
facet normal -0.9048272371292114 0.42577898502349854 0.0
 outer loop
  vertex -43.81533432006836 24.087684631347656 0.0
  vertex -46.48882293701172 18.406227111816406 300.0
  vertex -43.81533432006836 24.087684631347656 300.0
 endloop
endfacet
facet normal -0.9510564804077148 0.3090170621871948 0.0
 outer loop
  vertex -46.48882293701172 18.406227111816406 0.0
  vertex -48.42915725708008 12.434494018554688 0.0
  vertex -48.42915725708008 12.434494018554688 300.0
 endloop
endfacet
facet normal -0.9510564804077148 0.3090170621871948 0.0
 outer loop
  vertex -46.48882293701172 18.406227111816406 0.0
  vertex -48.42915725708008 12.434494018554688 300.0
  vertex -46.48882293701172 18.406227111816406 300.0
 endloop
endfacet
facet normal -0.9822872281074524 0.1873815655708313 0.0
 outer loop
  vertex -48.42915725708008 12.434494018554688 0.0
  vertex -49.605735778808594 6.266661643981934 0.0
  vertex -49.605735778808594 6.266661643981934 300.0
 endloop
endfacet
facet normal -0.9822872281074524 0.1873815655708313 0.0
 outer loop
  vertex -48.42915725708008 12.434494018554688 0.0
  vertex -49.605735778808594 6.266661643981934 300.0
  vertex -48.42915725708008 12.434494018554688 300.0
 endloop
endfacet
facet normal -0.9980267286300659 0.0627904087305069 0.0
 outer loop
  vertex -49.605735778808594 6.266661643981934 0.0
  vertex -50.0 1.8369701782925893e-14 0.0
  vertex -50.0 1.8369701782925893e-14 300.0
 endloop
endfacet
facet normal -0.9980267286300659 0.0627904087305069 0.0
 outer loop
  vertex -49.605735778808594 6.266661643981934 0.0
  vertex -50.0 1.8369701782925893e-14 300.0
  vertex -49.605735778808594 6.266661643981934 300.0
 endloop
endfacet
facet normal -0.0 0.0 1.0
 outer loop
  vertex -49.605735778808594 6.266661643981934 300.0
  vertex -50.0 1.2246467572939613e-14 300.0
  vertex -48.42915725708008 12.434494018554688 300.0
 endloop
endfacet
facet normal -0.0 0.0 1.0
 outer loop
  vertex -50.0 1.2246467572939613e-14 300.0
  vertex -49.605735778808594 -6.266661643981934 300.0
  vertex -48.42915725708008 12.434494018554688 300.0
 endloop
endfacet
facet normal -0.0 0.0 1.0
 outer loop
  vertex -48.42915725708008 12.434494018554688 300.0
  vertex -49.605735778808594 -6.266661643981934 300.0
  vertex -46.48882293701172 18.406227111816406 300.0
 endloop
endfacet
facet normal -0.0 0.0 1.0
 outer loop
  vertex -49.605735778808594 -6.266661643981934 300.0
  vertex -48.42915725708008 -12.434494018554688 300.0
  vertex -46.48882293701172 18.406227111816406 300.0
 endloop
endfacet
facet normal -0.0 0.0 1.0
 outer loop
  vertex -46.48882293701172 18.406227111816406 300.0
  vertex -48.42915725708008 -12.434494018554688 300.0
  vertex -43.81533432006836 24.087684631347656 300.0
 endloop
endfacet
facet normal -0.0 0.0 1.0
 outer loop
  vertex -48.42915725708008 -12.434494018554688 300.0
  vertex -46.48882293701172 -18.406227111816406 300.0
  vertex -43.81533432006836 24.087684631347656 300.0
 endloop
endfacet
facet normal -0.0 0.0 1.0
 outer loop
  vertex -43.81533432006836 24.087684631347656 300.0
  vertex -46.48882293701172 -18.406227111816406 300.0
  vertex -40.45085144042969 29.389263153076172 300.0
 endloop
endfacet
facet normal -0.0 0.0 1.0
 outer loop
  vertex -46.48882293701172 -18.406227111816406 300.0
  vertex -43.81533432006836 -24.087684631347656 300.0
  vertex -40.45085144042969 29.389263153076172 300.0
 endloop
endfacet
facet normal -0.0 0.0 1.0
 outer loop
  vertex -40.45085144042969 29.389263153076172 300.0
  vertex -43.81533432006836 -24.087684631347656 300.0
  vertex -36.44843292236328 34.22735595703125 300.0
 endloop
endfacet
facet normal -0.0 0.0 1.0
 outer loop
  vertex -43.81533432006836 -24.087684631347656 300.0
  vertex -40.45085144042969 -29.389263153076172 300.0
  vertex -36.44843292236328 34.22735595703125 300.0
 endloop
endfacet
facet normal -0.0 0.0 1.0
 outer loop
  vertex -36.44843292236328 34.22735595703125 300.0
  vertex -40.45085144042969 -29.389263153076172 300.0
  vertex -31.871198654174805 38.52566146850586 300.0
 endloop
endfacet
facet normal -0.0 0.0 1.0
 outer loop
  vertex -40.45085144042969 -29.389263153076172 300.0
  vertex -36.44843292236328 -34.22735595703125 300.0
  vertex -31.871198654174805 38.52566146850586 300.0
 endloop
endfacet
facet normal -0.0 0.0 1.0
 outer loop
  vertex -31.871198654174805 38.52566146850586 300.0
  vertex -36.44843292236328 -34.22735595703125 300.0
  vertex -26.791339874267578 42.21639633178711 300.0
 endloop
endfacet
facet normal -0.0 0.0 1.0
 outer loop
  vertex -36.44843292236328 -34.22735595703125 300.0
  vertex -31.871198654174805 -38.52566146850586 300.0
  vertex -26.791339874267578 42.21639633178711 300.0
 endloop
endfacet
facet normal -0.0 0.0 1.0
 outer loop
  vertex -26.791339874267578 42.21639633178711 300.0
  vertex -31.871198654174805 -38.52566146850586 300.0
  vertex -21.288965225219727 45.24135208129883 300.0
 endloop
endfacet
facet normal -0.0 0.0 1.0
 outer loop
  vertex -31.871198654174805 -38.52566146850586 300.0
  vertex -26.791339874267578 -42.21639633178711 300.0
  vertex -21.288965225219727 45.24135208129883 300.0
 endloop
endfacet
facet normal -0.0 0.0 1.0
 outer loop
  vertex -21.288965225219727 45.24135208129883 300.0
  vertex -26.791339874267578 -42.21639633178711 300.0
  vertex -15.450849533081055 47.552825927734375 300.0
 endloop
endfacet
facet normal -0.0 0.0 1.0
 outer loop
  vertex -26.791339874267578 -42.21639633178711 300.0
  vertex -21.288965225219727 -45.24135208129883 300.0
  vertex -15.450849533081055 47.552825927734375 300.0
 endloop
endfacet
facet normal -0.0 0.0 1.0
 outer loop
  vertex -15.450849533081055 47.552825927734375 300.0
  vertex -21.288965225219727 -45.24135208129883 300.0
  vertex -9.369065284729004 49.11436080932617 300.0
 endloop
endfacet
facet normal -0.0 0.0 1.0
 outer loop
  vertex -21.288965225219727 -45.24135208129883 300.0
  vertex -15.450849533081055 -47.552825927734375 300.0
  vertex -9.369065284729004 49.11436080932617 300.0
 endloop
endfacet
facet normal -0.0 0.0 1.0
 outer loop
  vertex -9.369065284729004 49.11436080932617 300.0
  vertex -15.450849533081055 -47.552825927734375 300.0
  vertex -3.139525890350342 49.901336669921875 300.0
 endloop
endfacet
facet normal -0.0 0.0 1.0
 outer loop
  vertex -15.450849533081055 -47.552825927734375 300.0
  vertex -9.369065284729004 -49.11436080932617 300.0
  vertex -3.139525890350342 49.901336669921875 300.0
 endloop
endfacet
facet normal -0.0 0.0 1.0
 outer loop
  vertex -3.139525890350342 49.901336669921875 300.0
  vertex -9.369065284729004 -49.11436080932617 300.0
  vertex 3.139525890350342 49.901336669921875 300.0
 endloop
endfacet
facet normal -0.0 0.0 1.0
 outer loop
  vertex -9.369065284729004 -49.11436080932617 300.0
  vertex -3.139525890350342 -49.901336669921875 300.0
  vertex 3.139525890350342 49.901336669921875 300.0
 endloop
endfacet
facet normal 0.0 0.0 1.0
 outer loop
  vertex 3.139525890350342 49.901336669921875 300.0
  vertex -3.139525890350342 -49.901336669921875 300.0
  vertex 9.369065284729004 49.11436080932617 300.0
 endloop
endfacet
facet normal 0.0 0.0 1.0
 outer loop
  vertex -3.139525890350342 -49.901336669921875 300.0
  vertex 3.139525890350342 -49.901336669921875 300.0
  vertex 9.369065284729004 49.11436080932617 300.0
 endloop
endfacet
facet normal 0.0 0.0 1.0
 outer loop
  vertex 9.369065284729004 49.11436080932617 300.0
  vertex 3.139525890350342 -49.901336669921875 300.0
  vertex 15.450849533081055 47.552825927734375 300.0
 endloop
endfacet
facet normal 0.0 0.0 1.0
 outer loop
  vertex 3.139525890350342 -49.901336669921875 300.0
  vertex 9.369065284729004 -49.11436080932617 300.0
  vertex 15.450849533081055 47.552825927734375 300.0
 endloop
endfacet
facet normal 0.0 0.0 1.0
 outer loop
  vertex 15.450849533081055 47.552825927734375 300.0
  vertex 9.369065284729004 -49.11436080932617 300.0
  vertex 21.288965225219727 45.24135208129883 300.0
 endloop
endfacet
facet normal 0.0 0.0 1.0
 outer loop
  vertex 9.369065284729004 -49.11436080932617 300.0
  vertex 15.450849533081055 -47.552825927734375 300.0
  vertex 21.288965225219727 45.24135208129883 300.0
 endloop
endfacet
facet normal 0.0 0.0 1.0
 outer loop
  vertex 21.288965225219727 45.24135208129883 300.0
  vertex 15.450849533081055 -47.552825927734375 300.0
  vertex 26.791339874267578 42.21639633178711 300.0
 endloop
endfacet
facet normal 0.0 0.0 1.0
 outer loop
  vertex 15.450849533081055 -47.552825927734375 300.0
  vertex 21.288965225219727 -45.24135208129883 300.0
  vertex 26.791339874267578 42.21639633178711 300.0
 endloop
endfacet
facet normal 0.0 0.0 1.0
 outer loop
  vertex 26.791339874267578 42.21639633178711 300.0
  vertex 21.288965225219727 -45.24135208129883 300.0
  vertex 31.871198654174805 38.52566146850586 300.0
 endloop
endfacet
facet normal 0.0 0.0 1.0
 outer loop
  vertex 21.288965225219727 -45.24135208129883 300.0
  vertex 26.791339874267578 -42.21639633178711 300.0
  vertex 31.871198654174805 38.52566146850586 300.0
 endloop
endfacet
facet normal 0.0 0.0 1.0
 outer loop
  vertex 31.871198654174805 38.52566146850586 300.0
  vertex 26.791339874267578 -42.21639633178711 300.0
  vertex 36.44843292236328 34.22735595703125 300.0
 endloop
endfacet
facet normal 0.0 0.0 1.0
 outer loop
  vertex 26.791339874267578 -42.21639633178711 300.0
  vertex 31.871198654174805 -38.52566146850586 300.0
  vertex 36.44843292236328 34.22735595703125 300.0
 endloop
endfacet
facet normal 0.0 0.0 1.0
 outer loop
  vertex 36.44843292236328 34.22735595703125 300.0
  vertex 31.871198654174805 -38.52566146850586 300.0
  vertex 40.45085144042969 29.389263153076172 300.0
 endloop
endfacet
facet normal 0.0 0.0 1.0
 outer loop
  vertex 31.871198654174805 -38.52566146850586 300.0
  vertex 36.44843292236328 -34.22735595703125 300.0
  vertex 40.45085144042969 29.389263153076172 300.0
 endloop
endfacet
facet normal 0.0 0.0 1.0
 outer loop
  vertex 40.45085144042969 29.389263153076172 300.0
  vertex 36.44843292236328 -34.22735595703125 300.0
  vertex 43.81533432006836 24.087684631347656 300.0
 endloop
endfacet
facet normal 0.0 0.0 1.0
 outer loop
  vertex 36.44843292236328 -34.22735595703125 300.0
  vertex 40.45085144042969 -29.389263153076172 300.0
  vertex 43.81533432006836 24.087684631347656 300.0
 endloop
endfacet
facet normal 0.0 0.0 1.0
 outer loop
  vertex 43.81533432006836 24.087684631347656 300.0
  vertex 40.45085144042969 -29.389263153076172 300.0
  vertex 46.48882293701172 18.406227111816406 300.0
 endloop
endfacet
facet normal 0.0 0.0 1.0
 outer loop
  vertex 40.45085144042969 -29.389263153076172 300.0
  vertex 43.81533432006836 -24.087684631347656 300.0
  vertex 46.48882293701172 18.406227111816406 300.0
 endloop
endfacet
facet normal 0.0 0.0 1.0
 outer loop
  vertex 46.48882293701172 18.406227111816406 300.0
  vertex 43.81533432006836 -24.087684631347656 300.0
  vertex 48.42915725708008 12.434494018554688 300.0
 endloop
endfacet
facet normal 0.0 0.0 1.0
 outer loop
  vertex 43.81533432006836 -24.087684631347656 300.0
  vertex 46.48882293701172 -18.406227111816406 300.0
  vertex 48.42915725708008 12.434494018554688 300.0
 endloop
endfacet
facet normal 0.0 0.0 1.0
 outer loop
  vertex 48.42915725708008 12.434494018554688 300.0
  vertex 46.48882293701172 -18.406227111816406 300.0
  vertex 49.605735778808594 6.266661643981934 300.0
 endloop
endfacet
facet normal 0.0 0.0 1.0
 outer loop
  vertex 46.48882293701172 -18.406227111816406 300.0
  vertex 48.42915725708008 -12.434494018554688 300.0
  vertex 49.605735778808594 6.266661643981934 300.0
 endloop
endfacet
facet normal 0.0 0.0 1.0
 outer loop
  vertex 49.605735778808594 6.266661643981934 300.0
  vertex 48.42915725708008 -12.434494018554688 300.0
  vertex 50.0 5.4366914751602727e-14 300.0
 endloop
endfacet
facet normal 0.0 0.0 1.0
 outer loop
  vertex 48.42915725708008 -12.434494018554688 300.0
  vertex 49.605735778808594 -6.266661643981934 300.0
  vertex 50.0 5.4366914751602727e-14 300.0
 endloop
endfacet
facet normal 0.0 0.0 -1.0
 outer loop
  vertex -49.605735778808594 -6.266661643981934 0.0
  vertex -50.0 1.2246467572939613e-14 0.0
  vertex -48.42915725708008 -12.434494018554688 0.0
 endloop
endfacet
facet normal 0.0 0.0 -1.0
 outer loop
  vertex -50.0 1.2246467572939613e-14 0.0
  vertex -49.605735778808594 6.266661643981934 0.0
  vertex -48.42915725708008 -12.434494018554688 0.0
 endloop
endfacet
facet normal 0.0 0.0 -1.0
 outer loop
  vertex -48.42915725708008 -12.434494018554688 0.0
  vertex -49.605735778808594 6.266661643981934 0.0
  vertex -46.48882293701172 -18.406227111816406 0.0
 endloop
endfacet
facet normal 0.0 0.0 -1.0
 outer loop
  vertex -49.605735778808594 6.266661643981934 0.0
  vertex -48.42915725708008 12.434494018554688 0.0
  vertex -46.48882293701172 -18.406227111816406 0.0
 endloop
endfacet
facet normal 0.0 0.0 -1.0
 outer loop
  vertex -46.48882293701172 -18.406227111816406 0.0
  vertex -48.42915725708008 12.434494018554688 0.0
  vertex -43.81533432006836 -24.087684631347656 0.0
 endloop
endfacet
facet normal 0.0 0.0 -1.0
 outer loop
  vertex -48.42915725708008 12.434494018554688 0.0
  vertex -46.48882293701172 18.406227111816406 0.0
  vertex -43.81533432006836 -24.087684631347656 0.0
 endloop
endfacet
facet normal 0.0 0.0 -1.0
 outer loop
  vertex -43.81533432006836 -24.087684631347656 0.0
  vertex -46.48882293701172 18.406227111816406 0.0
  vertex -40.45085144042969 -29.389263153076172 0.0
 endloop
endfacet
facet normal 0.0 0.0 -1.0
 outer loop
  vertex -46.48882293701172 18.406227111816406 0.0
  vertex -43.81533432006836 24.087684631347656 0.0
  vertex -40.45085144042969 -29.389263153076172 0.0
 endloop
endfacet
facet normal 0.0 0.0 -1.0
 outer loop
  vertex -40.45085144042969 -29.389263153076172 0.0
  vertex -43.81533432006836 24.087684631347656 0.0
  vertex -36.44843292236328 -34.22735595703125 0.0
 endloop
endfacet
facet normal 0.0 0.0 -1.0
 outer loop
  vertex -43.81533432006836 24.087684631347656 0.0
  vertex -40.45085144042969 29.389263153076172 0.0
  vertex -36.44843292236328 -34.22735595703125 0.0
 endloop
endfacet
facet normal 0.0 0.0 -1.0
 outer loop
  vertex -36.44843292236328 -34.22735595703125 0.0
  vertex -40.45085144042969 29.389263153076172 0.0
  vertex -31.871198654174805 -38.52566146850586 0.0
 endloop
endfacet
facet normal 0.0 0.0 -1.0
 outer loop
  vertex -40.45085144042969 29.389263153076172 0.0
  vertex -36.44843292236328 34.22735595703125 0.0
  vertex -31.871198654174805 -38.52566146850586 0.0
 endloop
endfacet
facet normal 0.0 0.0 -1.0
 outer loop
  vertex -31.871198654174805 -38.52566146850586 0.0
  vertex -36.44843292236328 34.22735595703125 0.0
  vertex -26.791339874267578 -42.21639633178711 0.0
 endloop
endfacet
facet normal 0.0 0.0 -1.0
 outer loop
  vertex -36.44843292236328 34.22735595703125 0.0
  vertex -31.871198654174805 38.52566146850586 0.0
  vertex -26.791339874267578 -42.21639633178711 0.0
 endloop
endfacet
facet normal 0.0 0.0 -1.0
 outer loop
  vertex -26.791339874267578 -42.21639633178711 0.0
  vertex -31.871198654174805 38.52566146850586 0.0
  vertex -21.288965225219727 -45.24135208129883 0.0
 endloop
endfacet
facet normal 0.0 0.0 -1.0
 outer loop
  vertex -31.871198654174805 38.52566146850586 0.0
  vertex -26.791339874267578 42.21639633178711 0.0
  vertex -21.288965225219727 -45.24135208129883 0.0
 endloop
endfacet
facet normal 0.0 0.0 -1.0
 outer loop
  vertex -21.288965225219727 -45.24135208129883 0.0
  vertex -26.791339874267578 42.21639633178711 0.0
  vertex -15.450849533081055 -47.552825927734375 0.0
 endloop
endfacet
facet normal 0.0 0.0 -1.0
 outer loop
  vertex -26.791339874267578 42.21639633178711 0.0
  vertex -21.288965225219727 45.24135208129883 0.0
  vertex -15.450849533081055 -47.552825927734375 0.0
 endloop
endfacet
facet normal 0.0 0.0 -1.0
 outer loop
  vertex -15.450849533081055 -47.552825927734375 0.0
  vertex -21.288965225219727 45.24135208129883 0.0
  vertex -9.369065284729004 -49.11436080932617 0.0
 endloop
endfacet
facet normal 0.0 0.0 -1.0
 outer loop
  vertex -21.288965225219727 45.24135208129883 0.0
  vertex -15.450849533081055 47.552825927734375 0.0
  vertex -9.369065284729004 -49.11436080932617 0.0
 endloop
endfacet
facet normal 0.0 0.0 -1.0
 outer loop
  vertex -9.369065284729004 -49.11436080932617 0.0
  vertex -15.450849533081055 47.552825927734375 0.0
  vertex -3.139525890350342 -49.901336669921875 0.0
 endloop
endfacet
facet normal 0.0 0.0 -1.0
 outer loop
  vertex -15.450849533081055 47.552825927734375 0.0
  vertex -9.369065284729004 49.11436080932617 0.0
  vertex -3.139525890350342 -49.901336669921875 0.0
 endloop
endfacet
facet normal 0.0 0.0 -1.0
 outer loop
  vertex -3.139525890350342 -49.901336669921875 0.0
  vertex -9.369065284729004 49.11436080932617 0.0
  vertex 3.139525890350342 -49.901336669921875 0.0
 endloop
endfacet
facet normal 0.0 0.0 -1.0
 outer loop
  vertex -9.369065284729004 49.11436080932617 0.0
  vertex -3.139525890350342 49.901336669921875 0.0
  vertex 3.139525890350342 -49.901336669921875 0.0
 endloop
endfacet
facet normal 0.0 0.0 -1.0
 outer loop
  vertex 3.139525890350342 -49.901336669921875 0.0
  vertex -3.139525890350342 49.901336669921875 0.0
  vertex 9.369065284729004 -49.11436080932617 0.0
 endloop
endfacet
facet normal 0.0 0.0 -1.0
 outer loop
  vertex -3.139525890350342 49.901336669921875 0.0
  vertex 3.139525890350342 49.901336669921875 0.0
  vertex 9.369065284729004 -49.11436080932617 0.0
 endloop
endfacet
facet normal 0.0 0.0 -1.0
 outer loop
  vertex 9.369065284729004 -49.11436080932617 0.0
  vertex 3.139525890350342 49.901336669921875 0.0
  vertex 15.450849533081055 -47.552825927734375 0.0
 endloop
endfacet
facet normal 0.0 0.0 -1.0
 outer loop
  vertex 3.139525890350342 49.901336669921875 0.0
  vertex 9.369065284729004 49.11436080932617 0.0
  vertex 15.450849533081055 -47.552825927734375 0.0
 endloop
endfacet
facet normal 0.0 0.0 -1.0
 outer loop
  vertex 15.450849533081055 -47.552825927734375 0.0
  vertex 9.369065284729004 49.11436080932617 0.0
  vertex 21.288965225219727 -45.24135208129883 0.0
 endloop
endfacet
facet normal 0.0 0.0 -1.0
 outer loop
  vertex 9.369065284729004 49.11436080932617 0.0
  vertex 15.450849533081055 47.552825927734375 0.0
  vertex 21.288965225219727 -45.24135208129883 0.0
 endloop
endfacet
facet normal 0.0 0.0 -1.0
 outer loop
  vertex 21.288965225219727 -45.24135208129883 0.0
  vertex 15.450849533081055 47.552825927734375 0.0
  vertex 26.791339874267578 -42.21639633178711 0.0
 endloop
endfacet
facet normal 0.0 0.0 -1.0
 outer loop
  vertex 15.450849533081055 47.552825927734375 0.0
  vertex 21.288965225219727 45.24135208129883 0.0
  vertex 26.791339874267578 -42.21639633178711 0.0
 endloop
endfacet
facet normal 0.0 0.0 -1.0
 outer loop
  vertex 26.791339874267578 -42.21639633178711 0.0
  vertex 21.288965225219727 45.24135208129883 0.0
  vertex 31.871198654174805 -38.52566146850586 0.0
 endloop
endfacet
facet normal 0.0 0.0 -1.0
 outer loop
  vertex 21.288965225219727 45.24135208129883 0.0
  vertex 26.791339874267578 42.21639633178711 0.0
  vertex 31.871198654174805 -38.52566146850586 0.0
 endloop
endfacet
facet normal 0.0 0.0 -1.0
 outer loop
  vertex 31.871198654174805 -38.52566146850586 0.0
  vertex 26.791339874267578 42.21639633178711 0.0
  vertex 36.44843292236328 -34.22735595703125 0.0
 endloop
endfacet
facet normal 0.0 0.0 -1.0
 outer loop
  vertex 26.791339874267578 42.21639633178711 0.0
  vertex 31.871198654174805 38.52566146850586 0.0
  vertex 36.44843292236328 -34.22735595703125 0.0
 endloop
endfacet
facet normal 0.0 0.0 -1.0
 outer loop
  vertex 36.44843292236328 -34.22735595703125 0.0
  vertex 31.871198654174805 38.52566146850586 0.0
  vertex 40.45085144042969 -29.389263153076172 0.0
 endloop
endfacet
facet normal 0.0 0.0 -1.0
 outer loop
  vertex 31.871198654174805 38.52566146850586 0.0
  vertex 36.44843292236328 34.22735595703125 0.0
  vertex 40.45085144042969 -29.389263153076172 0.0
 endloop
endfacet
facet normal 0.0 0.0 -1.0
 outer loop
  vertex 40.45085144042969 -29.389263153076172 0.0
  vertex 36.44843292236328 34.22735595703125 0.0
  vertex 43.81533432006836 -24.087684631347656 0.0
 endloop
endfacet
facet normal 0.0 0.0 -1.0
 outer loop
  vertex 36.44843292236328 34.22735595703125 0.0
  vertex 40.45085144042969 29.389263153076172 0.0
  vertex 43.81533432006836 -24.087684631347656 0.0
 endloop
endfacet
facet normal 0.0 0.0 -1.0
 outer loop
  vertex 43.81533432006836 -24.087684631347656 0.0
  vertex 40.45085144042969 29.389263153076172 0.0
  vertex 46.48882293701172 -18.406227111816406 0.0
 endloop
endfacet
facet normal 0.0 0.0 -1.0
 outer loop
  vertex 40.45085144042969 29.389263153076172 0.0
  vertex 43.81533432006836 24.087684631347656 0.0
  vertex 46.48882293701172 -18.406227111816406 0.0
 endloop
endfacet
facet normal 0.0 0.0 -1.0
 outer loop
  vertex 46.48882293701172 -18.406227111816406 0.0
  vertex 43.81533432006836 24.087684631347656 0.0
  vertex 48.42915725708008 -12.434494018554688 0.0
 endloop
endfacet
facet normal 0.0 0.0 -1.0
 outer loop
  vertex 43.81533432006836 24.087684631347656 0.0
  vertex 46.48882293701172 18.406227111816406 0.0
  vertex 48.42915725708008 -12.434494018554688 0.0
 endloop
endfacet
facet normal 0.0 0.0 -1.0
 outer loop
  vertex 48.42915725708008 -12.434494018554688 0.0
  vertex 46.48882293701172 18.406227111816406 0.0
  vertex 49.605735778808594 -6.266661643981934 0.0
 endloop
endfacet
facet normal 0.0 0.0 -1.0
 outer loop
  vertex 46.48882293701172 18.406227111816406 0.0
  vertex 48.42915725708008 12.434494018554688 0.0
  vertex 49.605735778808594 -6.266661643981934 0.0
 endloop
endfacet
facet normal 0.0 0.0 -1.0
 outer loop
  vertex 49.605735778808594 -6.266661643981934 0.0
  vertex 48.42915725708008 12.434494018554688 0.0
  vertex 50.0 5.4366914751602727e-14 0.0
 endloop
endfacet
facet normal 0.0 0.0 -1.0
 outer loop
  vertex 48.42915725708008 12.434494018554688 0.0
  vertex 49.605735778808594 6.266661643981934 0.0
  vertex 50.0 5.4366914751602727e-14 0.0
 endloop
endfacet
endsolid
