solid
facet normal -0.05413844436407089 0.9985334277153015 0.0
 outer loop
  vertex -205.0 70.0 0.0
  vertex -212.56832885742188 69.58966064453125 0.0
  vertex -212.56832885742188 69.58966064453125 74.0
 endloop
endfacet
facet normal -0.05413844436407089 0.9985334277153015 0.0
 outer loop
  vertex -205.0 70.0 0.0
  vertex -212.56832885742188 69.58966064453125 74.0
  vertex -205.0 70.0 74.0
 endloop
endfacet
facet normal -0.1617821455001831 0.9868265390396118 0.0
 outer loop
  vertex -212.56832885742188 69.58966064453125 0.0
  vertex -220.0479278564453 68.36344146728516 0.0
  vertex -220.0479278564453 68.36344146728516 74.0
 endloop
endfacet
facet normal -0.1617821455001831 0.9868265390396118 0.0
 outer loop
  vertex -212.56832885742188 69.58966064453125 0.0
  vertex -220.0479278564453 68.36344146728516 74.0
  vertex -212.56832885742188 69.58966064453125 74.0
 endloop
endfacet
facet normal -0.2675284147262573 0.9635499119758606 0.0
 outer loop
  vertex -220.0479278564453 68.36344146728516 0.0
  vertex -227.35110473632812 66.33572387695312 0.0
  vertex -227.35110473632812 66.33572387695312 74.0
 endloop
endfacet
facet normal -0.2675284147262573 0.9635499119758606 0.0
 outer loop
  vertex -220.0479278564453 68.36344146728516 0.0
  vertex -227.35110473632812 66.33572387695312 74.0
  vertex -220.0479278564453 68.36344146728516 74.0
 endloop
endfacet
facet normal -0.3701378107070923 0.928976833820343 0.0
 outer loop
  vertex -227.35110473632812 66.33572387695312 0.0
  vertex -234.39224243164062 63.53028106689453 0.0
  vertex -234.39224243164062 63.53028106689453 74.0
 endloop
endfacet
facet normal -0.3701378107070923 0.928976833820343 0.0
 outer loop
  vertex -227.35110473632812 66.33572387695312 0.0
  vertex -234.39224243164062 63.53028106689453 74.0
  vertex -227.35110473632812 66.33572387695312 74.0
 endloop
endfacet
facet normal -0.4684084951877594 0.883512020111084 0.0
 outer loop
  vertex -234.39224243164062 63.53028106689453 0.0
  vertex -241.08877563476562 59.980003356933594 0.0
  vertex -241.08877563476562 59.980003356933594 74.0
 endloop
endfacet
facet normal -0.4684084951877594 0.883512020111084 0.0
 outer loop
  vertex -234.39224243164062 63.53028106689453 0.0
  vertex -241.08877563476562 59.980003356933594 74.0
  vertex -234.39224243164062 63.53028106689453 74.0
 endloop
endfacet
facet normal -0.5611875057220459 0.8276886940002441 0.0
 outer loop
  vertex -241.08877563476562 59.980003356933594 0.0
  vertex -247.36219787597656 55.72651290893555 0.0
  vertex -247.36219787597656 55.72651290893555 74.0
 endloop
endfacet
facet normal -0.5611875057220459 0.8276886940002441 0.0
 outer loop
  vertex -241.08877563476562 59.980003356933594 0.0
  vertex -247.36219787597656 55.72651290893555 74.0
  vertex -241.08877563476562 59.980003356933594 74.0
 endloop
endfacet
facet normal -0.6473864316940308 0.762161910533905 0.0
 outer loop
  vertex -247.36219787597656 55.72651290893555 0.0
  vertex -253.1389617919922 50.81968307495117 0.0
  vertex -253.1389617919922 50.81968307495117 74.0
 endloop
endfacet
facet normal -0.6473864316940308 0.762161910533905 0.0
 outer loop
  vertex -247.36219787597656 55.72651290893555 0.0
  vertex -253.1389617919922 50.81968307495117 74.0
  vertex -247.36219787597656 55.72651290893555 74.0
 endloop
endfacet
facet normal -0.7259950637817383 0.6876998543739319 0.0
 outer loop
  vertex -253.1389617919922 50.81968307495117 0.0
  vertex -258.3513488769531 45.317039489746094 0.0
  vertex -258.3513488769531 45.317039489746094 74.0
 endloop
endfacet
facet normal -0.7259950637817383 0.6876998543739319 0.0
 outer loop
  vertex -253.1389617919922 50.81968307495117 0.0
  vertex -258.3513488769531 45.317039489746094 74.0
  vertex -253.1389617919922 50.81968307495117 74.0
 endloop
endfacet
facet normal -0.7960931062698364 0.60517418384552 0.0
 outer loop
  vertex -258.3513488769531 45.317039489746094 0.0
  vertex -262.938232421875 39.28309631347656 0.0
  vertex -262.938232421875 39.28309631347656 74.0
 endloop
endfacet
facet normal -0.7960931062698364 0.60517418384552 0.0
 outer loop
  vertex -258.3513488769531 45.317039489746094 0.0
  vertex -262.938232421875 39.28309631347656 74.0
  vertex -258.3513488769531 45.317039489746094 74.0
 endloop
endfacet
facet normal -0.8568567633628845 0.515554666519165 0.0
 outer loop
  vertex -262.938232421875 39.28309631347656 0.0
  vertex -266.8458557128906 32.78858947753906 0.0
  vertex -266.8458557128906 32.78858947753906 74.0
 endloop
endfacet
facet normal -0.8568567633628845 0.515554666519165 0.0
 outer loop
  vertex -262.938232421875 39.28309631347656 0.0
  vertex -266.8458557128906 32.78858947753906 74.0
  vertex -262.938232421875 39.28309631347656 74.0
 endloop
endfacet
facet normal -0.9075754284858704 0.41988903284072876 0.0
 outer loop
  vertex -266.8458557128906 32.78858947753906 0.0
  vertex -270.02838134765625 25.909671783447266 0.0
  vertex -270.02838134765625 25.909671783447266 74.0
 endloop
endfacet
facet normal -0.9075754284858704 0.41988903284072876 0.0
 outer loop
  vertex -266.8458557128906 32.78858947753906 0.0
  vertex -270.02838134765625 25.909671783447266 74.0
  vertex -266.8458557128906 32.78858947753906 74.0
 endloop
endfacet
facet normal -0.947654128074646 0.3192986249923706 0.0
 outer loop
  vertex -270.02838134765625 25.909671783447266 0.0
  vertex -272.448486328125 18.72698402404785 0.0
  vertex -272.448486328125 18.72698402404785 74.0
 endloop
endfacet
facet normal -0.947654128074646 0.3192986249923706 0.0
 outer loop
  vertex -270.02838134765625 25.909671783447266 0.0
  vertex -272.448486328125 18.72698402404785 74.0
  vertex -270.02838134765625 25.909671783447266 74.0
 endloop
endfacet
facet normal -0.9766203761100769 0.21497128903865814 0.0
 outer loop
  vertex -272.448486328125 18.72698402404785 0.0
  vertex -274.0778503417969 11.324739456176758 0.0
  vertex -274.0778503417969 11.324739456176758 74.0
 endloop
endfacet
facet normal -0.9766203761100769 0.21497128903865814 0.0
 outer loop
  vertex -272.448486328125 18.72698402404785 0.0
  vertex -274.0778503417969 11.324739456176758 74.0
  vertex -272.448486328125 18.72698402404785 74.0
 endloop
endfacet
facet normal -0.9941378235816956 0.10811981558799744 0.0
 outer loop
  vertex -274.0778503417969 11.324739456176758 0.0
  vertex -274.8973388671875 3.7897236347198486 0.0
  vertex -274.8973388671875 3.7897236347198486 74.0
 endloop
endfacet
facet normal -0.9941378235816956 0.10811981558799744 0.0
 outer loop
  vertex -274.0778503417969 11.324739456176758 0.0
  vertex -274.8973388671875 3.7897236347198486 74.0
  vertex -274.0778503417969 11.324739456176758 74.0
 endloop
endfacet
facet normal -1.0 0.0 0.0
 outer loop
  vertex -274.8973388671875 3.7897236347198486 0.0
  vertex -274.8973388671875 -3.7897236347198486 0.0
  vertex -274.8973388671875 -3.7897236347198486 74.0
 endloop
endfacet
facet normal -1.0 0.0 0.0
 outer loop
  vertex -274.8973388671875 3.7897236347198486 0.0
  vertex -274.8973388671875 -3.7897236347198486 74.0
  vertex -274.8973388671875 3.7897236347198486 74.0
 endloop
endfacet
facet normal -0.9941378235816956 -0.10811981558799744 0.0
 outer loop
  vertex -274.8973388671875 -3.7897236347198486 0.0
  vertex -274.0778503417969 -11.324739456176758 0.0
  vertex -274.0778503417969 -11.324739456176758 74.0
 endloop
endfacet
facet normal -0.9941378235816956 -0.10811981558799744 0.0
 outer loop
  vertex -274.8973388671875 -3.7897236347198486 0.0
  vertex -274.0778503417969 -11.324739456176758 74.0
  vertex -274.8973388671875 -3.7897236347198486 74.0
 endloop
endfacet
facet normal -0.9766203761100769 -0.21497128903865814 0.0
 outer loop
  vertex -274.0778503417969 -11.324739456176758 0.0
  vertex -272.448486328125 -18.72698402404785 0.0
  vertex -272.448486328125 -18.72698402404785 74.0
 endloop
endfacet
facet normal -0.9766203761100769 -0.21497128903865814 0.0
 outer loop
  vertex -274.0778503417969 -11.324739456176758 0.0
  vertex -272.448486328125 -18.72698402404785 74.0
  vertex -274.0778503417969 -11.324739456176758 74.0
 endloop
endfacet
facet normal -0.947654128074646 -0.3192986249923706 0.0
 outer loop
  vertex -272.448486328125 -18.72698402404785 0.0
  vertex -270.02838134765625 -25.909671783447266 0.0
  vertex -270.02838134765625 -25.909671783447266 74.0
 endloop
endfacet
facet normal -0.947654128074646 -0.3192986249923706 0.0
 outer loop
  vertex -272.448486328125 -18.72698402404785 0.0
  vertex -270.02838134765625 -25.909671783447266 74.0
  vertex -272.448486328125 -18.72698402404785 74.0
 endloop
endfacet
facet normal -0.9075754284858704 -0.41988903284072876 0.0
 outer loop
  vertex -270.02838134765625 -25.909671783447266 0.0
  vertex -266.8458557128906 -32.78858947753906 0.0
  vertex -266.8458557128906 -32.78858947753906 74.0
 endloop
endfacet
facet normal -0.9075754284858704 -0.41988903284072876 0.0
 outer loop
  vertex -270.02838134765625 -25.909671783447266 0.0
  vertex -266.8458557128906 -32.78858947753906 74.0
  vertex -270.02838134765625 -25.909671783447266 74.0
 endloop
endfacet
facet normal -0.8568567633628845 -0.515554666519165 0.0
 outer loop
  vertex -266.8458557128906 -32.78858947753906 0.0
  vertex -262.938232421875 -39.28309631347656 0.0
  vertex -262.938232421875 -39.28309631347656 74.0
 endloop
endfacet
facet normal -0.8568567633628845 -0.515554666519165 0.0
 outer loop
  vertex -266.8458557128906 -32.78858947753906 0.0
  vertex -262.938232421875 -39.28309631347656 74.0
  vertex -266.8458557128906 -32.78858947753906 74.0
 endloop
endfacet
facet normal -0.7960931062698364 -0.60517418384552 0.0
 outer loop
  vertex -262.938232421875 -39.28309631347656 0.0
  vertex -258.3513488769531 -45.317039489746094 0.0
  vertex -258.3513488769531 -45.317039489746094 74.0
 endloop
endfacet
facet normal -0.7960931062698364 -0.60517418384552 0.0
 outer loop
  vertex -262.938232421875 -39.28309631347656 0.0
  vertex -258.3513488769531 -45.317039489746094 74.0
  vertex -262.938232421875 -39.28309631347656 74.0
 endloop
endfacet
facet normal -0.7259950637817383 -0.6876998543739319 0.0
 outer loop
  vertex -258.3513488769531 -45.317039489746094 0.0
  vertex -253.1389617919922 -50.81968307495117 0.0
  vertex -253.1389617919922 -50.81968307495117 74.0
 endloop
endfacet
facet normal -0.7259950637817383 -0.6876998543739319 0.0
 outer loop
  vertex -258.3513488769531 -45.317039489746094 0.0
  vertex -253.1389617919922 -50.81968307495117 74.0
  vertex -258.3513488769531 -45.317039489746094 74.0
 endloop
endfacet
facet normal -0.6473864316940308 -0.762161910533905 0.0
 outer loop
  vertex -253.1389617919922 -50.81968307495117 0.0
  vertex -247.36219787597656 -55.72651290893555 0.0
  vertex -247.36219787597656 -55.72651290893555 74.0
 endloop
endfacet
facet normal -0.6473864316940308 -0.762161910533905 0.0
 outer loop
  vertex -253.1389617919922 -50.81968307495117 0.0
  vertex -247.36219787597656 -55.72651290893555 74.0
  vertex -253.1389617919922 -50.81968307495117 74.0
 endloop
endfacet
facet normal -0.5611875057220459 -0.8276886940002441 0.0
 outer loop
  vertex -247.36219787597656 -55.72651290893555 0.0
  vertex -241.08877563476562 -59.980003356933594 0.0
  vertex -241.08877563476562 -59.980003356933594 74.0
 endloop
endfacet
facet normal -0.5611875057220459 -0.8276886940002441 0.0
 outer loop
  vertex -247.36219787597656 -55.72651290893555 0.0
  vertex -241.08877563476562 -59.980003356933594 74.0
  vertex -247.36219787597656 -55.72651290893555 74.0
 endloop
endfacet
facet normal -0.4684084951877594 -0.883512020111084 0.0
 outer loop
  vertex -241.08877563476562 -59.980003356933594 0.0
  vertex -234.39224243164062 -63.53028106689453 0.0
  vertex -234.39224243164062 -63.53028106689453 74.0
 endloop
endfacet
facet normal -0.4684084951877594 -0.883512020111084 0.0
 outer loop
  vertex -241.08877563476562 -59.980003356933594 0.0
  vertex -234.39224243164062 -63.53028106689453 74.0
  vertex -241.08877563476562 -59.980003356933594 74.0
 endloop
endfacet
facet normal -0.3701378107070923 -0.928976833820343 0.0
 outer loop
  vertex -234.39224243164062 -63.53028106689453 0.0
  vertex -227.35110473632812 -66.33572387695312 0.0
  vertex -227.35110473632812 -66.33572387695312 74.0
 endloop
endfacet
facet normal -0.3701378107070923 -0.928976833820343 0.0
 outer loop
  vertex -234.39224243164062 -63.53028106689453 0.0
  vertex -227.35110473632812 -66.33572387695312 74.0
  vertex -234.39224243164062 -63.53028106689453 74.0
 endloop
endfacet
facet normal -0.2675284147262573 -0.9635499119758606 0.0
 outer loop
  vertex -227.35110473632812 -66.33572387695312 0.0
  vertex -220.0479278564453 -68.36344146728516 0.0
  vertex -220.0479278564453 -68.36344146728516 74.0
 endloop
endfacet
facet normal -0.2675284147262573 -0.9635499119758606 0.0
 outer loop
  vertex -227.35110473632812 -66.33572387695312 0.0
  vertex -220.0479278564453 -68.36344146728516 74.0
  vertex -227.35110473632812 -66.33572387695312 74.0
 endloop
endfacet
facet normal -0.1617821455001831 -0.9868265390396118 0.0
 outer loop
  vertex -220.0479278564453 -68.36344146728516 0.0
  vertex -212.56832885742188 -69.58966064453125 0.0
  vertex -212.56832885742188 -69.58966064453125 74.0
 endloop
endfacet
facet normal -0.1617821455001831 -0.9868265390396118 0.0
 outer loop
  vertex -220.0479278564453 -68.36344146728516 0.0
  vertex -212.56832885742188 -69.58966064453125 74.0
  vertex -220.0479278564453 -68.36344146728516 74.0
 endloop
endfacet
facet normal -0.05413844436407089 -0.9985334277153015 0.0
 outer loop
  vertex -212.56832885742188 -69.58966064453125 0.0
  vertex -205.0 -70.0 0.0
  vertex -205.0 -70.0 74.0
 endloop
endfacet
facet normal -0.05413844436407089 -0.9985334277153015 0.0
 outer loop
  vertex -212.56832885742188 -69.58966064453125 0.0
  vertex -205.0 -70.0 74.0
  vertex -212.56832885742188 -69.58966064453125 74.0
 endloop
endfacet
facet normal 0.0 -1.0 0.0
 outer loop
  vertex -205.0 -70.0 74.0
  vertex -205.0 -70.0 0.0
  vertex 0.0 -70.0 0.0
 endloop
endfacet
facet normal 0.0 -1.0 0.0
 outer loop
  vertex -205.0 -70.0 74.0
  vertex 0.0 -70.0 0.0
  vertex 0.0 -70.0 74.0
 endloop
endfacet
facet normal 0.0541384294629097 -0.9985334277153015 0.0
 outer loop
  vertex -1.2858791078641536e-14 -70.0 0.0
  vertex 7.568331241607666 -69.58966064453125 0.0
  vertex 7.568331241607666 -69.58966064453125 74.0
 endloop
endfacet
facet normal 0.0541384294629097 -0.9985334277153015 0.0
 outer loop
  vertex -1.2858791078641536e-14 -70.0 0.0
  vertex 7.568331241607666 -69.58966064453125 74.0
  vertex -1.2858791078641536e-14 -70.0 74.0
 endloop
endfacet
facet normal 0.1617821455001831 -0.9868265390396118 0.0
 outer loop
  vertex 7.568331241607666 -69.58966064453125 0.0
  vertex 15.047930717468262 -68.36344146728516 0.0
  vertex 15.047930717468262 -68.36344146728516 74.0
 endloop
endfacet
facet normal 0.1617821455001831 -0.9868265390396118 0.0
 outer loop
  vertex 7.568331241607666 -69.58966064453125 0.0
  vertex 15.047930717468262 -68.36344146728516 74.0
  vertex 7.568331241607666 -69.58966064453125 74.0
 endloop
endfacet
facet normal 0.2675284147262573 -0.9635499119758606 0.0
 outer loop
  vertex 15.047930717468262 -68.36344146728516 0.0
  vertex 22.351106643676758 -66.33572387695312 0.0
  vertex 22.351106643676758 -66.33572387695312 74.0
 endloop
endfacet
facet normal 0.2675284147262573 -0.9635499119758606 0.0
 outer loop
  vertex 15.047930717468262 -68.36344146728516 0.0
  vertex 22.351106643676758 -66.33572387695312 74.0
  vertex 15.047930717468262 -68.36344146728516 74.0
 endloop
endfacet
facet normal 0.3701381981372833 -0.9289767742156982 0.0
 outer loop
  vertex 22.351106643676758 -66.33572387695312 0.0
  vertex 29.392236709594727 -63.53028106689453 0.0
  vertex 29.392236709594727 -63.53028106689453 74.0
 endloop
endfacet
facet normal 0.3701381981372833 -0.9289767742156982 0.0
 outer loop
  vertex 22.351106643676758 -66.33572387695312 0.0
  vertex 29.392236709594727 -63.53028106689453 74.0
  vertex 22.351106643676758 -66.33572387695312 74.0
 endloop
endfacet
facet normal 0.46840837597846985 -0.8835120797157288 0.0
 outer loop
  vertex 29.392236709594727 -63.53028106689453 0.0
  vertex 36.08877182006836 -59.980003356933594 0.0
  vertex 36.08877182006836 -59.980003356933594 74.0
 endloop
endfacet
facet normal 0.46840837597846985 -0.8835120797157288 0.0
 outer loop
  vertex 29.392236709594727 -63.53028106689453 0.0
  vertex 36.08877182006836 -59.980003356933594 74.0
  vertex 29.392236709594727 -63.53028106689453 74.0
 endloop
endfacet
facet normal 0.5611875057220459 -0.8276886940002441 0.0
 outer loop
  vertex 36.08877182006836 -59.980003356933594 0.0
  vertex 42.3621940612793 -55.72651290893555 0.0
  vertex 42.3621940612793 -55.72651290893555 74.0
 endloop
endfacet
facet normal 0.5611875057220459 -0.8276886940002441 0.0
 outer loop
  vertex 36.08877182006836 -59.980003356933594 0.0
  vertex 42.3621940612793 -55.72651290893555 74.0
  vertex 36.08877182006836 -59.980003356933594 74.0
 endloop
endfacet
facet normal 0.6473862528800964 -0.7621621489524841 0.0
 outer loop
  vertex 42.3621940612793 -55.72651290893555 0.0
  vertex 48.13896179199219 -50.81968307495117 0.0
  vertex 48.13896179199219 -50.81968307495117 74.0
 endloop
endfacet
facet normal 0.6473862528800964 -0.7621621489524841 0.0
 outer loop
  vertex 42.3621940612793 -55.72651290893555 0.0
  vertex 48.13896179199219 -50.81968307495117 74.0
  vertex 42.3621940612793 -55.72651290893555 74.0
 endloop
endfacet
facet normal 0.7259953618049622 -0.6876996755599976 0.0
 outer loop
  vertex 48.13896179199219 -50.81968307495117 0.0
  vertex 53.35134506225586 -45.317039489746094 0.0
  vertex 53.35134506225586 -45.317039489746094 74.0
 endloop
endfacet
facet normal 0.7259953618049622 -0.6876996755599976 0.0
 outer loop
  vertex 48.13896179199219 -50.81968307495117 0.0
  vertex 53.35134506225586 -45.317039489746094 74.0
  vertex 48.13896179199219 -50.81968307495117 74.0
 endloop
endfacet
facet normal 0.7960931062698364 -0.60517418384552 0.0
 outer loop
  vertex 53.35134506225586 -45.317039489746094 0.0
  vertex 57.938228607177734 -39.28309631347656 0.0
  vertex 57.938228607177734 -39.28309631347656 74.0
 endloop
endfacet
facet normal 0.7960931062698364 -0.60517418384552 0.0
 outer loop
  vertex 53.35134506225586 -45.317039489746094 0.0
  vertex 57.938228607177734 -39.28309631347656 74.0
  vertex 53.35134506225586 -45.317039489746094 74.0
 endloop
endfacet
facet normal 0.8568571209907532 -0.5155539512634277 0.0
 outer loop
  vertex 57.938228607177734 -39.28309631347656 0.0
  vertex 61.84584426879883 -32.78858947753906 0.0
  vertex 61.84584426879883 -32.78858947753906 74.0
 endloop
endfacet
facet normal 0.8568571209907532 -0.5155539512634277 0.0
 outer loop
  vertex 57.938228607177734 -39.28309631347656 0.0
  vertex 61.84584426879883 -32.78858947753906 74.0
  vertex 57.938228607177734 -39.28309631347656 74.0
 endloop
endfacet
facet normal 0.907575249671936 -0.4198894202709198 0.0
 outer loop
  vertex 61.84584426879883 -32.78858947753906 0.0
  vertex 65.02837371826172 -25.909671783447266 0.0
  vertex 65.02837371826172 -25.909671783447266 74.0
 endloop
endfacet
facet normal 0.907575249671936 -0.4198894202709198 0.0
 outer loop
  vertex 61.84584426879883 -32.78858947753906 0.0
  vertex 65.02837371826172 -25.909671783447266 74.0
  vertex 61.84584426879883 -32.78858947753906 74.0
 endloop
endfacet
facet normal 0.9476531744003296 -0.3193013370037079 0.0
 outer loop
  vertex 65.02837371826172 -25.909671783447266 0.0
  vertex 67.44850158691406 -18.72698402404785 0.0
  vertex 67.44850158691406 -18.72698402404785 74.0
 endloop
endfacet
facet normal 0.9476531744003296 -0.3193013370037079 0.0
 outer loop
  vertex 65.02837371826172 -25.909671783447266 0.0
  vertex 67.44850158691406 -18.72698402404785 74.0
  vertex 65.02837371826172 -25.909671783447266 74.0
 endloop
endfacet
facet normal 0.9766205549240112 -0.21497032046318054 0.0
 outer loop
  vertex 67.44850158691406 -18.72698402404785 0.0
  vertex 69.0778579711914 -11.324739456176758 0.0
  vertex 69.0778579711914 -11.324739456176758 74.0
 endloop
endfacet
facet normal 0.9766205549240112 -0.21497032046318054 0.0
 outer loop
  vertex 67.44850158691406 -18.72698402404785 0.0
  vertex 69.0778579711914 -11.324739456176758 74.0
  vertex 67.44850158691406 -18.72698402404785 74.0
 endloop
endfacet
facet normal 0.9941379427909851 -0.10811882466077805 0.0
 outer loop
  vertex 69.0778579711914 -11.324739456176758 0.0
  vertex 69.8973388671875 -3.7897236347198486 0.0
  vertex 69.8973388671875 -3.7897236347198486 74.0
 endloop
endfacet
facet normal 0.9941379427909851 -0.10811882466077805 0.0
 outer loop
  vertex 69.0778579711914 -11.324739456176758 0.0
  vertex 69.8973388671875 -3.7897236347198486 74.0
  vertex 69.0778579711914 -11.324739456176758 74.0
 endloop
endfacet
facet normal 1.0 0.0 0.0
 outer loop
  vertex 69.8973388671875 -3.7897236347198486 0.0
  vertex 69.8973388671875 3.7897236347198486 0.0
  vertex 69.8973388671875 3.7897236347198486 74.0
 endloop
endfacet
facet normal 1.0 0.0 0.0
 outer loop
  vertex 69.8973388671875 -3.7897236347198486 0.0
  vertex 69.8973388671875 3.7897236347198486 74.0
  vertex 69.8973388671875 -3.7897236347198486 74.0
 endloop
endfacet
facet normal 0.9941379427909851 0.10811882466077805 0.0
 outer loop
  vertex 69.8973388671875 3.7897236347198486 0.0
  vertex 69.0778579711914 11.324739456176758 0.0
  vertex 69.0778579711914 11.324739456176758 74.0
 endloop
endfacet
facet normal 0.9941379427909851 0.10811882466077805 -0.0
 outer loop
  vertex 69.8973388671875 3.7897236347198486 0.0
  vertex 69.0778579711914 11.324739456176758 74.0
  vertex 69.8973388671875 3.7897236347198486 74.0
 endloop
endfacet
facet normal 0.9766205549240112 0.21497032046318054 0.0
 outer loop
  vertex 69.0778579711914 11.324739456176758 0.0
  vertex 67.44850158691406 18.72698402404785 0.0
  vertex 67.44850158691406 18.72698402404785 74.0
 endloop
endfacet
facet normal 0.9766205549240112 0.21497032046318054 -0.0
 outer loop
  vertex 69.0778579711914 11.324739456176758 0.0
  vertex 67.44850158691406 18.72698402404785 74.0
  vertex 69.0778579711914 11.324739456176758 74.0
 endloop
endfacet
facet normal 0.9476531744003296 0.3193013370037079 0.0
 outer loop
  vertex 67.44850158691406 18.72698402404785 0.0
  vertex 65.02837371826172 25.909671783447266 0.0
  vertex 65.02837371826172 25.909671783447266 74.0
 endloop
endfacet
facet normal 0.9476531744003296 0.3193013370037079 -0.0
 outer loop
  vertex 67.44850158691406 18.72698402404785 0.0
  vertex 65.02837371826172 25.909671783447266 74.0
  vertex 67.44850158691406 18.72698402404785 74.0
 endloop
endfacet
facet normal 0.907575249671936 0.4198894202709198 0.0
 outer loop
  vertex 65.02837371826172 25.909671783447266 0.0
  vertex 61.84584426879883 32.78858947753906 0.0
  vertex 61.84584426879883 32.78858947753906 74.0
 endloop
endfacet
facet normal 0.907575249671936 0.4198894202709198 -0.0
 outer loop
  vertex 65.02837371826172 25.909671783447266 0.0
  vertex 61.84584426879883 32.78858947753906 74.0
  vertex 65.02837371826172 25.909671783447266 74.0
 endloop
endfacet
facet normal 0.8568571209907532 0.5155539512634277 0.0
 outer loop
  vertex 61.84584426879883 32.78858947753906 0.0
  vertex 57.938228607177734 39.28309631347656 0.0
  vertex 57.938228607177734 39.28309631347656 74.0
 endloop
endfacet
facet normal 0.8568571209907532 0.5155539512634277 -0.0
 outer loop
  vertex 61.84584426879883 32.78858947753906 0.0
  vertex 57.938228607177734 39.28309631347656 74.0
  vertex 61.84584426879883 32.78858947753906 74.0
 endloop
endfacet
facet normal 0.7960931062698364 0.60517418384552 0.0
 outer loop
  vertex 57.938228607177734 39.28309631347656 0.0
  vertex 53.35134506225586 45.317039489746094 0.0
  vertex 53.35134506225586 45.317039489746094 74.0
 endloop
endfacet
facet normal 0.7960931062698364 0.60517418384552 -0.0
 outer loop
  vertex 57.938228607177734 39.28309631347656 0.0
  vertex 53.35134506225586 45.317039489746094 74.0
  vertex 57.938228607177734 39.28309631347656 74.0
 endloop
endfacet
facet normal 0.7259953618049622 0.6876996755599976 0.0
 outer loop
  vertex 53.35134506225586 45.317039489746094 0.0
  vertex 48.13896179199219 50.81968307495117 0.0
  vertex 48.13896179199219 50.81968307495117 74.0
 endloop
endfacet
facet normal 0.7259953618049622 0.6876996755599976 -0.0
 outer loop
  vertex 53.35134506225586 45.317039489746094 0.0
  vertex 48.13896179199219 50.81968307495117 74.0
  vertex 53.35134506225586 45.317039489746094 74.0
 endloop
endfacet
facet normal 0.6473862528800964 0.7621621489524841 0.0
 outer loop
  vertex 48.13896179199219 50.81968307495117 0.0
  vertex 42.3621940612793 55.72651290893555 0.0
  vertex 42.3621940612793 55.72651290893555 74.0
 endloop
endfacet
facet normal 0.6473862528800964 0.7621621489524841 -0.0
 outer loop
  vertex 48.13896179199219 50.81968307495117 0.0
  vertex 42.3621940612793 55.72651290893555 74.0
  vertex 48.13896179199219 50.81968307495117 74.0
 endloop
endfacet
facet normal 0.5611875057220459 0.8276886940002441 0.0
 outer loop
  vertex 42.3621940612793 55.72651290893555 0.0
  vertex 36.08877182006836 59.980003356933594 0.0
  vertex 36.08877182006836 59.980003356933594 74.0
 endloop
endfacet
facet normal 0.5611875057220459 0.8276886940002441 -0.0
 outer loop
  vertex 42.3621940612793 55.72651290893555 0.0
  vertex 36.08877182006836 59.980003356933594 74.0
  vertex 42.3621940612793 55.72651290893555 74.0
 endloop
endfacet
facet normal 0.46840837597846985 0.8835120797157288 0.0
 outer loop
  vertex 36.08877182006836 59.980003356933594 0.0
  vertex 29.392236709594727 63.53028106689453 0.0
  vertex 29.392236709594727 63.53028106689453 74.0
 endloop
endfacet
facet normal 0.46840837597846985 0.8835120797157288 -0.0
 outer loop
  vertex 36.08877182006836 59.980003356933594 0.0
  vertex 29.392236709594727 63.53028106689453 74.0
  vertex 36.08877182006836 59.980003356933594 74.0
 endloop
endfacet
facet normal 0.3701381981372833 0.9289767742156982 0.0
 outer loop
  vertex 29.392236709594727 63.53028106689453 0.0
  vertex 22.351106643676758 66.33572387695312 0.0
  vertex 22.351106643676758 66.33572387695312 74.0
 endloop
endfacet
facet normal 0.3701381981372833 0.9289767742156982 -0.0
 outer loop
  vertex 29.392236709594727 63.53028106689453 0.0
  vertex 22.351106643676758 66.33572387695312 74.0
  vertex 29.392236709594727 63.53028106689453 74.0
 endloop
endfacet
facet normal 0.2675284147262573 0.9635499119758606 0.0
 outer loop
  vertex 22.351106643676758 66.33572387695312 0.0
  vertex 15.047930717468262 68.36344146728516 0.0
  vertex 15.047930717468262 68.36344146728516 74.0
 endloop
endfacet
facet normal 0.2675284147262573 0.9635499119758606 -0.0
 outer loop
  vertex 22.351106643676758 66.33572387695312 0.0
  vertex 15.047930717468262 68.36344146728516 74.0
  vertex 22.351106643676758 66.33572387695312 74.0
 endloop
endfacet
facet normal 0.1617821455001831 0.9868265390396118 0.0
 outer loop
  vertex 15.047930717468262 68.36344146728516 0.0
  vertex 7.568331241607666 69.58966064453125 0.0
  vertex 7.568331241607666 69.58966064453125 74.0
 endloop
endfacet
facet normal 0.1617821455001831 0.9868265390396118 -0.0
 outer loop
  vertex 15.047930717468262 68.36344146728516 0.0
  vertex 7.568331241607666 69.58966064453125 74.0
  vertex 15.047930717468262 68.36344146728516 74.0
 endloop
endfacet
facet normal 0.0541384294629097 0.9985334277153015 0.0
 outer loop
  vertex 7.568331241607666 69.58966064453125 0.0
  vertex 2.1431319311435507e-14 70.0 0.0
  vertex 2.1431319311435507e-14 70.0 74.0
 endloop
endfacet
facet normal 0.0541384294629097 0.9985334277153015 -0.0
 outer loop
  vertex 7.568331241607666 69.58966064453125 0.0
  vertex 2.1431319311435507e-14 70.0 74.0
  vertex 7.568331241607666 69.58966064453125 74.0
 endloop
endfacet
facet normal 0.0 1.0 0.0
 outer loop
  vertex 2.1431319311435507e-14 70.0 74.0
  vertex 2.1431319311435507e-14 70.0 0.0
  vertex -205.0 70.0 0.0
 endloop
endfacet
facet normal 0.0 1.0 0.0
 outer loop
  vertex 2.1431319311435507e-14 70.0 74.0
  vertex -205.0 70.0 0.0
  vertex -205.0 70.0 74.0
 endloop
endfacet
facet normal 0.0 0.0 1.0
 outer loop
  vertex 2.1431319311435507e-14 70.0 74.0
  vertex -205.0 70.0 74.0
  vertex 7.568331241607666 69.58966064453125 74.0
 endloop
endfacet
facet normal 0.0 0.0 1.0
 outer loop
  vertex -205.0 70.0 74.0
  vertex -212.56832885742188 69.58966064453125 74.0
  vertex 7.568331241607666 69.58966064453125 74.0
 endloop
endfacet
facet normal 0.0 0.0 1.0
 outer loop
  vertex 7.568331241607666 69.58966064453125 74.0
  vertex -212.56832885742188 69.58966064453125 74.0
  vertex 15.047930717468262 68.36344146728516 74.0
 endloop
endfacet
facet normal 0.0 0.0 1.0
 outer loop
  vertex -212.56832885742188 69.58966064453125 74.0
  vertex -220.0479278564453 68.36344146728516 74.0
  vertex 15.047930717468262 68.36344146728516 74.0
 endloop
endfacet
facet normal 0.0 0.0 1.0
 outer loop
  vertex 15.047930717468262 68.36344146728516 74.0
  vertex -220.0479278564453 68.36344146728516 74.0
  vertex 22.351106643676758 66.33572387695312 74.0
 endloop
endfacet
facet normal 0.0 0.0 1.0
 outer loop
  vertex -220.0479278564453 68.36344146728516 74.0
  vertex -227.35110473632812 66.33572387695312 74.0
  vertex 22.351106643676758 66.33572387695312 74.0
 endloop
endfacet
facet normal 0.0 0.0 1.0
 outer loop
  vertex 22.351106643676758 66.33572387695312 74.0
  vertex -227.35110473632812 66.33572387695312 74.0
  vertex 29.392236709594727 63.53028106689453 74.0
 endloop
endfacet
facet normal 0.0 0.0 1.0
 outer loop
  vertex -227.35110473632812 66.33572387695312 74.0
  vertex -234.39224243164062 63.53028106689453 74.0
  vertex 29.392236709594727 63.53028106689453 74.0
 endloop
endfacet
facet normal 0.0 0.0 1.0
 outer loop
  vertex 29.392236709594727 63.53028106689453 74.0
  vertex -234.39224243164062 63.53028106689453 74.0
  vertex 36.08877182006836 59.980003356933594 74.0
 endloop
endfacet
facet normal 0.0 0.0 1.0
 outer loop
  vertex -234.39224243164062 63.53028106689453 74.0
  vertex -241.08877563476562 59.980003356933594 74.0
  vertex 36.08877182006836 59.980003356933594 74.0
 endloop
endfacet
facet normal 0.0 0.0 1.0
 outer loop
  vertex 36.08877182006836 59.980003356933594 74.0
  vertex -241.08877563476562 59.980003356933594 74.0
  vertex 42.3621940612793 55.72651290893555 74.0
 endloop
endfacet
facet normal 0.0 0.0 1.0
 outer loop
  vertex -241.08877563476562 59.980003356933594 74.0
  vertex -247.36219787597656 55.72651290893555 74.0
  vertex 42.3621940612793 55.72651290893555 74.0
 endloop
endfacet
facet normal 0.0 0.0 1.0
 outer loop
  vertex 42.3621940612793 55.72651290893555 74.0
  vertex -247.36219787597656 55.72651290893555 74.0
  vertex 48.13896179199219 50.81968307495117 74.0
 endloop
endfacet
facet normal 0.0 0.0 1.0
 outer loop
  vertex -247.36219787597656 55.72651290893555 74.0
  vertex -253.1389617919922 50.81968307495117 74.0
  vertex 48.13896179199219 50.81968307495117 74.0
 endloop
endfacet
facet normal 0.0 0.0 1.0
 outer loop
  vertex 48.13896179199219 50.81968307495117 74.0
  vertex -253.1389617919922 50.81968307495117 74.0
  vertex 53.35134506225586 45.317039489746094 74.0
 endloop
endfacet
facet normal 0.0 0.0 1.0
 outer loop
  vertex -253.1389617919922 50.81968307495117 74.0
  vertex -258.3513488769531 45.317039489746094 74.0
  vertex 53.35134506225586 45.317039489746094 74.0
 endloop
endfacet
facet normal 0.0 0.0 1.0
 outer loop
  vertex 53.35134506225586 45.317039489746094 74.0
  vertex -258.3513488769531 45.317039489746094 74.0
  vertex 57.938228607177734 39.28309631347656 74.0
 endloop
endfacet
facet normal 0.0 0.0 1.0
 outer loop
  vertex -258.3513488769531 45.317039489746094 74.0
  vertex -262.938232421875 39.28309631347656 74.0
  vertex 57.938228607177734 39.28309631347656 74.0
 endloop
endfacet
facet normal 0.0 0.0 1.0
 outer loop
  vertex 57.938228607177734 39.28309631347656 74.0
  vertex -262.938232421875 39.28309631347656 74.0
  vertex 61.84584426879883 32.78858947753906 74.0
 endloop
endfacet
facet normal 0.0 0.0 1.0
 outer loop
  vertex -262.938232421875 39.28309631347656 74.0
  vertex -266.8458557128906 32.78858947753906 74.0
  vertex 61.84584426879883 32.78858947753906 74.0
 endloop
endfacet
facet normal 0.0 0.0 1.0
 outer loop
  vertex 61.84584426879883 32.78858947753906 74.0
  vertex -266.8458557128906 32.78858947753906 74.0
  vertex 65.02837371826172 25.909671783447266 74.0
 endloop
endfacet
facet normal 0.0 0.0 1.0
 outer loop
  vertex -266.8458557128906 32.78858947753906 74.0
  vertex -270.02838134765625 25.909671783447266 74.0
  vertex 65.02837371826172 25.909671783447266 74.0
 endloop
endfacet
facet normal 0.0 0.0 1.0
 outer loop
  vertex 65.02837371826172 25.909671783447266 74.0
  vertex -270.02838134765625 25.909671783447266 74.0
  vertex 67.44850158691406 18.72698402404785 74.0
 endloop
endfacet
facet normal 0.0 0.0 1.0
 outer loop
  vertex -270.02838134765625 25.909671783447266 74.0
  vertex -272.448486328125 18.72698402404785 74.0
  vertex 67.44850158691406 18.72698402404785 74.0
 endloop
endfacet
facet normal 0.0 0.0 1.0
 outer loop
  vertex 67.44850158691406 18.72698402404785 74.0
  vertex -272.448486328125 18.72698402404785 74.0
  vertex 69.0778579711914 11.324739456176758 74.0
 endloop
endfacet
facet normal 0.0 0.0 1.0
 outer loop
  vertex -272.448486328125 18.72698402404785 74.0
  vertex -274.0778503417969 11.324739456176758 74.0
  vertex 69.0778579711914 11.324739456176758 74.0
 endloop
endfacet
facet normal 0.0 0.0 1.0
 outer loop
  vertex 69.0778579711914 11.324739456176758 74.0
  vertex -274.0778503417969 11.324739456176758 74.0
  vertex 69.8973388671875 3.7897236347198486 74.0
 endloop
endfacet
facet normal 0.0 0.0 1.0
 outer loop
  vertex -274.0778503417969 11.324739456176758 74.0
  vertex -274.8973388671875 3.7897236347198486 74.0
  vertex 69.8973388671875 3.7897236347198486 74.0
 endloop
endfacet
facet normal 0.0 0.0 1.0
 outer loop
  vertex 69.8973388671875 3.7897236347198486 74.0
  vertex -274.8973388671875 3.7897236347198486 74.0
  vertex 69.8973388671875 -3.7897236347198486 74.0
 endloop
endfacet
facet normal 0.0 0.0 1.0
 outer loop
  vertex -274.8973388671875 3.7897236347198486 74.0
  vertex -274.8973388671875 -3.7897236347198486 74.0
  vertex 69.8973388671875 -3.7897236347198486 74.0
 endloop
endfacet
facet normal 0.0 0.0 1.0
 outer loop
  vertex 69.8973388671875 -3.7897236347198486 74.0
  vertex -274.8973388671875 -3.7897236347198486 74.0
  vertex 69.0778579711914 -11.324739456176758 74.0
 endloop
endfacet
facet normal 0.0 0.0 1.0
 outer loop
  vertex -274.8973388671875 -3.7897236347198486 74.0
  vertex -274.0778503417969 -11.324739456176758 74.0
  vertex 69.0778579711914 -11.324739456176758 74.0
 endloop
endfacet
facet normal 0.0 0.0 1.0
 outer loop
  vertex 69.0778579711914 -11.324739456176758 74.0
  vertex -274.0778503417969 -11.324739456176758 74.0
  vertex 67.44850158691406 -18.72698402404785 74.0
 endloop
endfacet
facet normal 0.0 0.0 1.0
 outer loop
  vertex -274.0778503417969 -11.324739456176758 74.0
  vertex -272.448486328125 -18.72698402404785 74.0
  vertex 67.44850158691406 -18.72698402404785 74.0
 endloop
endfacet
facet normal 0.0 0.0 1.0
 outer loop
  vertex 67.44850158691406 -18.72698402404785 74.0
  vertex -272.448486328125 -18.72698402404785 74.0
  vertex 65.02837371826172 -25.909671783447266 74.0
 endloop
endfacet
facet normal 0.0 0.0 1.0
 outer loop
  vertex -272.448486328125 -18.72698402404785 74.0
  vertex -270.02838134765625 -25.909671783447266 74.0
  vertex 65.02837371826172 -25.909671783447266 74.0
 endloop
endfacet
facet normal 0.0 0.0 1.0
 outer loop
  vertex 65.02837371826172 -25.909671783447266 74.0
  vertex -270.02838134765625 -25.909671783447266 74.0
  vertex 61.84584426879883 -32.78858947753906 74.0
 endloop
endfacet
facet normal 0.0 0.0 1.0
 outer loop
  vertex -270.02838134765625 -25.909671783447266 74.0
  vertex -266.8458557128906 -32.78858947753906 74.0
  vertex 61.84584426879883 -32.78858947753906 74.0
 endloop
endfacet
facet normal 0.0 0.0 1.0
 outer loop
  vertex 61.84584426879883 -32.78858947753906 74.0
  vertex -266.8458557128906 -32.78858947753906 74.0
  vertex 57.938228607177734 -39.28309631347656 74.0
 endloop
endfacet
facet normal 0.0 0.0 1.0
 outer loop
  vertex -266.8458557128906 -32.78858947753906 74.0
  vertex -262.938232421875 -39.28309631347656 74.0
  vertex 57.938228607177734 -39.28309631347656 74.0
 endloop
endfacet
facet normal 0.0 0.0 1.0
 outer loop
  vertex 57.938228607177734 -39.28309631347656 74.0
  vertex -262.938232421875 -39.28309631347656 74.0
  vertex 53.35134506225586 -45.317039489746094 74.0
 endloop
endfacet
facet normal 0.0 0.0 1.0
 outer loop
  vertex -262.938232421875 -39.28309631347656 74.0
  vertex -258.3513488769531 -45.317039489746094 74.0
  vertex 53.35134506225586 -45.317039489746094 74.0
 endloop
endfacet
facet normal 0.0 0.0 1.0
 outer loop
  vertex 53.35134506225586 -45.317039489746094 74.0
  vertex -258.3513488769531 -45.317039489746094 74.0
  vertex 48.13896179199219 -50.81968307495117 74.0
 endloop
endfacet
facet normal 0.0 0.0 1.0
 outer loop
  vertex -258.3513488769531 -45.317039489746094 74.0
  vertex -253.1389617919922 -50.81968307495117 74.0
  vertex 48.13896179199219 -50.81968307495117 74.0
 endloop
endfacet
facet normal 0.0 0.0 1.0
 outer loop
  vertex 48.13896179199219 -50.81968307495117 74.0
  vertex -253.1389617919922 -50.81968307495117 74.0
  vertex 42.3621940612793 -55.72651290893555 74.0
 endloop
endfacet
facet normal 0.0 0.0 1.0
 outer loop
  vertex -253.1389617919922 -50.81968307495117 74.0
  vertex -247.36219787597656 -55.72651290893555 74.0
  vertex 42.3621940612793 -55.72651290893555 74.0
 endloop
endfacet
facet normal 0.0 0.0 1.0
 outer loop
  vertex 42.3621940612793 -55.72651290893555 74.0
  vertex -247.36219787597656 -55.72651290893555 74.0
  vertex 36.08877182006836 -59.980003356933594 74.0
 endloop
endfacet
facet normal 0.0 0.0 1.0
 outer loop
  vertex -247.36219787597656 -55.72651290893555 74.0
  vertex -241.08877563476562 -59.980003356933594 74.0
  vertex 36.08877182006836 -59.980003356933594 74.0
 endloop
endfacet
facet normal 0.0 0.0 1.0
 outer loop
  vertex 36.08877182006836 -59.980003356933594 74.0
  vertex -241.08877563476562 -59.980003356933594 74.0
  vertex 29.392236709594727 -63.53028106689453 74.0
 endloop
endfacet
facet normal 0.0 0.0 1.0
 outer loop
  vertex -241.08877563476562 -59.980003356933594 74.0
  vertex -234.39224243164062 -63.53028106689453 74.0
  vertex 29.392236709594727 -63.53028106689453 74.0
 endloop
endfacet
facet normal 0.0 0.0 1.0
 outer loop
  vertex 29.392236709594727 -63.53028106689453 74.0
  vertex -234.39224243164062 -63.53028106689453 74.0
  vertex 22.351106643676758 -66.33572387695312 74.0
 endloop
endfacet
facet normal 0.0 0.0 1.0
 outer loop
  vertex -234.39224243164062 -63.53028106689453 74.0
  vertex -227.35110473632812 -66.33572387695312 74.0
  vertex 22.351106643676758 -66.33572387695312 74.0
 endloop
endfacet
facet normal 0.0 0.0 1.0
 outer loop
  vertex 22.351106643676758 -66.33572387695312 74.0
  vertex -227.35110473632812 -66.33572387695312 74.0
  vertex 15.047930717468262 -68.36344146728516 74.0
 endloop
endfacet
facet normal 0.0 0.0 1.0
 outer loop
  vertex -227.35110473632812 -66.33572387695312 74.0
  vertex -220.0479278564453 -68.36344146728516 74.0
  vertex 15.047930717468262 -68.36344146728516 74.0
 endloop
endfacet
facet normal 0.0 0.0 1.0
 outer loop
  vertex 15.047930717468262 -68.36344146728516 74.0
  vertex -220.0479278564453 -68.36344146728516 74.0
  vertex 7.568331241607666 -69.58966064453125 74.0
 endloop
endfacet
facet normal 0.0 0.0 1.0
 outer loop
  vertex -220.0479278564453 -68.36344146728516 74.0
  vertex -212.56832885742188 -69.58966064453125 74.0
  vertex 7.568331241607666 -69.58966064453125 74.0
 endloop
endfacet
facet normal 0.0 0.0 1.0
 outer loop
  vertex 7.568331241607666 -69.58966064453125 74.0
  vertex -212.56832885742188 -69.58966064453125 74.0
  vertex -1.2858791078641536e-14 -70.0 74.0
 endloop
endfacet
facet normal 0.0 0.0 1.0
 outer loop
  vertex -212.56832885742188 -69.58966064453125 74.0
  vertex -205.0 -70.0 74.0
  vertex -1.2858791078641536e-14 -70.0 74.0
 endloop
endfacet
facet normal 0.0 -0.0 -1.0
 outer loop
  vertex -212.56832885742188 69.58966064453125 0.0
  vertex -205.0 70.0 0.0
  vertex -220.0479278564453 68.36344146728516 0.0
 endloop
endfacet
facet normal 0.0 -0.0 -1.0
 outer loop
  vertex -205.0 70.0 0.0
  vertex 2.1431319311435507e-14 70.0 0.0
  vertex -220.0479278564453 68.36344146728516 0.0
 endloop
endfacet
facet normal 0.0 -0.0 -1.0
 outer loop
  vertex -220.0479278564453 68.36344146728516 0.0
  vertex 2.1431319311435507e-14 70.0 0.0
  vertex -227.35110473632812 66.33572387695312 0.0
 endloop
endfacet
facet normal 0.0 -0.0 -1.0
 outer loop
  vertex 2.1431319311435507e-14 70.0 0.0
  vertex 7.568331241607666 69.58966064453125 0.0
  vertex -227.35110473632812 66.33572387695312 0.0
 endloop
endfacet
facet normal 0.0 -0.0 -1.0
 outer loop
  vertex -227.35110473632812 66.33572387695312 0.0
  vertex 7.568331241607666 69.58966064453125 0.0
  vertex -234.39224243164062 63.53028106689453 0.0
 endloop
endfacet
facet normal 0.0 -0.0 -1.0
 outer loop
  vertex 7.568331241607666 69.58966064453125 0.0
  vertex 15.047930717468262 68.36344146728516 0.0
  vertex -234.39224243164062 63.53028106689453 0.0
 endloop
endfacet
facet normal 0.0 -0.0 -1.0
 outer loop
  vertex -234.39224243164062 63.53028106689453 0.0
  vertex 15.047930717468262 68.36344146728516 0.0
  vertex -241.08877563476562 59.980003356933594 0.0
 endloop
endfacet
facet normal 0.0 -0.0 -1.0
 outer loop
  vertex 15.047930717468262 68.36344146728516 0.0
  vertex 22.351106643676758 66.33572387695312 0.0
  vertex -241.08877563476562 59.980003356933594 0.0
 endloop
endfacet
facet normal 0.0 -0.0 -1.0
 outer loop
  vertex -241.08877563476562 59.980003356933594 0.0
  vertex 22.351106643676758 66.33572387695312 0.0
  vertex -247.36219787597656 55.72651290893555 0.0
 endloop
endfacet
facet normal 0.0 -0.0 -1.0
 outer loop
  vertex 22.351106643676758 66.33572387695312 0.0
  vertex 29.392236709594727 63.53028106689453 0.0
  vertex -247.36219787597656 55.72651290893555 0.0
 endloop
endfacet
facet normal 0.0 -0.0 -1.0
 outer loop
  vertex -247.36219787597656 55.72651290893555 0.0
  vertex 29.392236709594727 63.53028106689453 0.0
  vertex -253.1389617919922 50.81968307495117 0.0
 endloop
endfacet
facet normal 0.0 -0.0 -1.0
 outer loop
  vertex 29.392236709594727 63.53028106689453 0.0
  vertex 36.08877182006836 59.980003356933594 0.0
  vertex -253.1389617919922 50.81968307495117 0.0
 endloop
endfacet
facet normal 0.0 -0.0 -1.0
 outer loop
  vertex -253.1389617919922 50.81968307495117 0.0
  vertex 36.08877182006836 59.980003356933594 0.0
  vertex -258.3513488769531 45.317039489746094 0.0
 endloop
endfacet
facet normal 0.0 -0.0 -1.0
 outer loop
  vertex 36.08877182006836 59.980003356933594 0.0
  vertex 42.3621940612793 55.72651290893555 0.0
  vertex -258.3513488769531 45.317039489746094 0.0
 endloop
endfacet
facet normal 0.0 -0.0 -1.0
 outer loop
  vertex -258.3513488769531 45.317039489746094 0.0
  vertex 42.3621940612793 55.72651290893555 0.0
  vertex -262.938232421875 39.28309631347656 0.0
 endloop
endfacet
facet normal 0.0 -0.0 -1.0
 outer loop
  vertex 42.3621940612793 55.72651290893555 0.0
  vertex 48.13896179199219 50.81968307495117 0.0
  vertex -262.938232421875 39.28309631347656 0.0
 endloop
endfacet
facet normal 0.0 -0.0 -1.0
 outer loop
  vertex -262.938232421875 39.28309631347656 0.0
  vertex 48.13896179199219 50.81968307495117 0.0
  vertex -266.8458557128906 32.78858947753906 0.0
 endloop
endfacet
facet normal 0.0 -0.0 -1.0
 outer loop
  vertex 48.13896179199219 50.81968307495117 0.0
  vertex 53.35134506225586 45.317039489746094 0.0
  vertex -266.8458557128906 32.78858947753906 0.0
 endloop
endfacet
facet normal 0.0 -0.0 -1.0
 outer loop
  vertex -266.8458557128906 32.78858947753906 0.0
  vertex 53.35134506225586 45.317039489746094 0.0
  vertex -270.02838134765625 25.909671783447266 0.0
 endloop
endfacet
facet normal 0.0 -0.0 -1.0
 outer loop
  vertex 53.35134506225586 45.317039489746094 0.0
  vertex 57.938228607177734 39.28309631347656 0.0
  vertex -270.02838134765625 25.909671783447266 0.0
 endloop
endfacet
facet normal 0.0 -0.0 -1.0
 outer loop
  vertex -270.02838134765625 25.909671783447266 0.0
  vertex 57.938228607177734 39.28309631347656 0.0
  vertex -272.448486328125 18.72698402404785 0.0
 endloop
endfacet
facet normal 0.0 -0.0 -1.0
 outer loop
  vertex 57.938228607177734 39.28309631347656 0.0
  vertex 61.84584426879883 32.78858947753906 0.0
  vertex -272.448486328125 18.72698402404785 0.0
 endloop
endfacet
facet normal 0.0 -0.0 -1.0
 outer loop
  vertex -272.448486328125 18.72698402404785 0.0
  vertex 61.84584426879883 32.78858947753906 0.0
  vertex -274.0778503417969 11.324739456176758 0.0
 endloop
endfacet
facet normal 0.0 -0.0 -1.0
 outer loop
  vertex 61.84584426879883 32.78858947753906 0.0
  vertex 65.02837371826172 25.909671783447266 0.0
  vertex -274.0778503417969 11.324739456176758 0.0
 endloop
endfacet
facet normal 0.0 -0.0 -1.0
 outer loop
  vertex -274.0778503417969 11.324739456176758 0.0
  vertex 65.02837371826172 25.909671783447266 0.0
  vertex -274.8973388671875 3.7897236347198486 0.0
 endloop
endfacet
facet normal 0.0 -0.0 -1.0
 outer loop
  vertex 65.02837371826172 25.909671783447266 0.0
  vertex 67.44850158691406 18.72698402404785 0.0
  vertex -274.8973388671875 3.7897236347198486 0.0
 endloop
endfacet
facet normal 0.0 0.0 -1.0
 outer loop
  vertex -274.8973388671875 3.7897236347198486 0.0
  vertex 67.44850158691406 18.72698402404785 0.0
  vertex -274.8973388671875 -3.7897236347198486 0.0
 endloop
endfacet
facet normal 0.0 -0.0 -1.0
 outer loop
  vertex 67.44850158691406 18.72698402404785 0.0
  vertex 69.0778579711914 11.324739456176758 0.0
  vertex -274.8973388671875 -3.7897236347198486 0.0
 endloop
endfacet
facet normal 0.0 0.0 -1.0
 outer loop
  vertex -274.8973388671875 -3.7897236347198486 0.0
  vertex 69.0778579711914 11.324739456176758 0.0
  vertex -274.0778503417969 -11.324739456176758 0.0
 endloop
endfacet
facet normal 0.0 -0.0 -1.0
 outer loop
  vertex 69.0778579711914 11.324739456176758 0.0
  vertex 69.8973388671875 3.7897236347198486 0.0
  vertex -274.0778503417969 -11.324739456176758 0.0
 endloop
endfacet
facet normal 0.0 0.0 -1.0
 outer loop
  vertex -274.0778503417969 -11.324739456176758 0.0
  vertex 69.8973388671875 3.7897236347198486 0.0
  vertex -272.448486328125 -18.72698402404785 0.0
 endloop
endfacet
facet normal 0.0 -0.0 -1.0
 outer loop
  vertex 69.8973388671875 3.7897236347198486 0.0
  vertex 69.8973388671875 -3.7897236347198486 0.0
  vertex -272.448486328125 -18.72698402404785 0.0
 endloop
endfacet
facet normal 0.0 0.0 -1.0
 outer loop
  vertex -272.448486328125 -18.72698402404785 0.0
  vertex 69.8973388671875 -3.7897236347198486 0.0
  vertex -270.02838134765625 -25.909671783447266 0.0
 endloop
endfacet
facet normal 0.0 0.0 -1.0
 outer loop
  vertex 69.8973388671875 -3.7897236347198486 0.0
  vertex 69.0778579711914 -11.324739456176758 0.0
  vertex -270.02838134765625 -25.909671783447266 0.0
 endloop
endfacet
facet normal 0.0 0.0 -1.0
 outer loop
  vertex -270.02838134765625 -25.909671783447266 0.0
  vertex 69.0778579711914 -11.324739456176758 0.0
  vertex -266.8458557128906 -32.78858947753906 0.0
 endloop
endfacet
facet normal 0.0 0.0 -1.0
 outer loop
  vertex 69.0778579711914 -11.324739456176758 0.0
  vertex 67.44850158691406 -18.72698402404785 0.0
  vertex -266.8458557128906 -32.78858947753906 0.0
 endloop
endfacet
facet normal 0.0 0.0 -1.0
 outer loop
  vertex -266.8458557128906 -32.78858947753906 0.0
  vertex 67.44850158691406 -18.72698402404785 0.0
  vertex -262.938232421875 -39.28309631347656 0.0
 endloop
endfacet
facet normal 0.0 0.0 -1.0
 outer loop
  vertex 67.44850158691406 -18.72698402404785 0.0
  vertex 65.02837371826172 -25.909671783447266 0.0
  vertex -262.938232421875 -39.28309631347656 0.0
 endloop
endfacet
facet normal 0.0 0.0 -1.0
 outer loop
  vertex -262.938232421875 -39.28309631347656 0.0
  vertex 65.02837371826172 -25.909671783447266 0.0
  vertex -258.3513488769531 -45.317039489746094 0.0
 endloop
endfacet
facet normal 0.0 0.0 -1.0
 outer loop
  vertex 65.02837371826172 -25.909671783447266 0.0
  vertex 61.84584426879883 -32.78858947753906 0.0
  vertex -258.3513488769531 -45.317039489746094 0.0
 endloop
endfacet
facet normal 0.0 0.0 -1.0
 outer loop
  vertex -258.3513488769531 -45.317039489746094 0.0
  vertex 61.84584426879883 -32.78858947753906 0.0
  vertex -253.1389617919922 -50.81968307495117 0.0
 endloop
endfacet
facet normal 0.0 0.0 -1.0
 outer loop
  vertex 61.84584426879883 -32.78858947753906 0.0
  vertex 57.938228607177734 -39.28309631347656 0.0
  vertex -253.1389617919922 -50.81968307495117 0.0
 endloop
endfacet
facet normal 0.0 0.0 -1.0
 outer loop
  vertex -253.1389617919922 -50.81968307495117 0.0
  vertex 57.938228607177734 -39.28309631347656 0.0
  vertex -247.36219787597656 -55.72651290893555 0.0
 endloop
endfacet
facet normal 0.0 0.0 -1.0
 outer loop
  vertex 57.938228607177734 -39.28309631347656 0.0
  vertex 53.35134506225586 -45.317039489746094 0.0
  vertex -247.36219787597656 -55.72651290893555 0.0
 endloop
endfacet
facet normal 0.0 0.0 -1.0
 outer loop
  vertex -247.36219787597656 -55.72651290893555 0.0
  vertex 53.35134506225586 -45.317039489746094 0.0
  vertex -241.08877563476562 -59.980003356933594 0.0
 endloop
endfacet
facet normal 0.0 0.0 -1.0
 outer loop
  vertex 53.35134506225586 -45.317039489746094 0.0
  vertex 48.13896179199219 -50.81968307495117 0.0
  vertex -241.08877563476562 -59.980003356933594 0.0
 endloop
endfacet
facet normal 0.0 0.0 -1.0
 outer loop
  vertex -241.08877563476562 -59.980003356933594 0.0
  vertex 48.13896179199219 -50.81968307495117 0.0
  vertex -234.39224243164062 -63.53028106689453 0.0
 endloop
endfacet
facet normal 0.0 0.0 -1.0
 outer loop
  vertex 48.13896179199219 -50.81968307495117 0.0
  vertex 42.3621940612793 -55.72651290893555 0.0
  vertex -234.39224243164062 -63.53028106689453 0.0
 endloop
endfacet
facet normal 0.0 0.0 -1.0
 outer loop
  vertex -234.39224243164062 -63.53028106689453 0.0
  vertex 42.3621940612793 -55.72651290893555 0.0
  vertex -227.35110473632812 -66.33572387695312 0.0
 endloop
endfacet
facet normal 0.0 0.0 -1.0
 outer loop
  vertex 42.3621940612793 -55.72651290893555 0.0
  vertex 36.08877182006836 -59.980003356933594 0.0
  vertex -227.35110473632812 -66.33572387695312 0.0
 endloop
endfacet
facet normal 0.0 0.0 -1.0
 outer loop
  vertex -227.35110473632812 -66.33572387695312 0.0
  vertex 36.08877182006836 -59.980003356933594 0.0
  vertex -220.0479278564453 -68.36344146728516 0.0
 endloop
endfacet
facet normal 0.0 0.0 -1.0
 outer loop
  vertex 36.08877182006836 -59.980003356933594 0.0
  vertex 29.392236709594727 -63.53028106689453 0.0
  vertex -220.0479278564453 -68.36344146728516 0.0
 endloop
endfacet
facet normal 0.0 0.0 -1.0
 outer loop
  vertex -220.0479278564453 -68.36344146728516 0.0
  vertex 29.392236709594727 -63.53028106689453 0.0
  vertex -212.56832885742188 -69.58966064453125 0.0
 endloop
endfacet
facet normal 0.0 0.0 -1.0
 outer loop
  vertex 29.392236709594727 -63.53028106689453 0.0
  vertex 22.351106643676758 -66.33572387695312 0.0
  vertex -212.56832885742188 -69.58966064453125 0.0
 endloop
endfacet
facet normal 0.0 0.0 -1.0
 outer loop
  vertex -212.56832885742188 -69.58966064453125 0.0
  vertex 22.351106643676758 -66.33572387695312 0.0
  vertex -205.0 -70.0 0.0
 endloop
endfacet
facet normal 0.0 0.0 -1.0
 outer loop
  vertex 22.351106643676758 -66.33572387695312 0.0
  vertex 15.047930717468262 -68.36344146728516 0.0
  vertex -205.0 -70.0 0.0
 endloop
endfacet
facet normal 0.0 0.0 -1.0
 outer loop
  vertex -205.0 -70.0 0.0
  vertex 15.047930717468262 -68.36344146728516 0.0
  vertex -1.2858791078641536e-14 -70.0 0.0
 endloop
endfacet
facet normal 0.0 0.0 -1.0
 outer loop
  vertex 15.047930717468262 -68.36344146728516 0.0
  vertex 7.568331241607666 -69.58966064453125 0.0
  vertex -1.2858791078641536e-14 -70.0 0.0
 endloop
endfacet
endsolid
