solid
facet normal -0.05413844808936119 0.9985334873199463 0.0
 outer loop
  vertex -205.0 70.0 0.0
  vertex -212.56832885742188 69.58966064453125 0.0
  vertex -212.56832885742188 69.58966064453125 66.0
 endloop
endfacet
facet normal -0.05413844808936119 0.9985334873199463 0.0
 outer loop
  vertex -205.0 70.0 0.0
  vertex -212.56832885742188 69.58966064453125 66.0
  vertex -205.0 70.0 66.0
 endloop
endfacet
facet normal -0.1617821455001831 0.986826479434967 0.0
 outer loop
  vertex -212.56832885742188 69.58966064453125 0.0
  vertex -220.0479278564453 68.36344146728516 0.0
  vertex -220.0479278564453 68.36344146728516 66.0
 endloop
endfacet
facet normal -0.1617821455001831 0.986826479434967 0.0
 outer loop
  vertex -212.56832885742188 69.58966064453125 0.0
  vertex -220.0479278564453 68.36344146728516 66.0
  vertex -212.56832885742188 69.58966064453125 66.0
 endloop
endfacet
facet normal -0.2675284147262573 0.9635499715805054 0.0
 outer loop
  vertex -220.0479278564453 68.36344146728516 0.0
  vertex -227.35110473632812 66.33572387695312 0.0
  vertex -227.35110473632812 66.33572387695312 66.0
 endloop
endfacet
facet normal -0.2675284147262573 0.9635499715805054 0.0
 outer loop
  vertex -220.0479278564453 68.36344146728516 0.0
  vertex -227.35110473632812 66.33572387695312 66.0
  vertex -220.0479278564453 68.36344146728516 66.0
 endloop
endfacet
facet normal -0.3701378405094147 0.928976833820343 0.0
 outer loop
  vertex -227.35110473632812 66.33572387695312 0.0
  vertex -234.39224243164062 63.53028106689453 0.0
  vertex -234.39224243164062 63.53028106689453 66.0
 endloop
endfacet
facet normal -0.3701378405094147 0.928976833820343 0.0
 outer loop
  vertex -227.35110473632812 66.33572387695312 0.0
  vertex -234.39224243164062 63.53028106689453 66.0
  vertex -227.35110473632812 66.33572387695312 66.0
 endloop
endfacet
facet normal -0.4684084951877594 0.883512020111084 0.0
 outer loop
  vertex -234.39224243164062 63.53028106689453 0.0
  vertex -241.08877563476562 59.980003356933594 0.0
  vertex -241.08877563476562 59.980003356933594 66.0
 endloop
endfacet
facet normal -0.4684084951877594 0.883512020111084 0.0
 outer loop
  vertex -234.39224243164062 63.53028106689453 0.0
  vertex -241.08877563476562 59.980003356933594 66.0
  vertex -234.39224243164062 63.53028106689453 66.0
 endloop
endfacet
facet normal -0.5611875057220459 0.8276886940002441 0.0
 outer loop
  vertex -241.08877563476562 59.980003356933594 0.0
  vertex -247.36219787597656 55.72651290893555 0.0
  vertex -247.36219787597656 55.72651290893555 66.0
 endloop
endfacet
facet normal -0.5611875057220459 0.8276886940002441 0.0
 outer loop
  vertex -241.08877563476562 59.980003356933594 0.0
  vertex -247.36219787597656 55.72651290893555 66.0
  vertex -241.08877563476562 59.980003356933594 66.0
 endloop
endfacet
facet normal -0.6473864316940308 0.762161910533905 0.0
 outer loop
  vertex -247.36219787597656 55.72651290893555 0.0
  vertex -253.1389617919922 50.81968307495117 0.0
  vertex -253.1389617919922 50.81968307495117 66.0
 endloop
endfacet
facet normal -0.6473864316940308 0.762161910533905 0.0
 outer loop
  vertex -247.36219787597656 55.72651290893555 0.0
  vertex -253.1389617919922 50.81968307495117 66.0
  vertex -247.36219787597656 55.72651290893555 66.0
 endloop
endfacet
facet normal -0.7259951233863831 0.6876999139785767 0.0
 outer loop
  vertex -253.1389617919922 50.81968307495117 0.0
  vertex -258.3513488769531 45.317039489746094 0.0
  vertex -258.3513488769531 45.317039489746094 66.0
 endloop
endfacet
facet normal -0.7259951233863831 0.6876999139785767 0.0
 outer loop
  vertex -253.1389617919922 50.81968307495117 0.0
  vertex -258.3513488769531 45.317039489746094 66.0
  vertex -253.1389617919922 50.81968307495117 66.0
 endloop
endfacet
facet normal -0.7960931062698364 0.60517418384552 0.0
 outer loop
  vertex -258.3513488769531 45.317039489746094 0.0
  vertex -262.938232421875 39.28309631347656 0.0
  vertex -262.938232421875 39.28309631347656 66.0
 endloop
endfacet
facet normal -0.7960931062698364 0.60517418384552 0.0
 outer loop
  vertex -258.3513488769531 45.317039489746094 0.0
  vertex -262.938232421875 39.28309631347656 66.0
  vertex -258.3513488769531 45.317039489746094 66.0
 endloop
endfacet
facet normal -0.856856644153595 0.5155546069145203 0.0
 outer loop
  vertex -262.938232421875 39.28309631347656 0.0
  vertex -266.8458557128906 32.78858947753906 0.0
  vertex -266.8458557128906 32.78858947753906 66.0
 endloop
endfacet
facet normal -0.856856644153595 0.5155546069145203 0.0
 outer loop
  vertex -262.938232421875 39.28309631347656 0.0
  vertex -266.8458557128906 32.78858947753906 66.0
  vertex -262.938232421875 39.28309631347656 66.0
 endloop
endfacet
facet normal -0.9075754880905151 0.41988906264305115 0.0
 outer loop
  vertex -266.8458557128906 32.78858947753906 0.0
  vertex -270.02838134765625 25.909671783447266 0.0
  vertex -270.02838134765625 25.909671783447266 66.0
 endloop
endfacet
facet normal -0.9075754880905151 0.41988906264305115 0.0
 outer loop
  vertex -266.8458557128906 32.78858947753906 0.0
  vertex -270.02838134765625 25.909671783447266 66.0
  vertex -266.8458557128906 32.78858947753906 66.0
 endloop
endfacet
facet normal -0.9476541876792908 0.319298654794693 0.0
 outer loop
  vertex -270.02838134765625 25.909671783447266 0.0
  vertex -272.448486328125 18.72698402404785 0.0
  vertex -272.448486328125 18.72698402404785 66.0
 endloop
endfacet
facet normal -0.9476541876792908 0.319298654794693 0.0
 outer loop
  vertex -270.02838134765625 25.909671783447266 0.0
  vertex -272.448486328125 18.72698402404785 66.0
  vertex -270.02838134765625 25.909671783447266 66.0
 endloop
endfacet
facet normal -0.9766203761100769 0.21497128903865814 0.0
 outer loop
  vertex -272.448486328125 18.72698402404785 0.0
  vertex -274.0778503417969 11.324739456176758 0.0
  vertex -274.0778503417969 11.324739456176758 66.0
 endloop
endfacet
facet normal -0.9766203761100769 0.21497128903865814 0.0
 outer loop
  vertex -272.448486328125 18.72698402404785 0.0
  vertex -274.0778503417969 11.324739456176758 66.0
  vertex -272.448486328125 18.72698402404785 66.0
 endloop
endfacet
facet normal -0.9941378831863403 0.10811981558799744 0.0
 outer loop
  vertex -274.0778503417969 11.324739456176758 0.0
  vertex -274.8973388671875 3.7897236347198486 0.0
  vertex -274.8973388671875 3.7897236347198486 66.0
 endloop
endfacet
facet normal -0.9941378831863403 0.10811981558799744 0.0
 outer loop
  vertex -274.0778503417969 11.324739456176758 0.0
  vertex -274.8973388671875 3.7897236347198486 66.0
  vertex -274.0778503417969 11.324739456176758 66.0
 endloop
endfacet
facet normal -1.0 0.0 0.0
 outer loop
  vertex -274.8973388671875 3.7897236347198486 0.0
  vertex -274.8973388671875 -3.7897236347198486 0.0
  vertex -274.8973388671875 -3.7897236347198486 66.0
 endloop
endfacet
facet normal -1.0 0.0 0.0
 outer loop
  vertex -274.8973388671875 3.7897236347198486 0.0
  vertex -274.8973388671875 -3.7897236347198486 66.0
  vertex -274.8973388671875 3.7897236347198486 66.0
 endloop
endfacet
facet normal -0.9941378831863403 -0.10811981558799744 0.0
 outer loop
  vertex -274.8973388671875 -3.7897236347198486 0.0
  vertex -274.0778503417969 -11.324739456176758 0.0
  vertex -274.0778503417969 -11.324739456176758 66.0
 endloop
endfacet
facet normal -0.9941378831863403 -0.10811981558799744 0.0
 outer loop
  vertex -274.8973388671875 -3.7897236347198486 0.0
  vertex -274.0778503417969 -11.324739456176758 66.0
  vertex -274.8973388671875 -3.7897236347198486 66.0
 endloop
endfacet
facet normal -0.9766203761100769 -0.21497128903865814 0.0
 outer loop
  vertex -274.0778503417969 -11.324739456176758 0.0
  vertex -272.448486328125 -18.72698402404785 0.0
  vertex -272.448486328125 -18.72698402404785 66.0
 endloop
endfacet
facet normal -0.9766203761100769 -0.21497128903865814 0.0
 outer loop
  vertex -274.0778503417969 -11.324739456176758 0.0
  vertex -272.448486328125 -18.72698402404785 66.0
  vertex -274.0778503417969 -11.324739456176758 66.0
 endloop
endfacet
facet normal -0.9476541876792908 -0.319298654794693 0.0
 outer loop
  vertex -272.448486328125 -18.72698402404785 0.0
  vertex -270.02838134765625 -25.909671783447266 0.0
  vertex -270.02838134765625 -25.909671783447266 66.0
 endloop
endfacet
facet normal -0.9476541876792908 -0.319298654794693 0.0
 outer loop
  vertex -272.448486328125 -18.72698402404785 0.0
  vertex -270.02838134765625 -25.909671783447266 66.0
  vertex -272.448486328125 -18.72698402404785 66.0
 endloop
endfacet
facet normal -0.9075754880905151 -0.41988906264305115 0.0
 outer loop
  vertex -270.02838134765625 -25.909671783447266 0.0
  vertex -266.8458557128906 -32.78858947753906 0.0
  vertex -266.8458557128906 -32.78858947753906 66.0
 endloop
endfacet
facet normal -0.9075754880905151 -0.41988906264305115 0.0
 outer loop
  vertex -270.02838134765625 -25.909671783447266 0.0
  vertex -266.8458557128906 -32.78858947753906 66.0
  vertex -270.02838134765625 -25.909671783447266 66.0
 endloop
endfacet
facet normal -0.856856644153595 -0.5155546069145203 0.0
 outer loop
  vertex -266.8458557128906 -32.78858947753906 0.0
  vertex -262.938232421875 -39.28309631347656 0.0
  vertex -262.938232421875 -39.28309631347656 66.0
 endloop
endfacet
facet normal -0.856856644153595 -0.5155546069145203 0.0
 outer loop
  vertex -266.8458557128906 -32.78858947753906 0.0
  vertex -262.938232421875 -39.28309631347656 66.0
  vertex -266.8458557128906 -32.78858947753906 66.0
 endloop
endfacet
facet normal -0.7960931062698364 -0.60517418384552 0.0
 outer loop
  vertex -262.938232421875 -39.28309631347656 0.0
  vertex -258.3513488769531 -45.317039489746094 0.0
  vertex -258.3513488769531 -45.317039489746094 66.0
 endloop
endfacet
facet normal -0.7960931062698364 -0.60517418384552 0.0
 outer loop
  vertex -262.938232421875 -39.28309631347656 0.0
  vertex -258.3513488769531 -45.317039489746094 66.0
  vertex -262.938232421875 -39.28309631347656 66.0
 endloop
endfacet
facet normal -0.7259951233863831 -0.6876999139785767 0.0
 outer loop
  vertex -258.3513488769531 -45.317039489746094 0.0
  vertex -253.1389617919922 -50.81968307495117 0.0
  vertex -253.1389617919922 -50.81968307495117 66.0
 endloop
endfacet
facet normal -0.7259951233863831 -0.6876999139785767 0.0
 outer loop
  vertex -258.3513488769531 -45.317039489746094 0.0
  vertex -253.1389617919922 -50.81968307495117 66.0
  vertex -258.3513488769531 -45.317039489746094 66.0
 endloop
endfacet
facet normal -0.6473864316940308 -0.762161910533905 0.0
 outer loop
  vertex -253.1389617919922 -50.81968307495117 0.0
  vertex -247.36219787597656 -55.72651290893555 0.0
  vertex -247.36219787597656 -55.72651290893555 66.0
 endloop
endfacet
facet normal -0.6473864316940308 -0.762161910533905 0.0
 outer loop
  vertex -253.1389617919922 -50.81968307495117 0.0
  vertex -247.36219787597656 -55.72651290893555 66.0
  vertex -253.1389617919922 -50.81968307495117 66.0
 endloop
endfacet
facet normal -0.5611875057220459 -0.8276886940002441 0.0
 outer loop
  vertex -247.36219787597656 -55.72651290893555 0.0
  vertex -241.08877563476562 -59.980003356933594 0.0
  vertex -241.08877563476562 -59.980003356933594 66.0
 endloop
endfacet
facet normal -0.5611875057220459 -0.8276886940002441 0.0
 outer loop
  vertex -247.36219787597656 -55.72651290893555 0.0
  vertex -241.08877563476562 -59.980003356933594 66.0
  vertex -247.36219787597656 -55.72651290893555 66.0
 endloop
endfacet
facet normal -0.4684084951877594 -0.883512020111084 0.0
 outer loop
  vertex -241.08877563476562 -59.980003356933594 0.0
  vertex -234.39224243164062 -63.53028106689453 0.0
  vertex -234.39224243164062 -63.53028106689453 66.0
 endloop
endfacet
facet normal -0.4684084951877594 -0.883512020111084 0.0
 outer loop
  vertex -241.08877563476562 -59.980003356933594 0.0
  vertex -234.39224243164062 -63.53028106689453 66.0
  vertex -241.08877563476562 -59.980003356933594 66.0
 endloop
endfacet
facet normal -0.3701378405094147 -0.928976833820343 0.0
 outer loop
  vertex -234.39224243164062 -63.53028106689453 0.0
  vertex -227.35110473632812 -66.33572387695312 0.0
  vertex -227.35110473632812 -66.33572387695312 66.0
 endloop
endfacet
facet normal -0.3701378405094147 -0.928976833820343 0.0
 outer loop
  vertex -234.39224243164062 -63.53028106689453 0.0
  vertex -227.35110473632812 -66.33572387695312 66.0
  vertex -234.39224243164062 -63.53028106689453 66.0
 endloop
endfacet
facet normal -0.2675284147262573 -0.9635499715805054 0.0
 outer loop
  vertex -227.35110473632812 -66.33572387695312 0.0
  vertex -220.0479278564453 -68.36344146728516 0.0
  vertex -220.0479278564453 -68.36344146728516 66.0
 endloop
endfacet
facet normal -0.2675284147262573 -0.9635499715805054 0.0
 outer loop
  vertex -227.35110473632812 -66.33572387695312 0.0
  vertex -220.0479278564453 -68.36344146728516 66.0
  vertex -227.35110473632812 -66.33572387695312 66.0
 endloop
endfacet
facet normal -0.1617821455001831 -0.986826479434967 0.0
 outer loop
  vertex -220.0479278564453 -68.36344146728516 0.0
  vertex -212.56832885742188 -69.58966064453125 0.0
  vertex -212.56832885742188 -69.58966064453125 66.0
 endloop
endfacet
facet normal -0.1617821455001831 -0.986826479434967 0.0
 outer loop
  vertex -220.0479278564453 -68.36344146728516 0.0
  vertex -212.56832885742188 -69.58966064453125 66.0
  vertex -220.0479278564453 -68.36344146728516 66.0
 endloop
endfacet
facet normal -0.05413844808936119 -0.9985334873199463 0.0
 outer loop
  vertex -212.56832885742188 -69.58966064453125 0.0
  vertex -205.0 -70.0 0.0
  vertex -205.0 -70.0 66.0
 endloop
endfacet
facet normal -0.05413844808936119 -0.9985334873199463 0.0
 outer loop
  vertex -212.56832885742188 -69.58966064453125 0.0
  vertex -205.0 -70.0 66.0
  vertex -212.56832885742188 -69.58966064453125 66.0
 endloop
endfacet
facet normal 0.0 -1.0 0.0
 outer loop
  vertex -205.0 -70.0 66.0
  vertex -205.0 -70.0 0.0
  vertex 0.0 -70.0 0.0
 endloop
endfacet
facet normal 0.0 -1.0 0.0
 outer loop
  vertex -205.0 -70.0 66.0
  vertex 0.0 -70.0 0.0
  vertex 0.0 -70.0 66.0
 endloop
endfacet
facet normal 0.0541384294629097 -0.9985334277153015 0.0
 outer loop
  vertex -1.2858791078641536e-14 -70.0 0.0
  vertex 7.568331241607666 -69.58966064453125 0.0
  vertex 7.568331241607666 -69.58966064453125 66.0
 endloop
endfacet
facet normal 0.0541384294629097 -0.9985334277153015 0.0
 outer loop
  vertex -1.2858791078641536e-14 -70.0 0.0
  vertex 7.568331241607666 -69.58966064453125 66.0
  vertex -1.2858791078641536e-14 -70.0 66.0
 endloop
endfacet
facet normal 0.1617821305990219 -0.986826479434967 0.0
 outer loop
  vertex 7.568331241607666 -69.58966064453125 0.0
  vertex 15.047930717468262 -68.36344146728516 0.0
  vertex 15.047930717468262 -68.36344146728516 66.0
 endloop
endfacet
facet normal 0.1617821305990219 -0.986826479434967 0.0
 outer loop
  vertex 7.568331241607666 -69.58966064453125 0.0
  vertex 15.047930717468262 -68.36344146728516 66.0
  vertex 7.568331241607666 -69.58966064453125 66.0
 endloop
endfacet
facet normal 0.2675284445285797 -0.9635499715805054 0.0
 outer loop
  vertex 15.047930717468262 -68.36344146728516 0.0
  vertex 22.351106643676758 -66.33572387695312 0.0
  vertex 22.351106643676758 -66.33572387695312 66.0
 endloop
endfacet
facet normal 0.2675284445285797 -0.9635499715805054 0.0
 outer loop
  vertex 15.047930717468262 -68.36344146728516 0.0
  vertex 22.351106643676758 -66.33572387695312 66.0
  vertex 15.047930717468262 -68.36344146728516 66.0
 endloop
endfacet
facet normal 0.37013816833496094 -0.9289767146110535 0.0
 outer loop
  vertex 22.351106643676758 -66.33572387695312 0.0
  vertex 29.392236709594727 -63.53028106689453 0.0
  vertex 29.392236709594727 -63.53028106689453 66.0
 endloop
endfacet
facet normal 0.37013816833496094 -0.9289767146110535 0.0
 outer loop
  vertex 22.351106643676758 -66.33572387695312 0.0
  vertex 29.392236709594727 -63.53028106689453 66.0
  vertex 22.351106643676758 -66.33572387695312 66.0
 endloop
endfacet
facet normal 0.46840840578079224 -0.8835120797157288 0.0
 outer loop
  vertex 29.392236709594727 -63.53028106689453 0.0
  vertex 36.08877182006836 -59.980003356933594 0.0
  vertex 36.08877182006836 -59.980003356933594 66.0
 endloop
endfacet
facet normal 0.46840840578079224 -0.8835120797157288 0.0
 outer loop
  vertex 29.392236709594727 -63.53028106689453 0.0
  vertex 36.08877182006836 -59.980003356933594 66.0
  vertex 29.392236709594727 -63.53028106689453 66.0
 endloop
endfacet
facet normal 0.5611875057220459 -0.8276886940002441 0.0
 outer loop
  vertex 36.08877182006836 -59.980003356933594 0.0
  vertex 42.3621940612793 -55.72651290893555 0.0
  vertex 42.3621940612793 -55.72651290893555 66.0
 endloop
endfacet
facet normal 0.5611875057220459 -0.8276886940002441 0.0
 outer loop
  vertex 36.08877182006836 -59.980003356933594 0.0
  vertex 42.3621940612793 -55.72651290893555 66.0
  vertex 36.08877182006836 -59.980003356933594 66.0
 endloop
endfacet
facet normal 0.6473861932754517 -0.7621620893478394 0.0
 outer loop
  vertex 42.3621940612793 -55.72651290893555 0.0
  vertex 48.13896179199219 -50.81968307495117 0.0
  vertex 48.13896179199219 -50.81968307495117 66.0
 endloop
endfacet
facet normal 0.6473861932754517 -0.7621620893478394 0.0
 outer loop
  vertex 42.3621940612793 -55.72651290893555 0.0
  vertex 48.13896179199219 -50.81968307495117 66.0
  vertex 42.3621940612793 -55.72651290893555 66.0
 endloop
endfacet
facet normal 0.7259953618049622 -0.6876996755599976 0.0
 outer loop
  vertex 48.13896179199219 -50.81968307495117 0.0
  vertex 53.35134506225586 -45.317039489746094 0.0
  vertex 53.35134506225586 -45.317039489746094 66.0
 endloop
endfacet
facet normal 0.7259953618049622 -0.6876996755599976 0.0
 outer loop
  vertex 48.13896179199219 -50.81968307495117 0.0
  vertex 53.35134506225586 -45.317039489746094 66.0
  vertex 48.13896179199219 -50.81968307495117 66.0
 endloop
endfacet
facet normal 0.7960931062698364 -0.60517418384552 0.0
 outer loop
  vertex 53.35134506225586 -45.317039489746094 0.0
  vertex 57.938228607177734 -39.28309631347656 0.0
  vertex 57.938228607177734 -39.28309631347656 66.0
 endloop
endfacet
facet normal 0.7960931062698364 -0.60517418384552 0.0
 outer loop
  vertex 53.35134506225586 -45.317039489746094 0.0
  vertex 57.938228607177734 -39.28309631347656 66.0
  vertex 53.35134506225586 -45.317039489746094 66.0
 endloop
endfacet
facet normal 0.8568571209907532 -0.5155539512634277 0.0
 outer loop
  vertex 57.938228607177734 -39.28309631347656 0.0
  vertex 61.84584426879883 -32.78858947753906 0.0
  vertex 61.84584426879883 -32.78858947753906 66.0
 endloop
endfacet
facet normal 0.8568571209907532 -0.5155539512634277 0.0
 outer loop
  vertex 57.938228607177734 -39.28309631347656 0.0
  vertex 61.84584426879883 -32.78858947753906 66.0
  vertex 57.938228607177734 -39.28309631347656 66.0
 endloop
endfacet
facet normal 0.907575249671936 -0.4198894500732422 0.0
 outer loop
  vertex 61.84584426879883 -32.78858947753906 0.0
  vertex 65.02837371826172 -25.909671783447266 0.0
  vertex 65.02837371826172 -25.909671783447266 66.0
 endloop
endfacet
facet normal 0.907575249671936 -0.4198894500732422 0.0
 outer loop
  vertex 61.84584426879883 -32.78858947753906 0.0
  vertex 65.02837371826172 -25.909671783447266 66.0
  vertex 61.84584426879883 -32.78858947753906 66.0
 endloop
endfacet
facet normal 0.9476532340049744 -0.3193013668060303 0.0
 outer loop
  vertex 65.02837371826172 -25.909671783447266 0.0
  vertex 67.44850158691406 -18.72698402404785 0.0
  vertex 67.44850158691406 -18.72698402404785 66.0
 endloop
endfacet
facet normal 0.9476532340049744 -0.3193013668060303 0.0
 outer loop
  vertex 65.02837371826172 -25.909671783447266 0.0
  vertex 67.44850158691406 -18.72698402404785 66.0
  vertex 65.02837371826172 -25.909671783447266 66.0
 endloop
endfacet
facet normal 0.9766205549240112 -0.21497032046318054 0.0
 outer loop
  vertex 67.44850158691406 -18.72698402404785 0.0
  vertex 69.0778579711914 -11.324739456176758 0.0
  vertex 69.0778579711914 -11.324739456176758 66.0
 endloop
endfacet
facet normal 0.9766205549240112 -0.21497032046318054 0.0
 outer loop
  vertex 67.44850158691406 -18.72698402404785 0.0
  vertex 69.0778579711914 -11.324739456176758 66.0
  vertex 67.44850158691406 -18.72698402404785 66.0
 endloop
endfacet
facet normal 0.9941380023956299 -0.10811882466077805 0.0
 outer loop
  vertex 69.0778579711914 -11.324739456176758 0.0
  vertex 69.8973388671875 -3.7897236347198486 0.0
  vertex 69.8973388671875 -3.7897236347198486 66.0
 endloop
endfacet
facet normal 0.9941380023956299 -0.10811882466077805 0.0
 outer loop
  vertex 69.0778579711914 -11.324739456176758 0.0
  vertex 69.8973388671875 -3.7897236347198486 66.0
  vertex 69.0778579711914 -11.324739456176758 66.0
 endloop
endfacet
facet normal 1.0 0.0 0.0
 outer loop
  vertex 69.8973388671875 -3.7897236347198486 0.0
  vertex 69.8973388671875 3.7897236347198486 0.0
  vertex 69.8973388671875 3.7897236347198486 66.0
 endloop
endfacet
facet normal 1.0 0.0 0.0
 outer loop
  vertex 69.8973388671875 -3.7897236347198486 0.0
  vertex 69.8973388671875 3.7897236347198486 66.0
  vertex 69.8973388671875 -3.7897236347198486 66.0
 endloop
endfacet
facet normal 0.9941380023956299 0.10811882466077805 0.0
 outer loop
  vertex 69.8973388671875 3.7897236347198486 0.0
  vertex 69.0778579711914 11.324739456176758 0.0
  vertex 69.0778579711914 11.324739456176758 66.0
 endloop
endfacet
facet normal 0.9941380023956299 0.10811882466077805 -0.0
 outer loop
  vertex 69.8973388671875 3.7897236347198486 0.0
  vertex 69.0778579711914 11.324739456176758 66.0
  vertex 69.8973388671875 3.7897236347198486 66.0
 endloop
endfacet
facet normal 0.9766205549240112 0.21497032046318054 0.0
 outer loop
  vertex 69.0778579711914 11.324739456176758 0.0
  vertex 67.44850158691406 18.72698402404785 0.0
  vertex 67.44850158691406 18.72698402404785 66.0
 endloop
endfacet
facet normal 0.9766205549240112 0.21497032046318054 -0.0
 outer loop
  vertex 69.0778579711914 11.324739456176758 0.0
  vertex 67.44850158691406 18.72698402404785 66.0
  vertex 69.0778579711914 11.324739456176758 66.0
 endloop
endfacet
facet normal 0.9476532340049744 0.3193013668060303 0.0
 outer loop
  vertex 67.44850158691406 18.72698402404785 0.0
  vertex 65.02837371826172 25.909671783447266 0.0
  vertex 65.02837371826172 25.909671783447266 66.0
 endloop
endfacet
facet normal 0.9476532340049744 0.3193013668060303 -0.0
 outer loop
  vertex 67.44850158691406 18.72698402404785 0.0
  vertex 65.02837371826172 25.909671783447266 66.0
  vertex 67.44850158691406 18.72698402404785 66.0
 endloop
endfacet
facet normal 0.907575249671936 0.4198894500732422 0.0
 outer loop
  vertex 65.02837371826172 25.909671783447266 0.0
  vertex 61.84584426879883 32.78858947753906 0.0
  vertex 61.84584426879883 32.78858947753906 66.0
 endloop
endfacet
facet normal 0.907575249671936 0.4198894500732422 -0.0
 outer loop
  vertex 65.02837371826172 25.909671783447266 0.0
  vertex 61.84584426879883 32.78858947753906 66.0
  vertex 65.02837371826172 25.909671783447266 66.0
 endloop
endfacet
facet normal 0.8568571209907532 0.5155539512634277 0.0
 outer loop
  vertex 61.84584426879883 32.78858947753906 0.0
  vertex 57.938228607177734 39.28309631347656 0.0
  vertex 57.938228607177734 39.28309631347656 66.0
 endloop
endfacet
facet normal 0.8568571209907532 0.5155539512634277 -0.0
 outer loop
  vertex 61.84584426879883 32.78858947753906 0.0
  vertex 57.938228607177734 39.28309631347656 66.0
  vertex 61.84584426879883 32.78858947753906 66.0
 endloop
endfacet
facet normal 0.7960931062698364 0.60517418384552 0.0
 outer loop
  vertex 57.938228607177734 39.28309631347656 0.0
  vertex 53.35134506225586 45.317039489746094 0.0
  vertex 53.35134506225586 45.317039489746094 66.0
 endloop
endfacet
facet normal 0.7960931062698364 0.60517418384552 -0.0
 outer loop
  vertex 57.938228607177734 39.28309631347656 0.0
  vertex 53.35134506225586 45.317039489746094 66.0
  vertex 57.938228607177734 39.28309631347656 66.0
 endloop
endfacet
facet normal 0.7259953618049622 0.6876996755599976 0.0
 outer loop
  vertex 53.35134506225586 45.317039489746094 0.0
  vertex 48.13896179199219 50.81968307495117 0.0
  vertex 48.13896179199219 50.81968307495117 66.0
 endloop
endfacet
facet normal 0.7259953618049622 0.6876996755599976 -0.0
 outer loop
  vertex 53.35134506225586 45.317039489746094 0.0
  vertex 48.13896179199219 50.81968307495117 66.0
  vertex 53.35134506225586 45.317039489746094 66.0
 endloop
endfacet
facet normal 0.6473861932754517 0.7621620893478394 0.0
 outer loop
  vertex 48.13896179199219 50.81968307495117 0.0
  vertex 42.3621940612793 55.72651290893555 0.0
  vertex 42.3621940612793 55.72651290893555 66.0
 endloop
endfacet
facet normal 0.6473861932754517 0.7621620893478394 -0.0
 outer loop
  vertex 48.13896179199219 50.81968307495117 0.0
  vertex 42.3621940612793 55.72651290893555 66.0
  vertex 48.13896179199219 50.81968307495117 66.0
 endloop
endfacet
facet normal 0.5611875057220459 0.8276886940002441 0.0
 outer loop
  vertex 42.3621940612793 55.72651290893555 0.0
  vertex 36.08877182006836 59.980003356933594 0.0
  vertex 36.08877182006836 59.980003356933594 66.0
 endloop
endfacet
facet normal 0.5611875057220459 0.8276886940002441 -0.0
 outer loop
  vertex 42.3621940612793 55.72651290893555 0.0
  vertex 36.08877182006836 59.980003356933594 66.0
  vertex 42.3621940612793 55.72651290893555 66.0
 endloop
endfacet
facet normal 0.46840840578079224 0.8835120797157288 0.0
 outer loop
  vertex 36.08877182006836 59.980003356933594 0.0
  vertex 29.392236709594727 63.53028106689453 0.0
  vertex 29.392236709594727 63.53028106689453 66.0
 endloop
endfacet
facet normal 0.46840840578079224 0.8835120797157288 -0.0
 outer loop
  vertex 36.08877182006836 59.980003356933594 0.0
  vertex 29.392236709594727 63.53028106689453 66.0
  vertex 36.08877182006836 59.980003356933594 66.0
 endloop
endfacet
facet normal 0.37013816833496094 0.9289767146110535 0.0
 outer loop
  vertex 29.392236709594727 63.53028106689453 0.0
  vertex 22.351106643676758 66.33572387695312 0.0
  vertex 22.351106643676758 66.33572387695312 66.0
 endloop
endfacet
facet normal 0.37013816833496094 0.9289767146110535 -0.0
 outer loop
  vertex 29.392236709594727 63.53028106689453 0.0
  vertex 22.351106643676758 66.33572387695312 66.0
  vertex 29.392236709594727 63.53028106689453 66.0
 endloop
endfacet
facet normal 0.2675284445285797 0.9635499715805054 0.0
 outer loop
  vertex 22.351106643676758 66.33572387695312 0.0
  vertex 15.047930717468262 68.36344146728516 0.0
  vertex 15.047930717468262 68.36344146728516 66.0
 endloop
endfacet
facet normal 0.2675284445285797 0.9635499715805054 -0.0
 outer loop
  vertex 22.351106643676758 66.33572387695312 0.0
  vertex 15.047930717468262 68.36344146728516 66.0
  vertex 22.351106643676758 66.33572387695312 66.0
 endloop
endfacet
facet normal 0.1617821305990219 0.986826479434967 0.0
 outer loop
  vertex 15.047930717468262 68.36344146728516 0.0
  vertex 7.568331241607666 69.58966064453125 0.0
  vertex 7.568331241607666 69.58966064453125 66.0
 endloop
endfacet
facet normal 0.1617821305990219 0.986826479434967 -0.0
 outer loop
  vertex 15.047930717468262 68.36344146728516 0.0
  vertex 7.568331241607666 69.58966064453125 66.0
  vertex 15.047930717468262 68.36344146728516 66.0
 endloop
endfacet
facet normal 0.0541384294629097 0.9985334277153015 0.0
 outer loop
  vertex 7.568331241607666 69.58966064453125 0.0
  vertex 2.1431319311435507e-14 70.0 0.0
  vertex 2.1431319311435507e-14 70.0 66.0
 endloop
endfacet
facet normal 0.0541384294629097 0.9985334277153015 -0.0
 outer loop
  vertex 7.568331241607666 69.58966064453125 0.0
  vertex 2.1431319311435507e-14 70.0 66.0
  vertex 7.568331241607666 69.58966064453125 66.0
 endloop
endfacet
facet normal 0.0 1.0 0.0
 outer loop
  vertex 2.1431319311435507e-14 70.0 66.0
  vertex 2.1431319311435507e-14 70.0 0.0
  vertex -205.0 70.0 0.0
 endloop
endfacet
facet normal 0.0 1.0 0.0
 outer loop
  vertex 2.1431319311435507e-14 70.0 66.0
  vertex -205.0 70.0 0.0
  vertex -205.0 70.0 66.0
 endloop
endfacet
facet normal 0.0 0.0 1.0
 outer loop
  vertex 2.1431319311435507e-14 70.0 66.0
  vertex -205.0 70.0 66.0
  vertex 7.568331241607666 69.58966064453125 66.0
 endloop
endfacet
facet normal 0.0 0.0 1.0
 outer loop
  vertex -205.0 70.0 66.0
  vertex -212.56832885742188 69.58966064453125 66.0
  vertex 7.568331241607666 69.58966064453125 66.0
 endloop
endfacet
facet normal 0.0 0.0 1.0
 outer loop
  vertex 7.568331241607666 69.58966064453125 66.0
  vertex -212.56832885742188 69.58966064453125 66.0
  vertex 15.047930717468262 68.36344146728516 66.0
 endloop
endfacet
facet normal 0.0 0.0 1.0
 outer loop
  vertex -212.56832885742188 69.58966064453125 66.0
  vertex -220.0479278564453 68.36344146728516 66.0
  vertex 15.047930717468262 68.36344146728516 66.0
 endloop
endfacet
facet normal 0.0 0.0 1.0
 outer loop
  vertex 15.047930717468262 68.36344146728516 66.0
  vertex -220.0479278564453 68.36344146728516 66.0
  vertex 22.351106643676758 66.33572387695312 66.0
 endloop
endfacet
facet normal 0.0 0.0 1.0
 outer loop
  vertex -220.0479278564453 68.36344146728516 66.0
  vertex -227.35110473632812 66.33572387695312 66.0
  vertex 22.351106643676758 66.33572387695312 66.0
 endloop
endfacet
facet normal 0.0 0.0 1.0
 outer loop
  vertex 22.351106643676758 66.33572387695312 66.0
  vertex -227.35110473632812 66.33572387695312 66.0
  vertex 29.392236709594727 63.53028106689453 66.0
 endloop
endfacet
facet normal 0.0 0.0 1.0
 outer loop
  vertex -227.35110473632812 66.33572387695312 66.0
  vertex -234.39224243164062 63.53028106689453 66.0
  vertex 29.392236709594727 63.53028106689453 66.0
 endloop
endfacet
facet normal 0.0 0.0 1.0
 outer loop
  vertex 29.392236709594727 63.53028106689453 66.0
  vertex -234.39224243164062 63.53028106689453 66.0
  vertex 36.08877182006836 59.980003356933594 66.0
 endloop
endfacet
facet normal 0.0 0.0 1.0
 outer loop
  vertex -234.39224243164062 63.53028106689453 66.0
  vertex -241.08877563476562 59.980003356933594 66.0
  vertex 36.08877182006836 59.980003356933594 66.0
 endloop
endfacet
facet normal 0.0 0.0 1.0
 outer loop
  vertex 36.08877182006836 59.980003356933594 66.0
  vertex -241.08877563476562 59.980003356933594 66.0
  vertex 42.3621940612793 55.72651290893555 66.0
 endloop
endfacet
facet normal 0.0 0.0 1.0
 outer loop
  vertex -241.08877563476562 59.980003356933594 66.0
  vertex -247.36219787597656 55.72651290893555 66.0
  vertex 42.3621940612793 55.72651290893555 66.0
 endloop
endfacet
facet normal 0.0 0.0 1.0
 outer loop
  vertex 42.3621940612793 55.72651290893555 66.0
  vertex -247.36219787597656 55.72651290893555 66.0
  vertex 48.13896179199219 50.81968307495117 66.0
 endloop
endfacet
facet normal 0.0 0.0 1.0
 outer loop
  vertex -247.36219787597656 55.72651290893555 66.0
  vertex -253.1389617919922 50.81968307495117 66.0
  vertex 48.13896179199219 50.81968307495117 66.0
 endloop
endfacet
facet normal 0.0 0.0 1.0
 outer loop
  vertex 48.13896179199219 50.81968307495117 66.0
  vertex -253.1389617919922 50.81968307495117 66.0
  vertex 53.35134506225586 45.317039489746094 66.0
 endloop
endfacet
facet normal 0.0 0.0 1.0
 outer loop
  vertex -253.1389617919922 50.81968307495117 66.0
  vertex -258.3513488769531 45.317039489746094 66.0
  vertex 53.35134506225586 45.317039489746094 66.0
 endloop
endfacet
facet normal 0.0 0.0 1.0
 outer loop
  vertex 53.35134506225586 45.317039489746094 66.0
  vertex -258.3513488769531 45.317039489746094 66.0
  vertex 57.938228607177734 39.28309631347656 66.0
 endloop
endfacet
facet normal 0.0 0.0 1.0
 outer loop
  vertex -258.3513488769531 45.317039489746094 66.0
  vertex -262.938232421875 39.28309631347656 66.0
  vertex 57.938228607177734 39.28309631347656 66.0
 endloop
endfacet
facet normal 0.0 0.0 1.0
 outer loop
  vertex 57.938228607177734 39.28309631347656 66.0
  vertex -262.938232421875 39.28309631347656 66.0
  vertex 61.84584426879883 32.78858947753906 66.0
 endloop
endfacet
facet normal 0.0 0.0 1.0
 outer loop
  vertex -262.938232421875 39.28309631347656 66.0
  vertex -266.8458557128906 32.78858947753906 66.0
  vertex 61.84584426879883 32.78858947753906 66.0
 endloop
endfacet
facet normal 0.0 0.0 1.0
 outer loop
  vertex 61.84584426879883 32.78858947753906 66.0
  vertex -266.8458557128906 32.78858947753906 66.0
  vertex 65.02837371826172 25.909671783447266 66.0
 endloop
endfacet
facet normal 0.0 0.0 1.0
 outer loop
  vertex -266.8458557128906 32.78858947753906 66.0
  vertex -270.02838134765625 25.909671783447266 66.0
  vertex 65.02837371826172 25.909671783447266 66.0
 endloop
endfacet
facet normal 0.0 0.0 1.0
 outer loop
  vertex 65.02837371826172 25.909671783447266 66.0
  vertex -270.02838134765625 25.909671783447266 66.0
  vertex 67.44850158691406 18.72698402404785 66.0
 endloop
endfacet
facet normal 0.0 0.0 1.0
 outer loop
  vertex -270.02838134765625 25.909671783447266 66.0
  vertex -272.448486328125 18.72698402404785 66.0
  vertex 67.44850158691406 18.72698402404785 66.0
 endloop
endfacet
facet normal 0.0 0.0 1.0
 outer loop
  vertex 67.44850158691406 18.72698402404785 66.0
  vertex -272.448486328125 18.72698402404785 66.0
  vertex 69.0778579711914 11.324739456176758 66.0
 endloop
endfacet
facet normal 0.0 0.0 1.0
 outer loop
  vertex -272.448486328125 18.72698402404785 66.0
  vertex -274.0778503417969 11.324739456176758 66.0
  vertex 69.0778579711914 11.324739456176758 66.0
 endloop
endfacet
facet normal 0.0 0.0 1.0
 outer loop
  vertex 69.0778579711914 11.324739456176758 66.0
  vertex -274.0778503417969 11.324739456176758 66.0
  vertex 69.8973388671875 3.7897236347198486 66.0
 endloop
endfacet
facet normal 0.0 0.0 1.0
 outer loop
  vertex -274.0778503417969 11.324739456176758 66.0
  vertex -274.8973388671875 3.7897236347198486 66.0
  vertex 69.8973388671875 3.7897236347198486 66.0
 endloop
endfacet
facet normal 0.0 0.0 1.0
 outer loop
  vertex 69.8973388671875 3.7897236347198486 66.0
  vertex -274.8973388671875 3.7897236347198486 66.0
  vertex 69.8973388671875 -3.7897236347198486 66.0
 endloop
endfacet
facet normal 0.0 0.0 1.0
 outer loop
  vertex -274.8973388671875 3.7897236347198486 66.0
  vertex -274.8973388671875 -3.7897236347198486 66.0
  vertex 69.8973388671875 -3.7897236347198486 66.0
 endloop
endfacet
facet normal 0.0 0.0 1.0
 outer loop
  vertex 69.8973388671875 -3.7897236347198486 66.0
  vertex -274.8973388671875 -3.7897236347198486 66.0
  vertex 69.0778579711914 -11.324739456176758 66.0
 endloop
endfacet
facet normal 0.0 0.0 1.0
 outer loop
  vertex -274.8973388671875 -3.7897236347198486 66.0
  vertex -274.0778503417969 -11.324739456176758 66.0
  vertex 69.0778579711914 -11.324739456176758 66.0
 endloop
endfacet
facet normal 0.0 0.0 1.0
 outer loop
  vertex 69.0778579711914 -11.324739456176758 66.0
  vertex -274.0778503417969 -11.324739456176758 66.0
  vertex 67.44850158691406 -18.72698402404785 66.0
 endloop
endfacet
facet normal 0.0 0.0 1.0
 outer loop
  vertex -274.0778503417969 -11.324739456176758 66.0
  vertex -272.448486328125 -18.72698402404785 66.0
  vertex 67.44850158691406 -18.72698402404785 66.0
 endloop
endfacet
facet normal 0.0 0.0 1.0
 outer loop
  vertex 67.44850158691406 -18.72698402404785 66.0
  vertex -272.448486328125 -18.72698402404785 66.0
  vertex 65.02837371826172 -25.909671783447266 66.0
 endloop
endfacet
facet normal 0.0 0.0 1.0
 outer loop
  vertex -272.448486328125 -18.72698402404785 66.0
  vertex -270.02838134765625 -25.909671783447266 66.0
  vertex 65.02837371826172 -25.909671783447266 66.0
 endloop
endfacet
facet normal 0.0 0.0 1.0
 outer loop
  vertex 65.02837371826172 -25.909671783447266 66.0
  vertex -270.02838134765625 -25.909671783447266 66.0
  vertex 61.84584426879883 -32.78858947753906 66.0
 endloop
endfacet
facet normal 0.0 0.0 1.0
 outer loop
  vertex -270.02838134765625 -25.909671783447266 66.0
  vertex -266.8458557128906 -32.78858947753906 66.0
  vertex 61.84584426879883 -32.78858947753906 66.0
 endloop
endfacet
facet normal 0.0 0.0 1.0
 outer loop
  vertex 61.84584426879883 -32.78858947753906 66.0
  vertex -266.8458557128906 -32.78858947753906 66.0
  vertex 57.938228607177734 -39.28309631347656 66.0
 endloop
endfacet
facet normal 0.0 0.0 1.0
 outer loop
  vertex -266.8458557128906 -32.78858947753906 66.0
  vertex -262.938232421875 -39.28309631347656 66.0
  vertex 57.938228607177734 -39.28309631347656 66.0
 endloop
endfacet
facet normal 0.0 0.0 1.0
 outer loop
  vertex 57.938228607177734 -39.28309631347656 66.0
  vertex -262.938232421875 -39.28309631347656 66.0
  vertex 53.35134506225586 -45.317039489746094 66.0
 endloop
endfacet
facet normal 0.0 0.0 1.0
 outer loop
  vertex -262.938232421875 -39.28309631347656 66.0
  vertex -258.3513488769531 -45.317039489746094 66.0
  vertex 53.35134506225586 -45.317039489746094 66.0
 endloop
endfacet
facet normal 0.0 0.0 1.0
 outer loop
  vertex 53.35134506225586 -45.317039489746094 66.0
  vertex -258.3513488769531 -45.317039489746094 66.0
  vertex 48.13896179199219 -50.81968307495117 66.0
 endloop
endfacet
facet normal 0.0 0.0 1.0
 outer loop
  vertex -258.3513488769531 -45.317039489746094 66.0
  vertex -253.1389617919922 -50.81968307495117 66.0
  vertex 48.13896179199219 -50.81968307495117 66.0
 endloop
endfacet
facet normal 0.0 0.0 1.0
 outer loop
  vertex 48.13896179199219 -50.81968307495117 66.0
  vertex -253.1389617919922 -50.81968307495117 66.0
  vertex 42.3621940612793 -55.72651290893555 66.0
 endloop
endfacet
facet normal 0.0 0.0 1.0
 outer loop
  vertex -253.1389617919922 -50.81968307495117 66.0
  vertex -247.36219787597656 -55.72651290893555 66.0
  vertex 42.3621940612793 -55.72651290893555 66.0
 endloop
endfacet
facet normal 0.0 0.0 1.0
 outer loop
  vertex 42.3621940612793 -55.72651290893555 66.0
  vertex -247.36219787597656 -55.72651290893555 66.0
  vertex 36.08877182006836 -59.980003356933594 66.0
 endloop
endfacet
facet normal 0.0 0.0 1.0
 outer loop
  vertex -247.36219787597656 -55.72651290893555 66.0
  vertex -241.08877563476562 -59.980003356933594 66.0
  vertex 36.08877182006836 -59.980003356933594 66.0
 endloop
endfacet
facet normal 0.0 0.0 1.0
 outer loop
  vertex 36.08877182006836 -59.980003356933594 66.0
  vertex -241.08877563476562 -59.980003356933594 66.0
  vertex 29.392236709594727 -63.53028106689453 66.0
 endloop
endfacet
facet normal 0.0 0.0 1.0
 outer loop
  vertex -241.08877563476562 -59.980003356933594 66.0
  vertex -234.39224243164062 -63.53028106689453 66.0
  vertex 29.392236709594727 -63.53028106689453 66.0
 endloop
endfacet
facet normal 0.0 0.0 1.0
 outer loop
  vertex 29.392236709594727 -63.53028106689453 66.0
  vertex -234.39224243164062 -63.53028106689453 66.0
  vertex 22.351106643676758 -66.33572387695312 66.0
 endloop
endfacet
facet normal 0.0 0.0 1.0
 outer loop
  vertex -234.39224243164062 -63.53028106689453 66.0
  vertex -227.35110473632812 -66.33572387695312 66.0
  vertex 22.351106643676758 -66.33572387695312 66.0
 endloop
endfacet
facet normal 0.0 0.0 1.0
 outer loop
  vertex 22.351106643676758 -66.33572387695312 66.0
  vertex -227.35110473632812 -66.33572387695312 66.0
  vertex 15.047930717468262 -68.36344146728516 66.0
 endloop
endfacet
facet normal 0.0 0.0 1.0
 outer loop
  vertex -227.35110473632812 -66.33572387695312 66.0
  vertex -220.0479278564453 -68.36344146728516 66.0
  vertex 15.047930717468262 -68.36344146728516 66.0
 endloop
endfacet
facet normal 0.0 0.0 1.0
 outer loop
  vertex 15.047930717468262 -68.36344146728516 66.0
  vertex -220.0479278564453 -68.36344146728516 66.0
  vertex 7.568331241607666 -69.58966064453125 66.0
 endloop
endfacet
facet normal 0.0 0.0 1.0
 outer loop
  vertex -220.0479278564453 -68.36344146728516 66.0
  vertex -212.56832885742188 -69.58966064453125 66.0
  vertex 7.568331241607666 -69.58966064453125 66.0
 endloop
endfacet
facet normal 0.0 0.0 1.0
 outer loop
  vertex 7.568331241607666 -69.58966064453125 66.0
  vertex -212.56832885742188 -69.58966064453125 66.0
  vertex -1.2858791078641536e-14 -70.0 66.0
 endloop
endfacet
facet normal 0.0 0.0 1.0
 outer loop
  vertex -212.56832885742188 -69.58966064453125 66.0
  vertex -205.0 -70.0 66.0
  vertex -1.2858791078641536e-14 -70.0 66.0
 endloop
endfacet
facet normal 0.0 -0.0 -1.0
 outer loop
  vertex -212.56832885742188 69.58966064453125 0.0
  vertex -205.0 70.0 0.0
  vertex -220.0479278564453 68.36344146728516 0.0
 endloop
endfacet
facet normal 0.0 -0.0 -1.0
 outer loop
  vertex -205.0 70.0 0.0
  vertex 2.1431319311435507e-14 70.0 0.0
  vertex -220.0479278564453 68.36344146728516 0.0
 endloop
endfacet
facet normal 0.0 -0.0 -1.0
 outer loop
  vertex -220.0479278564453 68.36344146728516 0.0
  vertex 2.1431319311435507e-14 70.0 0.0
  vertex -227.35110473632812 66.33572387695312 0.0
 endloop
endfacet
facet normal 0.0 -0.0 -1.0
 outer loop
  vertex 2.1431319311435507e-14 70.0 0.0
  vertex 7.568331241607666 69.58966064453125 0.0
  vertex -227.35110473632812 66.33572387695312 0.0
 endloop
endfacet
facet normal 0.0 -0.0 -1.0
 outer loop
  vertex -227.35110473632812 66.33572387695312 0.0
  vertex 7.568331241607666 69.58966064453125 0.0
  vertex -234.39224243164062 63.53028106689453 0.0
 endloop
endfacet
facet normal 0.0 -0.0 -1.0
 outer loop
  vertex 7.568331241607666 69.58966064453125 0.0
  vertex 15.047930717468262 68.36344146728516 0.0
  vertex -234.39224243164062 63.53028106689453 0.0
 endloop
endfacet
facet normal 0.0 -0.0 -1.0
 outer loop
  vertex -234.39224243164062 63.53028106689453 0.0
  vertex 15.047930717468262 68.36344146728516 0.0
  vertex -241.08877563476562 59.980003356933594 0.0
 endloop
endfacet
facet normal 0.0 -0.0 -1.0
 outer loop
  vertex 15.047930717468262 68.36344146728516 0.0
  vertex 22.351106643676758 66.33572387695312 0.0
  vertex -241.08877563476562 59.980003356933594 0.0
 endloop
endfacet
facet normal 0.0 -0.0 -1.0
 outer loop
  vertex -241.08877563476562 59.980003356933594 0.0
  vertex 22.351106643676758 66.33572387695312 0.0
  vertex -247.36219787597656 55.72651290893555 0.0
 endloop
endfacet
facet normal 0.0 -0.0 -1.0
 outer loop
  vertex 22.351106643676758 66.33572387695312 0.0
  vertex 29.392236709594727 63.53028106689453 0.0
  vertex -247.36219787597656 55.72651290893555 0.0
 endloop
endfacet
facet normal 0.0 -0.0 -1.0
 outer loop
  vertex -247.36219787597656 55.72651290893555 0.0
  vertex 29.392236709594727 63.53028106689453 0.0
  vertex -253.1389617919922 50.81968307495117 0.0
 endloop
endfacet
facet normal 0.0 -0.0 -1.0
 outer loop
  vertex 29.392236709594727 63.53028106689453 0.0
  vertex 36.08877182006836 59.980003356933594 0.0
  vertex -253.1389617919922 50.81968307495117 0.0
 endloop
endfacet
facet normal 0.0 -0.0 -1.0
 outer loop
  vertex -253.1389617919922 50.81968307495117 0.0
  vertex 36.08877182006836 59.980003356933594 0.0
  vertex -258.3513488769531 45.317039489746094 0.0
 endloop
endfacet
facet normal 0.0 -0.0 -1.0
 outer loop
  vertex 36.08877182006836 59.980003356933594 0.0
  vertex 42.3621940612793 55.72651290893555 0.0
  vertex -258.3513488769531 45.317039489746094 0.0
 endloop
endfacet
facet normal 0.0 -0.0 -1.0
 outer loop
  vertex -258.3513488769531 45.317039489746094 0.0
  vertex 42.3621940612793 55.72651290893555 0.0
  vertex -262.938232421875 39.28309631347656 0.0
 endloop
endfacet
facet normal 0.0 -0.0 -1.0
 outer loop
  vertex 42.3621940612793 55.72651290893555 0.0
  vertex 48.13896179199219 50.81968307495117 0.0
  vertex -262.938232421875 39.28309631347656 0.0
 endloop
endfacet
facet normal 0.0 -0.0 -1.0
 outer loop
  vertex -262.938232421875 39.28309631347656 0.0
  vertex 48.13896179199219 50.81968307495117 0.0
  vertex -266.8458557128906 32.78858947753906 0.0
 endloop
endfacet
facet normal 0.0 -0.0 -1.0
 outer loop
  vertex 48.13896179199219 50.81968307495117 0.0
  vertex 53.35134506225586 45.317039489746094 0.0
  vertex -266.8458557128906 32.78858947753906 0.0
 endloop
endfacet
facet normal 0.0 -0.0 -1.0
 outer loop
  vertex -266.8458557128906 32.78858947753906 0.0
  vertex 53.35134506225586 45.317039489746094 0.0
  vertex -270.02838134765625 25.909671783447266 0.0
 endloop
endfacet
facet normal 0.0 -0.0 -1.0
 outer loop
  vertex 53.35134506225586 45.317039489746094 0.0
  vertex 57.938228607177734 39.28309631347656 0.0
  vertex -270.02838134765625 25.909671783447266 0.0
 endloop
endfacet
facet normal 0.0 -0.0 -1.0
 outer loop
  vertex -270.02838134765625 25.909671783447266 0.0
  vertex 57.938228607177734 39.28309631347656 0.0
  vertex -272.448486328125 18.72698402404785 0.0
 endloop
endfacet
facet normal 0.0 -0.0 -1.0
 outer loop
  vertex 57.938228607177734 39.28309631347656 0.0
  vertex 61.84584426879883 32.78858947753906 0.0
  vertex -272.448486328125 18.72698402404785 0.0
 endloop
endfacet
facet normal 0.0 -0.0 -1.0
 outer loop
  vertex -272.448486328125 18.72698402404785 0.0
  vertex 61.84584426879883 32.78858947753906 0.0
  vertex -274.0778503417969 11.324739456176758 0.0
 endloop
endfacet
facet normal 0.0 -0.0 -1.0
 outer loop
  vertex 61.84584426879883 32.78858947753906 0.0
  vertex 65.02837371826172 25.909671783447266 0.0
  vertex -274.0778503417969 11.324739456176758 0.0
 endloop
endfacet
facet normal 0.0 -0.0 -1.0
 outer loop
  vertex -274.0778503417969 11.324739456176758 0.0
  vertex 65.02837371826172 25.909671783447266 0.0
  vertex -274.8973388671875 3.7897236347198486 0.0
 endloop
endfacet
facet normal 0.0 -0.0 -1.0
 outer loop
  vertex 65.02837371826172 25.909671783447266 0.0
  vertex 67.44850158691406 18.72698402404785 0.0
  vertex -274.8973388671875 3.7897236347198486 0.0
 endloop
endfacet
facet normal 0.0 0.0 -1.0
 outer loop
  vertex -274.8973388671875 3.7897236347198486 0.0
  vertex 67.44850158691406 18.72698402404785 0.0
  vertex -274.8973388671875 -3.7897236347198486 0.0
 endloop
endfacet
facet normal 0.0 -0.0 -1.0
 outer loop
  vertex 67.44850158691406 18.72698402404785 0.0
  vertex 69.0778579711914 11.324739456176758 0.0
  vertex -274.8973388671875 -3.7897236347198486 0.0
 endloop
endfacet
facet normal 0.0 0.0 -1.0
 outer loop
  vertex -274.8973388671875 -3.7897236347198486 0.0
  vertex 69.0778579711914 11.324739456176758 0.0
  vertex -274.0778503417969 -11.324739456176758 0.0
 endloop
endfacet
facet normal 0.0 -0.0 -1.0
 outer loop
  vertex 69.0778579711914 11.324739456176758 0.0
  vertex 69.8973388671875 3.7897236347198486 0.0
  vertex -274.0778503417969 -11.324739456176758 0.0
 endloop
endfacet
facet normal 0.0 0.0 -1.0
 outer loop
  vertex -274.0778503417969 -11.324739456176758 0.0
  vertex 69.8973388671875 3.7897236347198486 0.0
  vertex -272.448486328125 -18.72698402404785 0.0
 endloop
endfacet
facet normal 0.0 -0.0 -1.0
 outer loop
  vertex 69.8973388671875 3.7897236347198486 0.0
  vertex 69.8973388671875 -3.7897236347198486 0.0
  vertex -272.448486328125 -18.72698402404785 0.0
 endloop
endfacet
facet normal 0.0 0.0 -1.0
 outer loop
  vertex -272.448486328125 -18.72698402404785 0.0
  vertex 69.8973388671875 -3.7897236347198486 0.0
  vertex -270.02838134765625 -25.909671783447266 0.0
 endloop
endfacet
facet normal 0.0 0.0 -1.0
 outer loop
  vertex 69.8973388671875 -3.7897236347198486 0.0
  vertex 69.0778579711914 -11.324739456176758 0.0
  vertex -270.02838134765625 -25.909671783447266 0.0
 endloop
endfacet
facet normal 0.0 0.0 -1.0
 outer loop
  vertex -270.02838134765625 -25.909671783447266 0.0
  vertex 69.0778579711914 -11.324739456176758 0.0
  vertex -266.8458557128906 -32.78858947753906 0.0
 endloop
endfacet
facet normal 0.0 0.0 -1.0
 outer loop
  vertex 69.0778579711914 -11.324739456176758 0.0
  vertex 67.44850158691406 -18.72698402404785 0.0
  vertex -266.8458557128906 -32.78858947753906 0.0
 endloop
endfacet
facet normal 0.0 0.0 -1.0
 outer loop
  vertex -266.8458557128906 -32.78858947753906 0.0
  vertex 67.44850158691406 -18.72698402404785 0.0
  vertex -262.938232421875 -39.28309631347656 0.0
 endloop
endfacet
facet normal 0.0 0.0 -1.0
 outer loop
  vertex 67.44850158691406 -18.72698402404785 0.0
  vertex 65.02837371826172 -25.909671783447266 0.0
  vertex -262.938232421875 -39.28309631347656 0.0
 endloop
endfacet
facet normal 0.0 0.0 -1.0
 outer loop
  vertex -262.938232421875 -39.28309631347656 0.0
  vertex 65.02837371826172 -25.909671783447266 0.0
  vertex -258.3513488769531 -45.317039489746094 0.0
 endloop
endfacet
facet normal 0.0 0.0 -1.0
 outer loop
  vertex 65.02837371826172 -25.909671783447266 0.0
  vertex 61.84584426879883 -32.78858947753906 0.0
  vertex -258.3513488769531 -45.317039489746094 0.0
 endloop
endfacet
facet normal 0.0 0.0 -1.0
 outer loop
  vertex -258.3513488769531 -45.317039489746094 0.0
  vertex 61.84584426879883 -32.78858947753906 0.0
  vertex -253.1389617919922 -50.81968307495117 0.0
 endloop
endfacet
facet normal 0.0 0.0 -1.0
 outer loop
  vertex 61.84584426879883 -32.78858947753906 0.0
  vertex 57.938228607177734 -39.28309631347656 0.0
  vertex -253.1389617919922 -50.81968307495117 0.0
 endloop
endfacet
facet normal 0.0 0.0 -1.0
 outer loop
  vertex -253.1389617919922 -50.81968307495117 0.0
  vertex 57.938228607177734 -39.28309631347656 0.0
  vertex -247.36219787597656 -55.72651290893555 0.0
 endloop
endfacet
facet normal 0.0 0.0 -1.0
 outer loop
  vertex 57.938228607177734 -39.28309631347656 0.0
  vertex 53.35134506225586 -45.317039489746094 0.0
  vertex -247.36219787597656 -55.72651290893555 0.0
 endloop
endfacet
facet normal 0.0 0.0 -1.0
 outer loop
  vertex -247.36219787597656 -55.72651290893555 0.0
  vertex 53.35134506225586 -45.317039489746094 0.0
  vertex -241.08877563476562 -59.980003356933594 0.0
 endloop
endfacet
facet normal 0.0 0.0 -1.0
 outer loop
  vertex 53.35134506225586 -45.317039489746094 0.0
  vertex 48.13896179199219 -50.81968307495117 0.0
  vertex -241.08877563476562 -59.980003356933594 0.0
 endloop
endfacet
facet normal 0.0 0.0 -1.0
 outer loop
  vertex -241.08877563476562 -59.980003356933594 0.0
  vertex 48.13896179199219 -50.81968307495117 0.0
  vertex -234.39224243164062 -63.53028106689453 0.0
 endloop
endfacet
facet normal 0.0 0.0 -1.0
 outer loop
  vertex 48.13896179199219 -50.81968307495117 0.0
  vertex 42.3621940612793 -55.72651290893555 0.0
  vertex -234.39224243164062 -63.53028106689453 0.0
 endloop
endfacet
facet normal 0.0 0.0 -1.0
 outer loop
  vertex -234.39224243164062 -63.53028106689453 0.0
  vertex 42.3621940612793 -55.72651290893555 0.0
  vertex -227.35110473632812 -66.33572387695312 0.0
 endloop
endfacet
facet normal 0.0 0.0 -1.0
 outer loop
  vertex 42.3621940612793 -55.72651290893555 0.0
  vertex 36.08877182006836 -59.980003356933594 0.0
  vertex -227.35110473632812 -66.33572387695312 0.0
 endloop
endfacet
facet normal 0.0 0.0 -1.0
 outer loop
  vertex -227.35110473632812 -66.33572387695312 0.0
  vertex 36.08877182006836 -59.980003356933594 0.0
  vertex -220.0479278564453 -68.36344146728516 0.0
 endloop
endfacet
facet normal 0.0 0.0 -1.0
 outer loop
  vertex 36.08877182006836 -59.980003356933594 0.0
  vertex 29.392236709594727 -63.53028106689453 0.0
  vertex -220.0479278564453 -68.36344146728516 0.0
 endloop
endfacet
facet normal 0.0 0.0 -1.0
 outer loop
  vertex -220.0479278564453 -68.36344146728516 0.0
  vertex 29.392236709594727 -63.53028106689453 0.0
  vertex -212.56832885742188 -69.58966064453125 0.0
 endloop
endfacet
facet normal 0.0 0.0 -1.0
 outer loop
  vertex 29.392236709594727 -63.53028106689453 0.0
  vertex 22.351106643676758 -66.33572387695312 0.0
  vertex -212.56832885742188 -69.58966064453125 0.0
 endloop
endfacet
facet normal 0.0 0.0 -1.0
 outer loop
  vertex -212.56832885742188 -69.58966064453125 0.0
  vertex 22.351106643676758 -66.33572387695312 0.0
  vertex -205.0 -70.0 0.0
 endloop
endfacet
facet normal 0.0 0.0 -1.0
 outer loop
  vertex 22.351106643676758 -66.33572387695312 0.0
  vertex 15.047930717468262 -68.36344146728516 0.0
  vertex -205.0 -70.0 0.0
 endloop
endfacet
facet normal 0.0 0.0 -1.0
 outer loop
  vertex -205.0 -70.0 0.0
  vertex 15.047930717468262 -68.36344146728516 0.0
  vertex -1.2858791078641536e-14 -70.0 0.0
 endloop
endfacet
facet normal 0.0 0.0 -1.0
 outer loop
  vertex 15.047930717468262 -68.36344146728516 0.0
  vertex 7.568331241607666 -69.58966064453125 0.0
  vertex -1.2858791078641536e-14 -70.0 0.0
 endloop
endfacet
facet normal -0.9978588223457336 -0.06540361046791077 0.0
 outer loop
  vertex -252.5 4.9572376233228063e-14 66.0
  vertex -252.0936279296875 -6.199994087219238 66.0
  vertex -252.0936279296875 -6.199994087219238 81.0
 endloop
endfacet
facet normal -0.9978588223457336 -0.06540361046791077 0.0
 outer loop
  vertex -252.5 4.9572376233228063e-14 66.0
  vertex -252.0936279296875 -6.199994087219238 81.0
  vertex -252.5 4.9572376233228063e-14 81.0
 endloop
endfacet
facet normal -0.9807851314544678 -0.19509094953536987 0.0
 outer loop
  vertex -252.0936279296875 -6.199994087219238 66.0
  vertex -250.8814697265625 -12.293904304504395 66.0
  vertex -250.8814697265625 -12.293904304504395 81.0
 endloop
endfacet
facet normal -0.9807851314544678 -0.19509094953536987 0.0
 outer loop
  vertex -252.0936279296875 -6.199994087219238 66.0
  vertex -250.8814697265625 -12.293904304504395 81.0
  vertex -252.0936279296875 -6.199994087219238 81.0
 endloop
endfacet
facet normal -0.9469305276870728 -0.3214384913444519 0.0
 outer loop
  vertex -250.8814697265625 -12.293904304504395 66.0
  vertex -248.88427734375 -18.17746353149414 66.0
  vertex -248.88427734375 -18.17746353149414 81.0
 endloop
endfacet
facet normal -0.9469305276870728 -0.3214384913444519 0.0
 outer loop
  vertex -250.8814697265625 -12.293904304504395 66.0
  vertex -248.88427734375 -18.17746353149414 81.0
  vertex -250.8814697265625 -12.293904304504395 81.0
 endloop
endfacet
facet normal -0.896872341632843 -0.4422895610332489 0.0
 outer loop
  vertex -248.88427734375 -18.17746353149414 66.0
  vertex -246.13619995117188 -23.75 66.0
  vertex -246.13619995117188 -23.75 81.0
 endloop
endfacet
facet normal -0.896872341632843 -0.4422895610332489 0.0
 outer loop
  vertex -248.88427734375 -18.17746353149414 66.0
  vertex -246.13619995117188 -23.75 81.0
  vertex -248.88427734375 -18.17746353149414 81.0
 endloop
endfacet
facet normal -0.8314698934555054 -0.5555698275566101 0.0
 outer loop
  vertex -246.13619995117188 -23.75 66.0
  vertex -242.6842803955078 -28.916168212890625 66.0
  vertex -242.6842803955078 -28.916168212890625 81.0
 endloop
endfacet
facet normal -0.8314698934555054 -0.5555698275566101 0.0
 outer loop
  vertex -246.13619995117188 -23.75 66.0
  vertex -242.6842803955078 -28.916168212890625 81.0
  vertex -246.13619995117188 -23.75 81.0
 endloop
endfacet
facet normal -0.7518399953842163 -0.6593455076217651 0.0
 outer loop
  vertex -242.6842803955078 -28.916168212890625 66.0
  vertex -238.5875701904297 -33.58757400512695 66.0
  vertex -238.5875701904297 -33.58757400512695 81.0
 endloop
endfacet
facet normal -0.7518399953842163 -0.6593455076217651 0.0
 outer loop
  vertex -242.6842803955078 -28.916168212890625 66.0
  vertex -238.5875701904297 -33.58757400512695 81.0
  vertex -242.6842803955078 -28.916168212890625 81.0
 endloop
endfacet
facet normal -0.6593458652496338 -0.7518397569656372 0.0
 outer loop
  vertex -238.5875701904297 -33.58757400512695 66.0
  vertex -233.91616821289062 -37.68428421020508 66.0
  vertex -233.91616821289062 -37.68428421020508 81.0
 endloop
endfacet
facet normal -0.6593458652496338 -0.7518397569656372 0.0
 outer loop
  vertex -238.5875701904297 -33.58757400512695 66.0
  vertex -233.91616821289062 -37.68428421020508 81.0
  vertex -238.5875701904297 -33.58757400512695 81.0
 endloop
endfacet
facet normal -0.5555702447891235 -0.8314695358276367 0.0
 outer loop
  vertex -233.91616821289062 -37.68428421020508 66.0
  vertex -228.75 -41.136207580566406 66.0
  vertex -228.75 -41.136207580566406 81.0
 endloop
endfacet
facet normal -0.5555702447891235 -0.8314695358276367 0.0
 outer loop
  vertex -233.91616821289062 -37.68428421020508 66.0
  vertex -228.75 -41.136207580566406 81.0
  vertex -233.91616821289062 -37.68428421020508 81.0
 endloop
endfacet
facet normal -0.4422883093357086 -0.8968729376792908 0.0
 outer loop
  vertex -228.75 -41.136207580566406 66.0
  vertex -223.17745971679688 -43.88427734375 66.0
  vertex -223.17745971679688 -43.88427734375 81.0
 endloop
endfacet
facet normal -0.4422883093357086 -0.8968729376792908 0.0
 outer loop
  vertex -228.75 -41.136207580566406 66.0
  vertex -223.17745971679688 -43.88427734375 81.0
  vertex -228.75 -41.136207580566406 81.0
 endloop
endfacet
facet normal -0.3214395344257355 -0.9469301700592041 0.0
 outer loop
  vertex -223.17745971679688 -43.88427734375 66.0
  vertex -217.2938995361328 -45.88147735595703 66.0
  vertex -217.2938995361328 -45.88147735595703 81.0
 endloop
endfacet
facet normal -0.3214395344257355 -0.9469301700592041 0.0
 outer loop
  vertex -223.17745971679688 -43.88427734375 66.0
  vertex -217.2938995361328 -45.88147735595703 81.0
  vertex -223.17745971679688 -43.88427734375 81.0
 endloop
endfacet
facet normal -0.19509060680866241 -0.9807852506637573 0.0
 outer loop
  vertex -217.2938995361328 -45.88147735595703 66.0
  vertex -211.1999969482422 -47.093631744384766 66.0
  vertex -211.1999969482422 -47.093631744384766 81.0
 endloop
endfacet
facet normal -0.19509060680866241 -0.9807852506637573 0.0
 outer loop
  vertex -217.2938995361328 -45.88147735595703 66.0
  vertex -211.1999969482422 -47.093631744384766 81.0
  vertex -217.2938995361328 -45.88147735595703 81.0
 endloop
endfacet
facet normal -0.06540296971797943 -0.9978589415550232 0.0
 outer loop
  vertex -211.1999969482422 -47.093631744384766 66.0
  vertex -205.0 -47.5 66.0
  vertex -205.0 -47.5 81.0
 endloop
endfacet
facet normal -0.06540296971797943 -0.9978589415550232 0.0
 outer loop
  vertex -211.1999969482422 -47.093631744384766 66.0
  vertex -205.0 -47.5 81.0
  vertex -211.1999969482422 -47.093631744384766 81.0
 endloop
endfacet
facet normal 0.06540296971797943 -0.9978589415550232 0.0
 outer loop
  vertex -205.0 -47.5 66.0
  vertex -198.8000030517578 -47.093631744384766 66.0
  vertex -198.8000030517578 -47.093631744384766 81.0
 endloop
endfacet
facet normal 0.06540296971797943 -0.9978589415550232 0.0
 outer loop
  vertex -205.0 -47.5 66.0
  vertex -198.8000030517578 -47.093631744384766 81.0
  vertex -205.0 -47.5 81.0
 endloop
endfacet
facet normal 0.19509060680866241 -0.9807852506637573 0.0
 outer loop
  vertex -198.8000030517578 -47.093631744384766 66.0
  vertex -192.7061004638672 -45.88147735595703 66.0
  vertex -192.7061004638672 -45.88147735595703 81.0
 endloop
endfacet
facet normal 0.19509060680866241 -0.9807852506637573 0.0
 outer loop
  vertex -198.8000030517578 -47.093631744384766 66.0
  vertex -192.7061004638672 -45.88147735595703 81.0
  vertex -198.8000030517578 -47.093631744384766 81.0
 endloop
endfacet
facet normal 0.3214395344257355 -0.9469301700592041 0.0
 outer loop
  vertex -192.7061004638672 -45.88147735595703 66.0
  vertex -186.82254028320312 -43.88427734375 66.0
  vertex -186.82254028320312 -43.88427734375 81.0
 endloop
endfacet
facet normal 0.3214395344257355 -0.9469301700592041 0.0
 outer loop
  vertex -192.7061004638672 -45.88147735595703 66.0
  vertex -186.82254028320312 -43.88427734375 81.0
  vertex -192.7061004638672 -45.88147735595703 81.0
 endloop
endfacet
facet normal 0.4422883093357086 -0.8968729376792908 0.0
 outer loop
  vertex -186.82254028320312 -43.88427734375 66.0
  vertex -181.25 -41.136207580566406 66.0
  vertex -181.25 -41.136207580566406 81.0
 endloop
endfacet
facet normal 0.4422883093357086 -0.8968729376792908 0.0
 outer loop
  vertex -186.82254028320312 -43.88427734375 66.0
  vertex -181.25 -41.136207580566406 81.0
  vertex -186.82254028320312 -43.88427734375 81.0
 endloop
endfacet
facet normal 0.5555702447891235 -0.8314695358276367 0.0
 outer loop
  vertex -181.25 -41.136207580566406 66.0
  vertex -176.08383178710938 -37.68428421020508 66.0
  vertex -176.08383178710938 -37.68428421020508 81.0
 endloop
endfacet
facet normal 0.5555702447891235 -0.8314695358276367 0.0
 outer loop
  vertex -181.25 -41.136207580566406 66.0
  vertex -176.08383178710938 -37.68428421020508 81.0
  vertex -181.25 -41.136207580566406 81.0
 endloop
endfacet
facet normal 0.6593458652496338 -0.7518397569656372 0.0
 outer loop
  vertex -176.08383178710938 -37.68428421020508 66.0
  vertex -171.4124298095703 -33.58757400512695 66.0
  vertex -171.4124298095703 -33.58757400512695 81.0
 endloop
endfacet
facet normal 0.6593458652496338 -0.7518397569656372 0.0
 outer loop
  vertex -176.08383178710938 -37.68428421020508 66.0
  vertex -171.4124298095703 -33.58757400512695 81.0
  vertex -176.08383178710938 -37.68428421020508 81.0
 endloop
endfacet
facet normal 0.7518399953842163 -0.6593455076217651 0.0
 outer loop
  vertex -171.4124298095703 -33.58757400512695 66.0
  vertex -167.3157196044922 -28.916168212890625 66.0
  vertex -167.3157196044922 -28.916168212890625 81.0
 endloop
endfacet
facet normal 0.7518399953842163 -0.6593455076217651 0.0
 outer loop
  vertex -171.4124298095703 -33.58757400512695 66.0
  vertex -167.3157196044922 -28.916168212890625 81.0
  vertex -171.4124298095703 -33.58757400512695 81.0
 endloop
endfacet
facet normal 0.8314698934555054 -0.5555698275566101 0.0
 outer loop
  vertex -167.3157196044922 -28.916168212890625 66.0
  vertex -163.86380004882812 -23.75 66.0
  vertex -163.86380004882812 -23.75 81.0
 endloop
endfacet
facet normal 0.8314698934555054 -0.5555698275566101 0.0
 outer loop
  vertex -167.3157196044922 -28.916168212890625 66.0
  vertex -163.86380004882812 -23.75 81.0
  vertex -167.3157196044922 -28.916168212890625 81.0
 endloop
endfacet
facet normal 0.896872341632843 -0.4422895610332489 0.0
 outer loop
  vertex -163.86380004882812 -23.75 66.0
  vertex -161.11572265625 -18.17746353149414 66.0
  vertex -161.11572265625 -18.17746353149414 81.0
 endloop
endfacet
facet normal 0.896872341632843 -0.4422895610332489 0.0
 outer loop
  vertex -163.86380004882812 -23.75 66.0
  vertex -161.11572265625 -18.17746353149414 81.0
  vertex -163.86380004882812 -23.75 81.0
 endloop
endfacet
facet normal 0.9469305276870728 -0.3214384913444519 0.0
 outer loop
  vertex -161.11572265625 -18.17746353149414 66.0
  vertex -159.1185302734375 -12.293904304504395 66.0
  vertex -159.1185302734375 -12.293904304504395 81.0
 endloop
endfacet
facet normal 0.9469305276870728 -0.3214384913444519 0.0
 outer loop
  vertex -161.11572265625 -18.17746353149414 66.0
  vertex -159.1185302734375 -12.293904304504395 81.0
  vertex -161.11572265625 -18.17746353149414 81.0
 endloop
endfacet
facet normal 0.9807851314544678 -0.19509094953536987 0.0
 outer loop
  vertex -159.1185302734375 -12.293904304504395 66.0
  vertex -157.9063720703125 -6.199994087219238 66.0
  vertex -157.9063720703125 -6.199994087219238 81.0
 endloop
endfacet
facet normal 0.9807851314544678 -0.19509094953536987 0.0
 outer loop
  vertex -159.1185302734375 -12.293904304504395 66.0
  vertex -157.9063720703125 -6.199994087219238 81.0
  vertex -159.1185302734375 -12.293904304504395 81.0
 endloop
endfacet
facet normal 0.9978588223457336 -0.06540361046791077 0.0
 outer loop
  vertex -157.9063720703125 -6.199994087219238 66.0
  vertex -157.5 -1.0067316073933841e-14 66.0
  vertex -157.5 -1.0067316073933841e-14 81.0
 endloop
endfacet
facet normal 0.9978588223457336 -0.06540361046791077 0.0
 outer loop
  vertex -157.9063720703125 -6.199994087219238 66.0
  vertex -157.5 -1.0067316073933841e-14 81.0
  vertex -157.9063720703125 -6.199994087219238 81.0
 endloop
endfacet
facet normal 0.9978588223457336 0.06540361046791077 0.0
 outer loop
  vertex -157.5 -1.0067316073933841e-14 66.0
  vertex -157.9063720703125 6.199994087219238 66.0
  vertex -157.9063720703125 6.199994087219238 81.0
 endloop
endfacet
facet normal 0.9978588223457336 0.06540361046791077 -0.0
 outer loop
  vertex -157.5 -1.0067316073933841e-14 66.0
  vertex -157.9063720703125 6.199994087219238 81.0
  vertex -157.5 -1.0067316073933841e-14 81.0
 endloop
endfacet
facet normal 0.9807851314544678 0.19509094953536987 0.0
 outer loop
  vertex -157.9063720703125 6.199994087219238 66.0
  vertex -159.1185302734375 12.293904304504395 66.0
  vertex -159.1185302734375 12.293904304504395 81.0
 endloop
endfacet
facet normal 0.9807851314544678 0.19509094953536987 -0.0
 outer loop
  vertex -157.9063720703125 6.199994087219238 66.0
  vertex -159.1185302734375 12.293904304504395 81.0
  vertex -157.9063720703125 6.199994087219238 81.0
 endloop
endfacet
facet normal 0.9469305276870728 0.3214384913444519 0.0
 outer loop
  vertex -159.1185302734375 12.293904304504395 66.0
  vertex -161.11572265625 18.17746353149414 66.0
  vertex -161.11572265625 18.17746353149414 81.0
 endloop
endfacet
facet normal 0.9469305276870728 0.3214384913444519 -0.0
 outer loop
  vertex -159.1185302734375 12.293904304504395 66.0
  vertex -161.11572265625 18.17746353149414 81.0
  vertex -159.1185302734375 12.293904304504395 81.0
 endloop
endfacet
facet normal 0.896872341632843 0.4422895610332489 0.0
 outer loop
  vertex -161.11572265625 18.17746353149414 66.0
  vertex -163.86380004882812 23.75 66.0
  vertex -163.86380004882812 23.75 81.0
 endloop
endfacet
facet normal 0.896872341632843 0.4422895610332489 -0.0
 outer loop
  vertex -161.11572265625 18.17746353149414 66.0
  vertex -163.86380004882812 23.75 81.0
  vertex -161.11572265625 18.17746353149414 81.0
 endloop
endfacet
facet normal 0.8314698934555054 0.5555698275566101 0.0
 outer loop
  vertex -163.86380004882812 23.75 66.0
  vertex -167.3157196044922 28.916168212890625 66.0
  vertex -167.3157196044922 28.916168212890625 81.0
 endloop
endfacet
facet normal 0.8314698934555054 0.5555698275566101 -0.0
 outer loop
  vertex -163.86380004882812 23.75 66.0
  vertex -167.3157196044922 28.916168212890625 81.0
  vertex -163.86380004882812 23.75 81.0
 endloop
endfacet
facet normal 0.7518399953842163 0.6593455076217651 0.0
 outer loop
  vertex -167.3157196044922 28.916168212890625 66.0
  vertex -171.4124298095703 33.58757400512695 66.0
  vertex -171.4124298095703 33.58757400512695 81.0
 endloop
endfacet
facet normal 0.7518399953842163 0.6593455076217651 -0.0
 outer loop
  vertex -167.3157196044922 28.916168212890625 66.0
  vertex -171.4124298095703 33.58757400512695 81.0
  vertex -167.3157196044922 28.916168212890625 81.0
 endloop
endfacet
facet normal 0.6593458652496338 0.7518397569656372 0.0
 outer loop
  vertex -171.4124298095703 33.58757400512695 66.0
  vertex -176.08383178710938 37.68428421020508 66.0
  vertex -176.08383178710938 37.68428421020508 81.0
 endloop
endfacet
facet normal 0.6593458652496338 0.7518397569656372 -0.0
 outer loop
  vertex -171.4124298095703 33.58757400512695 66.0
  vertex -176.08383178710938 37.68428421020508 81.0
  vertex -171.4124298095703 33.58757400512695 81.0
 endloop
endfacet
facet normal 0.5555702447891235 0.8314695358276367 0.0
 outer loop
  vertex -176.08383178710938 37.68428421020508 66.0
  vertex -181.25 41.136207580566406 66.0
  vertex -181.25 41.136207580566406 81.0
 endloop
endfacet
facet normal 0.5555702447891235 0.8314695358276367 -0.0
 outer loop
  vertex -176.08383178710938 37.68428421020508 66.0
  vertex -181.25 41.136207580566406 81.0
  vertex -176.08383178710938 37.68428421020508 81.0
 endloop
endfacet
facet normal 0.4422883093357086 0.8968729376792908 0.0
 outer loop
  vertex -181.25 41.136207580566406 66.0
  vertex -186.82254028320312 43.88427734375 66.0
  vertex -186.82254028320312 43.88427734375 81.0
 endloop
endfacet
facet normal 0.4422883093357086 0.8968729376792908 -0.0
 outer loop
  vertex -181.25 41.136207580566406 66.0
  vertex -186.82254028320312 43.88427734375 81.0
  vertex -181.25 41.136207580566406 81.0
 endloop
endfacet
facet normal 0.3214395344257355 0.9469301700592041 0.0
 outer loop
  vertex -186.82254028320312 43.88427734375 66.0
  vertex -192.7061004638672 45.88147735595703 66.0
  vertex -192.7061004638672 45.88147735595703 81.0
 endloop
endfacet
facet normal 0.3214395344257355 0.9469301700592041 -0.0
 outer loop
  vertex -186.82254028320312 43.88427734375 66.0
  vertex -192.7061004638672 45.88147735595703 81.0
  vertex -186.82254028320312 43.88427734375 81.0
 endloop
endfacet
facet normal 0.19509060680866241 0.9807852506637573 0.0
 outer loop
  vertex -192.7061004638672 45.88147735595703 66.0
  vertex -198.8000030517578 47.093631744384766 66.0
  vertex -198.8000030517578 47.093631744384766 81.0
 endloop
endfacet
facet normal 0.19509060680866241 0.9807852506637573 -0.0
 outer loop
  vertex -192.7061004638672 45.88147735595703 66.0
  vertex -198.8000030517578 47.093631744384766 81.0
  vertex -192.7061004638672 45.88147735595703 81.0
 endloop
endfacet
facet normal 0.06540296971797943 0.9978589415550232 0.0
 outer loop
  vertex -198.8000030517578 47.093631744384766 66.0
  vertex -205.0 47.5 66.0
  vertex -205.0 47.5 81.0
 endloop
endfacet
facet normal 0.06540296971797943 0.9978589415550232 -0.0
 outer loop
  vertex -198.8000030517578 47.093631744384766 66.0
  vertex -205.0 47.5 81.0
  vertex -198.8000030517578 47.093631744384766 81.0
 endloop
endfacet
facet normal -0.06540296971797943 0.9978589415550232 0.0
 outer loop
  vertex -205.0 47.5 66.0
  vertex -211.1999969482422 47.093631744384766 66.0
  vertex -211.1999969482422 47.093631744384766 81.0
 endloop
endfacet
facet normal -0.06540296971797943 0.9978589415550232 0.0
 outer loop
  vertex -205.0 47.5 66.0
  vertex -211.1999969482422 47.093631744384766 81.0
  vertex -205.0 47.5 81.0
 endloop
endfacet
facet normal -0.19509060680866241 0.9807852506637573 0.0
 outer loop
  vertex -211.1999969482422 47.093631744384766 66.0
  vertex -217.2938995361328 45.88147735595703 66.0
  vertex -217.2938995361328 45.88147735595703 81.0
 endloop
endfacet
facet normal -0.19509060680866241 0.9807852506637573 0.0
 outer loop
  vertex -211.1999969482422 47.093631744384766 66.0
  vertex -217.2938995361328 45.88147735595703 81.0
  vertex -211.1999969482422 47.093631744384766 81.0
 endloop
endfacet
facet normal -0.3214395344257355 0.9469301700592041 0.0
 outer loop
  vertex -217.2938995361328 45.88147735595703 66.0
  vertex -223.17745971679688 43.88427734375 66.0
  vertex -223.17745971679688 43.88427734375 81.0
 endloop
endfacet
facet normal -0.3214395344257355 0.9469301700592041 0.0
 outer loop
  vertex -217.2938995361328 45.88147735595703 66.0
  vertex -223.17745971679688 43.88427734375 81.0
  vertex -217.2938995361328 45.88147735595703 81.0
 endloop
endfacet
facet normal -0.4422883093357086 0.8968729376792908 0.0
 outer loop
  vertex -223.17745971679688 43.88427734375 66.0
  vertex -228.75 41.136207580566406 66.0
  vertex -228.75 41.136207580566406 81.0
 endloop
endfacet
facet normal -0.4422883093357086 0.8968729376792908 0.0
 outer loop
  vertex -223.17745971679688 43.88427734375 66.0
  vertex -228.75 41.136207580566406 81.0
  vertex -223.17745971679688 43.88427734375 81.0
 endloop
endfacet
facet normal -0.5555702447891235 0.8314695358276367 0.0
 outer loop
  vertex -228.75 41.136207580566406 66.0
  vertex -233.91616821289062 37.68428421020508 66.0
  vertex -233.91616821289062 37.68428421020508 81.0
 endloop
endfacet
facet normal -0.5555702447891235 0.8314695358276367 0.0
 outer loop
  vertex -228.75 41.136207580566406 66.0
  vertex -233.91616821289062 37.68428421020508 81.0
  vertex -228.75 41.136207580566406 81.0
 endloop
endfacet
facet normal -0.6593458652496338 0.7518397569656372 0.0
 outer loop
  vertex -233.91616821289062 37.68428421020508 66.0
  vertex -238.5875701904297 33.58757400512695 66.0
  vertex -238.5875701904297 33.58757400512695 81.0
 endloop
endfacet
facet normal -0.6593458652496338 0.7518397569656372 0.0
 outer loop
  vertex -233.91616821289062 37.68428421020508 66.0
  vertex -238.5875701904297 33.58757400512695 81.0
  vertex -233.91616821289062 37.68428421020508 81.0
 endloop
endfacet
facet normal -0.7518399953842163 0.6593455076217651 0.0
 outer loop
  vertex -238.5875701904297 33.58757400512695 66.0
  vertex -242.6842803955078 28.916168212890625 66.0
  vertex -242.6842803955078 28.916168212890625 81.0
 endloop
endfacet
facet normal -0.7518399953842163 0.6593455076217651 0.0
 outer loop
  vertex -238.5875701904297 33.58757400512695 66.0
  vertex -242.6842803955078 28.916168212890625 81.0
  vertex -238.5875701904297 33.58757400512695 81.0
 endloop
endfacet
facet normal -0.8314698934555054 0.5555698275566101 0.0
 outer loop
  vertex -242.6842803955078 28.916168212890625 66.0
  vertex -246.13619995117188 23.75 66.0
  vertex -246.13619995117188 23.75 81.0
 endloop
endfacet
facet normal -0.8314698934555054 0.5555698275566101 0.0
 outer loop
  vertex -242.6842803955078 28.916168212890625 66.0
  vertex -246.13619995117188 23.75 81.0
  vertex -242.6842803955078 28.916168212890625 81.0
 endloop
endfacet
facet normal -0.896872341632843 0.4422895610332489 0.0
 outer loop
  vertex -246.13619995117188 23.75 66.0
  vertex -248.88427734375 18.17746353149414 66.0
  vertex -248.88427734375 18.17746353149414 81.0
 endloop
endfacet
facet normal -0.896872341632843 0.4422895610332489 0.0
 outer loop
  vertex -246.13619995117188 23.75 66.0
  vertex -248.88427734375 18.17746353149414 81.0
  vertex -246.13619995117188 23.75 81.0
 endloop
endfacet
facet normal -0.9469305276870728 0.3214384913444519 0.0
 outer loop
  vertex -248.88427734375 18.17746353149414 66.0
  vertex -250.8814697265625 12.293904304504395 66.0
  vertex -250.8814697265625 12.293904304504395 81.0
 endloop
endfacet
facet normal -0.9469305276870728 0.3214384913444519 0.0
 outer loop
  vertex -248.88427734375 18.17746353149414 66.0
  vertex -250.8814697265625 12.293904304504395 81.0
  vertex -248.88427734375 18.17746353149414 81.0
 endloop
endfacet
facet normal -0.9807851314544678 0.19509094953536987 0.0
 outer loop
  vertex -250.8814697265625 12.293904304504395 66.0
  vertex -252.0936279296875 6.199994087219238 66.0
  vertex -252.0936279296875 6.199994087219238 81.0
 endloop
endfacet
facet normal -0.9807851314544678 0.19509094953536987 0.0
 outer loop
  vertex -250.8814697265625 12.293904304504395 66.0
  vertex -252.0936279296875 6.199994087219238 81.0
  vertex -250.8814697265625 12.293904304504395 81.0
 endloop
endfacet
facet normal -0.9978588223457336 0.06540361046791077 0.0
 outer loop
  vertex -252.0936279296875 6.199994087219238 66.0
  vertex -252.5 6.12065194534328e-14 66.0
  vertex -252.5 6.12065194534328e-14 81.0
 endloop
endfacet
facet normal -0.9978588223457336 0.06540361046791077 0.0
 outer loop
  vertex -252.0936279296875 6.199994087219238 66.0
  vertex -252.5 6.12065194534328e-14 81.0
  vertex -252.0936279296875 6.199994087219238 81.0
 endloop
endfacet
facet normal -0.0 0.0 1.0
 outer loop
  vertex -252.0936279296875 6.199994087219238 81.0
  vertex -252.5 5.538944614926454e-14 81.0
  vertex -250.8814697265625 12.293904304504395 81.0
 endloop
endfacet
facet normal -0.0 0.0 1.0
 outer loop
  vertex -252.5 5.538944614926454e-14 81.0
  vertex -252.0936279296875 -6.199994087219238 81.0
  vertex -250.8814697265625 12.293904304504395 81.0
 endloop
endfacet
facet normal -0.0 0.0 1.0
 outer loop
  vertex -250.8814697265625 12.293904304504395 81.0
  vertex -252.0936279296875 -6.199994087219238 81.0
  vertex -248.88427734375 18.17746353149414 81.0
 endloop
endfacet
facet normal -0.0 0.0 1.0
 outer loop
  vertex -252.0936279296875 -6.199994087219238 81.0
  vertex -250.8814697265625 -12.293904304504395 81.0
  vertex -248.88427734375 18.17746353149414 81.0
 endloop
endfacet
facet normal -0.0 0.0 1.0
 outer loop
  vertex -248.88427734375 18.17746353149414 81.0
  vertex -250.8814697265625 -12.293904304504395 81.0
  vertex -246.13619995117188 23.75 81.0
 endloop
endfacet
facet normal -0.0 0.0 1.0
 outer loop
  vertex -250.8814697265625 -12.293904304504395 81.0
  vertex -248.88427734375 -18.17746353149414 81.0
  vertex -246.13619995117188 23.75 81.0
 endloop
endfacet
facet normal -0.0 0.0 1.0
 outer loop
  vertex -246.13619995117188 23.75 81.0
  vertex -248.88427734375 -18.17746353149414 81.0
  vertex -242.6842803955078 28.916168212890625 81.0
 endloop
endfacet
facet normal -0.0 0.0 1.0
 outer loop
  vertex -248.88427734375 -18.17746353149414 81.0
  vertex -246.13619995117188 -23.75 81.0
  vertex -242.6842803955078 28.916168212890625 81.0
 endloop
endfacet
facet normal -0.0 0.0 1.0
 outer loop
  vertex -242.6842803955078 28.916168212890625 81.0
  vertex -246.13619995117188 -23.75 81.0
  vertex -238.5875701904297 33.58757400512695 81.0
 endloop
endfacet
facet normal -0.0 0.0 1.0
 outer loop
  vertex -246.13619995117188 -23.75 81.0
  vertex -242.6842803955078 -28.916168212890625 81.0
  vertex -238.5875701904297 33.58757400512695 81.0
 endloop
endfacet
facet normal -0.0 0.0 1.0
 outer loop
  vertex -238.5875701904297 33.58757400512695 81.0
  vertex -242.6842803955078 -28.916168212890625 81.0
  vertex -233.91616821289062 37.68428421020508 81.0
 endloop
endfacet
facet normal -0.0 0.0 1.0
 outer loop
  vertex -242.6842803955078 -28.916168212890625 81.0
  vertex -238.5875701904297 -33.58757400512695 81.0
  vertex -233.91616821289062 37.68428421020508 81.0
 endloop
endfacet
facet normal -0.0 0.0 1.0
 outer loop
  vertex -233.91616821289062 37.68428421020508 81.0
  vertex -238.5875701904297 -33.58757400512695 81.0
  vertex -228.75 41.136207580566406 81.0
 endloop
endfacet
facet normal -0.0 0.0 1.0
 outer loop
  vertex -238.5875701904297 -33.58757400512695 81.0
  vertex -233.91616821289062 -37.68428421020508 81.0
  vertex -228.75 41.136207580566406 81.0
 endloop
endfacet
facet normal -0.0 0.0 1.0
 outer loop
  vertex -228.75 41.136207580566406 81.0
  vertex -233.91616821289062 -37.68428421020508 81.0
  vertex -223.17745971679688 43.88427734375 81.0
 endloop
endfacet
facet normal -0.0 0.0 1.0
 outer loop
  vertex -233.91616821289062 -37.68428421020508 81.0
  vertex -228.75 -41.136207580566406 81.0
  vertex -223.17745971679688 43.88427734375 81.0
 endloop
endfacet
facet normal -0.0 0.0 1.0
 outer loop
  vertex -223.17745971679688 43.88427734375 81.0
  vertex -228.75 -41.136207580566406 81.0
  vertex -217.2938995361328 45.88147735595703 81.0
 endloop
endfacet
facet normal -0.0 0.0 1.0
 outer loop
  vertex -228.75 -41.136207580566406 81.0
  vertex -223.17745971679688 -43.88427734375 81.0
  vertex -217.2938995361328 45.88147735595703 81.0
 endloop
endfacet
facet normal -0.0 0.0 1.0
 outer loop
  vertex -217.2938995361328 45.88147735595703 81.0
  vertex -223.17745971679688 -43.88427734375 81.0
  vertex -211.1999969482422 47.093631744384766 81.0
 endloop
endfacet
facet normal -0.0 0.0 1.0
 outer loop
  vertex -223.17745971679688 -43.88427734375 81.0
  vertex -217.2938995361328 -45.88147735595703 81.0
  vertex -211.1999969482422 47.093631744384766 81.0
 endloop
endfacet
facet normal -0.0 0.0 1.0
 outer loop
  vertex -211.1999969482422 47.093631744384766 81.0
  vertex -217.2938995361328 -45.88147735595703 81.0
  vertex -205.0 47.5 81.0
 endloop
endfacet
facet normal -0.0 0.0 1.0
 outer loop
  vertex -217.2938995361328 -45.88147735595703 81.0
  vertex -211.1999969482422 -47.093631744384766 81.0
  vertex -205.0 47.5 81.0
 endloop
endfacet
facet normal 0.0 0.0 1.0
 outer loop
  vertex -205.0 47.5 81.0
  vertex -211.1999969482422 -47.093631744384766 81.0
  vertex -198.8000030517578 47.093631744384766 81.0
 endloop
endfacet
facet normal -0.0 0.0 1.0
 outer loop
  vertex -211.1999969482422 -47.093631744384766 81.0
  vertex -205.0 -47.5 81.0
  vertex -198.8000030517578 47.093631744384766 81.0
 endloop
endfacet
facet normal 0.0 0.0 1.0
 outer loop
  vertex -198.8000030517578 47.093631744384766 81.0
  vertex -205.0 -47.5 81.0
  vertex -192.7061004638672 45.88147735595703 81.0
 endloop
endfacet
facet normal 0.0 0.0 1.0
 outer loop
  vertex -205.0 -47.5 81.0
  vertex -198.8000030517578 -47.093631744384766 81.0
  vertex -192.7061004638672 45.88147735595703 81.0
 endloop
endfacet
facet normal 0.0 0.0 1.0
 outer loop
  vertex -192.7061004638672 45.88147735595703 81.0
  vertex -198.8000030517578 -47.093631744384766 81.0
  vertex -186.82254028320312 43.88427734375 81.0
 endloop
endfacet
facet normal 0.0 0.0 1.0
 outer loop
  vertex -198.8000030517578 -47.093631744384766 81.0
  vertex -192.7061004638672 -45.88147735595703 81.0
  vertex -186.82254028320312 43.88427734375 81.0
 endloop
endfacet
facet normal 0.0 0.0 1.0
 outer loop
  vertex -186.82254028320312 43.88427734375 81.0
  vertex -192.7061004638672 -45.88147735595703 81.0
  vertex -181.25 41.136207580566406 81.0
 endloop
endfacet
facet normal 0.0 0.0 1.0
 outer loop
  vertex -192.7061004638672 -45.88147735595703 81.0
  vertex -186.82254028320312 -43.88427734375 81.0
  vertex -181.25 41.136207580566406 81.0
 endloop
endfacet
facet normal 0.0 0.0 1.0
 outer loop
  vertex -181.25 41.136207580566406 81.0
  vertex -186.82254028320312 -43.88427734375 81.0
  vertex -176.08383178710938 37.68428421020508 81.0
 endloop
endfacet
facet normal 0.0 0.0 1.0
 outer loop
  vertex -186.82254028320312 -43.88427734375 81.0
  vertex -181.25 -41.136207580566406 81.0
  vertex -176.08383178710938 37.68428421020508 81.0
 endloop
endfacet
facet normal 0.0 0.0 1.0
 outer loop
  vertex -176.08383178710938 37.68428421020508 81.0
  vertex -181.25 -41.136207580566406 81.0
  vertex -171.4124298095703 33.58757400512695 81.0
 endloop
endfacet
facet normal 0.0 0.0 1.0
 outer loop
  vertex -181.25 -41.136207580566406 81.0
  vertex -176.08383178710938 -37.68428421020508 81.0
  vertex -171.4124298095703 33.58757400512695 81.0
 endloop
endfacet
facet normal 0.0 0.0 1.0
 outer loop
  vertex -171.4124298095703 33.58757400512695 81.0
  vertex -176.08383178710938 -37.68428421020508 81.0
  vertex -167.3157196044922 28.916168212890625 81.0
 endloop
endfacet
facet normal 0.0 0.0 1.0
 outer loop
  vertex -176.08383178710938 -37.68428421020508 81.0
  vertex -171.4124298095703 -33.58757400512695 81.0
  vertex -167.3157196044922 28.916168212890625 81.0
 endloop
endfacet
facet normal 0.0 0.0 1.0
 outer loop
  vertex -167.3157196044922 28.916168212890625 81.0
  vertex -171.4124298095703 -33.58757400512695 81.0
  vertex -163.86380004882812 23.75 81.0
 endloop
endfacet
facet normal 0.0 0.0 1.0
 outer loop
  vertex -171.4124298095703 -33.58757400512695 81.0
  vertex -167.3157196044922 -28.916168212890625 81.0
  vertex -163.86380004882812 23.75 81.0
 endloop
endfacet
facet normal 0.0 0.0 1.0
 outer loop
  vertex -163.86380004882812 23.75 81.0
  vertex -167.3157196044922 -28.916168212890625 81.0
  vertex -161.11572265625 18.17746353149414 81.0
 endloop
endfacet
facet normal 0.0 0.0 1.0
 outer loop
  vertex -167.3157196044922 -28.916168212890625 81.0
  vertex -163.86380004882812 -23.75 81.0
  vertex -161.11572265625 18.17746353149414 81.0
 endloop
endfacet
facet normal 0.0 0.0 1.0
 outer loop
  vertex -161.11572265625 18.17746353149414 81.0
  vertex -163.86380004882812 -23.75 81.0
  vertex -159.1185302734375 12.293904304504395 81.0
 endloop
endfacet
facet normal 0.0 0.0 1.0
 outer loop
  vertex -163.86380004882812 -23.75 81.0
  vertex -161.11572265625 -18.17746353149414 81.0
  vertex -159.1185302734375 12.293904304504395 81.0
 endloop
endfacet
facet normal 0.0 0.0 1.0
 outer loop
  vertex -159.1185302734375 12.293904304504395 81.0
  vertex -161.11572265625 -18.17746353149414 81.0
  vertex -157.9063720703125 6.199994087219238 81.0
 endloop
endfacet
facet normal 0.0 0.0 1.0
 outer loop
  vertex -161.11572265625 -18.17746353149414 81.0
  vertex -159.1185302734375 -12.293904304504395 81.0
  vertex -157.9063720703125 6.199994087219238 81.0
 endloop
endfacet
facet normal 0.0 0.0 1.0
 outer loop
  vertex -157.9063720703125 6.199994087219238 81.0
  vertex -159.1185302734375 -12.293904304504395 81.0
  vertex -157.5 -1.0067316073933841e-14 81.0
 endloop
endfacet
facet normal 0.0 0.0 1.0
 outer loop
  vertex -159.1185302734375 -12.293904304504395 81.0
  vertex -157.9063720703125 -6.199994087219238 81.0
  vertex -157.5 -1.0067316073933841e-14 81.0
 endloop
endfacet
facet normal 0.0 0.0 -1.0
 outer loop
  vertex -252.0936279296875 -6.199994087219238 66.0
  vertex -252.5 5.538944614926454e-14 66.0
  vertex -250.8814697265625 -12.293904304504395 66.0
 endloop
endfacet
facet normal 0.0 0.0 -1.0
 outer loop
  vertex -252.5 5.538944614926454e-14 66.0
  vertex -252.0936279296875 6.199994087219238 66.0
  vertex -250.8814697265625 -12.293904304504395 66.0
 endloop
endfacet
facet normal 0.0 0.0 -1.0
 outer loop
  vertex -250.8814697265625 -12.293904304504395 66.0
  vertex -252.0936279296875 6.199994087219238 66.0
  vertex -248.88427734375 -18.17746353149414 66.0
 endloop
endfacet
facet normal 0.0 0.0 -1.0
 outer loop
  vertex -252.0936279296875 6.199994087219238 66.0
  vertex -250.8814697265625 12.293904304504395 66.0
  vertex -248.88427734375 -18.17746353149414 66.0
 endloop
endfacet
facet normal 0.0 0.0 -1.0
 outer loop
  vertex -248.88427734375 -18.17746353149414 66.0
  vertex -250.8814697265625 12.293904304504395 66.0
  vertex -246.13619995117188 -23.75 66.0
 endloop
endfacet
facet normal 0.0 0.0 -1.0
 outer loop
  vertex -250.8814697265625 12.293904304504395 66.0
  vertex -248.88427734375 18.17746353149414 66.0
  vertex -246.13619995117188 -23.75 66.0
 endloop
endfacet
facet normal 0.0 0.0 -1.0
 outer loop
  vertex -246.13619995117188 -23.75 66.0
  vertex -248.88427734375 18.17746353149414 66.0
  vertex -242.6842803955078 -28.916168212890625 66.0
 endloop
endfacet
facet normal 0.0 0.0 -1.0
 outer loop
  vertex -248.88427734375 18.17746353149414 66.0
  vertex -246.13619995117188 23.75 66.0
  vertex -242.6842803955078 -28.916168212890625 66.0
 endloop
endfacet
facet normal 0.0 0.0 -1.0
 outer loop
  vertex -242.6842803955078 -28.916168212890625 66.0
  vertex -246.13619995117188 23.75 66.0
  vertex -238.5875701904297 -33.58757400512695 66.0
 endloop
endfacet
facet normal 0.0 0.0 -1.0
 outer loop
  vertex -246.13619995117188 23.75 66.0
  vertex -242.6842803955078 28.916168212890625 66.0
  vertex -238.5875701904297 -33.58757400512695 66.0
 endloop
endfacet
facet normal 0.0 0.0 -1.0
 outer loop
  vertex -238.5875701904297 -33.58757400512695 66.0
  vertex -242.6842803955078 28.916168212890625 66.0
  vertex -233.91616821289062 -37.68428421020508 66.0
 endloop
endfacet
facet normal 0.0 0.0 -1.0
 outer loop
  vertex -242.6842803955078 28.916168212890625 66.0
  vertex -238.5875701904297 33.58757400512695 66.0
  vertex -233.91616821289062 -37.68428421020508 66.0
 endloop
endfacet
facet normal 0.0 0.0 -1.0
 outer loop
  vertex -233.91616821289062 -37.68428421020508 66.0
  vertex -238.5875701904297 33.58757400512695 66.0
  vertex -228.75 -41.136207580566406 66.0
 endloop
endfacet
facet normal 0.0 0.0 -1.0
 outer loop
  vertex -238.5875701904297 33.58757400512695 66.0
  vertex -233.91616821289062 37.68428421020508 66.0
  vertex -228.75 -41.136207580566406 66.0
 endloop
endfacet
facet normal 0.0 0.0 -1.0
 outer loop
  vertex -228.75 -41.136207580566406 66.0
  vertex -233.91616821289062 37.68428421020508 66.0
  vertex -223.17745971679688 -43.88427734375 66.0
 endloop
endfacet
facet normal 0.0 0.0 -1.0
 outer loop
  vertex -233.91616821289062 37.68428421020508 66.0
  vertex -228.75 41.136207580566406 66.0
  vertex -223.17745971679688 -43.88427734375 66.0
 endloop
endfacet
facet normal 0.0 0.0 -1.0
 outer loop
  vertex -223.17745971679688 -43.88427734375 66.0
  vertex -228.75 41.136207580566406 66.0
  vertex -217.2938995361328 -45.88147735595703 66.0
 endloop
endfacet
facet normal 0.0 0.0 -1.0
 outer loop
  vertex -228.75 41.136207580566406 66.0
  vertex -223.17745971679688 43.88427734375 66.0
  vertex -217.2938995361328 -45.88147735595703 66.0
 endloop
endfacet
facet normal 0.0 0.0 -1.0
 outer loop
  vertex -217.2938995361328 -45.88147735595703 66.0
  vertex -223.17745971679688 43.88427734375 66.0
  vertex -211.1999969482422 -47.093631744384766 66.0
 endloop
endfacet
facet normal 0.0 0.0 -1.0
 outer loop
  vertex -223.17745971679688 43.88427734375 66.0
  vertex -217.2938995361328 45.88147735595703 66.0
  vertex -211.1999969482422 -47.093631744384766 66.0
 endloop
endfacet
facet normal 0.0 0.0 -1.0
 outer loop
  vertex -211.1999969482422 -47.093631744384766 66.0
  vertex -217.2938995361328 45.88147735595703 66.0
  vertex -205.0 -47.5 66.0
 endloop
endfacet
facet normal 0.0 0.0 -1.0
 outer loop
  vertex -217.2938995361328 45.88147735595703 66.0
  vertex -211.1999969482422 47.093631744384766 66.0
  vertex -205.0 -47.5 66.0
 endloop
endfacet
facet normal 0.0 0.0 -1.0
 outer loop
  vertex -205.0 -47.5 66.0
  vertex -211.1999969482422 47.093631744384766 66.0
  vertex -198.8000030517578 -47.093631744384766 66.0
 endloop
endfacet
facet normal 0.0 0.0 -1.0
 outer loop
  vertex -211.1999969482422 47.093631744384766 66.0
  vertex -205.0 47.5 66.0
  vertex -198.8000030517578 -47.093631744384766 66.0
 endloop
endfacet
facet normal 0.0 0.0 -1.0
 outer loop
  vertex -198.8000030517578 -47.093631744384766 66.0
  vertex -205.0 47.5 66.0
  vertex -192.7061004638672 -45.88147735595703 66.0
 endloop
endfacet
facet normal 0.0 0.0 -1.0
 outer loop
  vertex -205.0 47.5 66.0
  vertex -198.8000030517578 47.093631744384766 66.0
  vertex -192.7061004638672 -45.88147735595703 66.0
 endloop
endfacet
facet normal 0.0 0.0 -1.0
 outer loop
  vertex -192.7061004638672 -45.88147735595703 66.0
  vertex -198.8000030517578 47.093631744384766 66.0
  vertex -186.82254028320312 -43.88427734375 66.0
 endloop
endfacet
facet normal 0.0 0.0 -1.0
 outer loop
  vertex -198.8000030517578 47.093631744384766 66.0
  vertex -192.7061004638672 45.88147735595703 66.0
  vertex -186.82254028320312 -43.88427734375 66.0
 endloop
endfacet
facet normal 0.0 0.0 -1.0
 outer loop
  vertex -186.82254028320312 -43.88427734375 66.0
  vertex -192.7061004638672 45.88147735595703 66.0
  vertex -181.25 -41.136207580566406 66.0
 endloop
endfacet
facet normal 0.0 0.0 -1.0
 outer loop
  vertex -192.7061004638672 45.88147735595703 66.0
  vertex -186.82254028320312 43.88427734375 66.0
  vertex -181.25 -41.136207580566406 66.0
 endloop
endfacet
facet normal 0.0 0.0 -1.0
 outer loop
  vertex -181.25 -41.136207580566406 66.0
  vertex -186.82254028320312 43.88427734375 66.0
  vertex -176.08383178710938 -37.68428421020508 66.0
 endloop
endfacet
facet normal 0.0 0.0 -1.0
 outer loop
  vertex -186.82254028320312 43.88427734375 66.0
  vertex -181.25 41.136207580566406 66.0
  vertex -176.08383178710938 -37.68428421020508 66.0
 endloop
endfacet
facet normal 0.0 0.0 -1.0
 outer loop
  vertex -176.08383178710938 -37.68428421020508 66.0
  vertex -181.25 41.136207580566406 66.0
  vertex -171.4124298095703 -33.58757400512695 66.0
 endloop
endfacet
facet normal 0.0 0.0 -1.0
 outer loop
  vertex -181.25 41.136207580566406 66.0
  vertex -176.08383178710938 37.68428421020508 66.0
  vertex -171.4124298095703 -33.58757400512695 66.0
 endloop
endfacet
facet normal 0.0 0.0 -1.0
 outer loop
  vertex -171.4124298095703 -33.58757400512695 66.0
  vertex -176.08383178710938 37.68428421020508 66.0
  vertex -167.3157196044922 -28.916168212890625 66.0
 endloop
endfacet
facet normal 0.0 0.0 -1.0
 outer loop
  vertex -176.08383178710938 37.68428421020508 66.0
  vertex -171.4124298095703 33.58757400512695 66.0
  vertex -167.3157196044922 -28.916168212890625 66.0
 endloop
endfacet
facet normal 0.0 0.0 -1.0
 outer loop
  vertex -167.3157196044922 -28.916168212890625 66.0
  vertex -171.4124298095703 33.58757400512695 66.0
  vertex -163.86380004882812 -23.75 66.0
 endloop
endfacet
facet normal 0.0 0.0 -1.0
 outer loop
  vertex -171.4124298095703 33.58757400512695 66.0
  vertex -167.3157196044922 28.916168212890625 66.0
  vertex -163.86380004882812 -23.75 66.0
 endloop
endfacet
facet normal 0.0 0.0 -1.0
 outer loop
  vertex -163.86380004882812 -23.75 66.0
  vertex -167.3157196044922 28.916168212890625 66.0
  vertex -161.11572265625 -18.17746353149414 66.0
 endloop
endfacet
facet normal 0.0 0.0 -1.0
 outer loop
  vertex -167.3157196044922 28.916168212890625 66.0
  vertex -163.86380004882812 23.75 66.0
  vertex -161.11572265625 -18.17746353149414 66.0
 endloop
endfacet
facet normal 0.0 0.0 -1.0
 outer loop
  vertex -161.11572265625 -18.17746353149414 66.0
  vertex -163.86380004882812 23.75 66.0
  vertex -159.1185302734375 -12.293904304504395 66.0
 endloop
endfacet
facet normal 0.0 0.0 -1.0
 outer loop
  vertex -163.86380004882812 23.75 66.0
  vertex -161.11572265625 18.17746353149414 66.0
  vertex -159.1185302734375 -12.293904304504395 66.0
 endloop
endfacet
facet normal 0.0 0.0 -1.0
 outer loop
  vertex -159.1185302734375 -12.293904304504395 66.0
  vertex -161.11572265625 18.17746353149414 66.0
  vertex -157.9063720703125 -6.199994087219238 66.0
 endloop
endfacet
facet normal 0.0 0.0 -1.0
 outer loop
  vertex -161.11572265625 18.17746353149414 66.0
  vertex -159.1185302734375 12.293904304504395 66.0
  vertex -157.9063720703125 -6.199994087219238 66.0
 endloop
endfacet
facet normal 0.0 0.0 -1.0
 outer loop
  vertex -157.9063720703125 -6.199994087219238 66.0
  vertex -159.1185302734375 12.293904304504395 66.0
  vertex -157.5 -1.0067316073933841e-14 66.0
 endloop
endfacet
facet normal 0.0 0.0 -1.0
 outer loop
  vertex -159.1185302734375 12.293904304504395 66.0
  vertex -157.9063720703125 6.199994087219238 66.0
  vertex -157.5 -1.0067316073933841e-14 66.0
 endloop
endfacet
endsolid
