solid
facet normal -0.0 1.0 0.0
 outer loop
  vertex -290.0 20.0 7.5
  vertex -80.0 20.0 7.5
  vertex -80.0 20.0 2.5
 endloop
endfacet
facet normal 0.0 1.0 0.0
 outer loop
  vertex -290.0 20.0 7.5
  vertex -80.0 20.0 2.5
  vertex -290.0 20.0 2.5
 endloop
endfacet
facet normal 0.0 -0.0 1.0
 outer loop
  vertex -80.0 -20.0 7.5
  vertex -80.0 20.0 7.5
  vertex -290.0 -20.0 7.5
 endloop
endfacet
facet normal 0.0 0.0 1.0
 outer loop
  vertex -80.0 20.0 7.5
  vertex -290.0 20.0 7.5
  vertex -290.0 -20.0 7.5
 endloop
endfacet
facet normal 0.0 -0.0 1.0
 outer loop
  vertex -290.0 -20.0 7.5
  vertex -290.0 20.0 7.5
  vertex -292.358642578125 -29.268268585205078 7.5
 endloop
endfacet
facet normal 0.0 0.0 1.0
 outer loop
  vertex -290.0 20.0 7.5
  vertex -292.358642578125 29.268268585205078 7.5
  vertex -292.358642578125 -29.268268585205078 7.5
 endloop
endfacet
facet normal 0.0 -0.0 1.0
 outer loop
  vertex -292.358642578125 -29.268268585205078 7.5
  vertex -292.358642578125 29.268268585205078 7.5
  vertex -295.5918273925781 -38.268836975097656 7.5
 endloop
endfacet
facet normal 0.0 0.0 1.0
 outer loop
  vertex -292.358642578125 29.268268585205078 7.5
  vertex -295.5918273925781 38.268836975097656 7.5
  vertex -295.5918273925781 -38.268836975097656 7.5
 endloop
endfacet
facet normal 0.0 -0.0 1.0
 outer loop
  vertex -295.5918273925781 -38.268836975097656 7.5
  vertex -295.5918273925781 38.268836975097656 7.5
  vertex -299.6700744628906 -46.91938781738281 7.5
 endloop
endfacet
facet normal 0.0 0.0 1.0
 outer loop
  vertex -295.5918273925781 38.268836975097656 7.5
  vertex -299.6700744628906 46.91938781738281 7.5
  vertex -299.6700744628906 -46.91938781738281 7.5
 endloop
endfacet
facet normal 0.0 -0.0 1.0
 outer loop
  vertex -299.6700744628906 -46.91938781738281 7.5
  vertex -299.6700744628906 46.91938781738281 7.5
  vertex -304.5559997558594 -55.14079284667969 7.5
 endloop
endfacet
facet normal 0.0 0.0 1.0
 outer loop
  vertex -299.6700744628906 46.91938781738281 7.5
  vertex -304.5559997558594 55.14079284667969 7.5
  vertex -304.5559997558594 -55.14079284667969 7.5
 endloop
endfacet
facet normal 0.0 -0.0 1.0
 outer loop
  vertex -304.5559997558594 -55.14079284667969 7.5
  vertex -304.5559997558594 55.14079284667969 7.5
  vertex -310.2049865722656 -62.85785675048828 7.5
 endloop
endfacet
facet normal 0.0 0.0 1.0
 outer loop
  vertex -304.5559997558594 55.14079284667969 7.5
  vertex -310.2049865722656 62.85785675048828 7.5
  vertex -310.2049865722656 -62.85785675048828 7.5
 endloop
endfacet
facet normal 0.0 -0.0 1.0
 outer loop
  vertex -310.2049865722656 -62.85785675048828 7.5
  vertex -310.2049865722656 62.85785675048828 7.5
  vertex -316.5653076171875 -70.0 7.5
 endloop
endfacet
facet normal 0.0 0.0 1.0
 outer loop
  vertex -310.2049865722656 62.85785675048828 7.5
  vertex -316.5653076171875 70.0 7.5
  vertex -316.5653076171875 -70.0 7.5
 endloop
endfacet
facet normal 0.0 0.0 1.0
 outer loop
  vertex -316.5653076171875 -70.0 7.5
  vertex -334.8041687011719 -25.0 7.5
  vertex -459.39385986328125 -70.0 7.5
 endloop
endfacet
facet normal 0.0 0.0 1.0
 outer loop
  vertex -334.8041687011719 -25.0 7.5
  vertex -484.8041687011719 -25.0 7.5
  vertex -459.39385986328125 -70.0 7.5
 endloop
endfacet
facet normal 0.0 0.0 1.0
 outer loop
  vertex -459.39385986328125 -70.0 7.5
  vertex -484.8041687011719 -25.0 7.5
  vertex -465.21368408203125 -63.52081298828125 7.5
 endloop
endfacet
facet normal 0.0 0.0 1.0
 outer loop
  vertex -484.8041687011719 -25.0 7.5
  vertex -482.26171875 -33.329833984375 7.5
  vertex -465.21368408203125 -63.52081298828125 7.5
 endloop
endfacet
facet normal 0.0 0.0 1.0
 outer loop
  vertex -465.21368408203125 -63.52081298828125 7.5
  vertex -482.26171875 -33.329833984375 7.5
  vertex -470.44769287109375 -56.559818267822266 7.5
 endloop
endfacet
facet normal 0.0 0.0 1.0
 outer loop
  vertex -482.26171875 -33.329833984375 7.5
  vertex -479.004150390625 -41.4068603515625 7.5
  vertex -470.44769287109375 -56.559818267822266 7.5
 endloop
endfacet
facet normal 0.0 0.0 1.0
 outer loop
  vertex -470.44769287109375 -56.559818267822266 7.5
  vertex -479.004150390625 -41.4068603515625 7.5
  vertex -475.05615234375 -49.16981506347656 7.5
 endloop
endfacet
facet normal -0.0 0.0 1.0
 outer loop
  vertex -334.8041687011719 -25.0 7.5
  vertex -316.5653076171875 -70.0 7.5
  vertex -334.8041687011719 25.0 7.5
 endloop
endfacet
facet normal 0.0 -0.0 1.0
 outer loop
  vertex -316.5653076171875 -70.0 7.5
  vertex -316.5653076171875 70.0 7.5
  vertex -334.8041687011719 25.0 7.5
 endloop
endfacet
facet normal 0.0 -0.0 1.0
 outer loop
  vertex -334.8041687011719 25.0 7.5
  vertex -316.5653076171875 70.0 7.5
  vertex -484.8041687011719 25.0 7.5
 endloop
endfacet
facet normal 0.0 0.0 1.0
 outer loop
  vertex -316.5653076171875 70.0 7.5
  vertex -459.39385986328125 70.0 7.5
  vertex -484.8041687011719 25.0 7.5
 endloop
endfacet
facet normal 0.0 0.0 1.0
 outer loop
  vertex -484.8041687011719 25.0 7.5
  vertex -459.39385986328125 70.0 7.5
  vertex -482.26171875 33.329833984375 7.5
 endloop
endfacet
facet normal 0.0 0.0 1.0
 outer loop
  vertex -459.39385986328125 70.0 7.5
  vertex -465.21368408203125 63.52081298828125 7.5
  vertex -482.26171875 33.329833984375 7.5
 endloop
endfacet
facet normal 0.0 0.0 1.0
 outer loop
  vertex -482.26171875 33.329833984375 7.5
  vertex -465.21368408203125 63.52081298828125 7.5
  vertex -479.004150390625 41.4068603515625 7.5
 endloop
endfacet
facet normal 0.0 0.0 1.0
 outer loop
  vertex -465.21368408203125 63.52081298828125 7.5
  vertex -470.44769287109375 56.559818267822266 7.5
  vertex -479.004150390625 41.4068603515625 7.5
 endloop
endfacet
facet normal 0.0 0.0 1.0
 outer loop
  vertex -479.004150390625 41.4068603515625 7.5
  vertex -470.44769287109375 56.559818267822266 7.5
  vertex -475.05615234375 49.16981506347656 7.5
 endloop
endfacet
facet normal 0.0 -1.0 0.0
 outer loop
  vertex -290.0 -20.0 2.5
  vertex -80.0 -20.0 2.5
  vertex -80.0 -20.0 7.5
 endloop
endfacet
facet normal 0.0 -1.0 0.0
 outer loop
  vertex -290.0 -20.0 2.5
  vertex -80.0 -20.0 7.5
  vertex -290.0 -20.0 7.5
 endloop
endfacet
facet normal -0.0 -0.0 -1.0
 outer loop
  vertex -80.0 20.0 2.5
  vertex -80.0 -20.0 2.5
  vertex -290.0 20.0 2.5
 endloop
endfacet
facet normal 0.0 0.0 -1.0
 outer loop
  vertex -80.0 -20.0 2.5
  vertex -290.0 -20.0 2.5
  vertex -290.0 20.0 2.5
 endloop
endfacet
facet normal -0.0 -0.0 -1.0
 outer loop
  vertex -290.0 20.0 2.5
  vertex -290.0 -20.0 2.5
  vertex -292.358642578125 29.268268585205078 2.5
 endloop
endfacet
facet normal -0.0 0.0 -1.0
 outer loop
  vertex -290.0 -20.0 2.5
  vertex -292.358642578125 -29.268268585205078 2.5
  vertex -292.358642578125 29.268268585205078 2.5
 endloop
endfacet
facet normal -0.0 -0.0 -1.0
 outer loop
  vertex -292.358642578125 29.268268585205078 2.5
  vertex -292.358642578125 -29.268268585205078 2.5
  vertex -295.5918273925781 38.268836975097656 2.5
 endloop
endfacet
facet normal -0.0 0.0 -1.0
 outer loop
  vertex -292.358642578125 -29.268268585205078 2.5
  vertex -295.5918273925781 -38.268836975097656 2.5
  vertex -295.5918273925781 38.268836975097656 2.5
 endloop
endfacet
facet normal -0.0 -0.0 -1.0
 outer loop
  vertex -295.5918273925781 38.268836975097656 2.5
  vertex -295.5918273925781 -38.268836975097656 2.5
  vertex -299.6700744628906 46.91938781738281 2.5
 endloop
endfacet
facet normal -0.0 0.0 -1.0
 outer loop
  vertex -295.5918273925781 -38.268836975097656 2.5
  vertex -299.6700744628906 -46.91938781738281 2.5
  vertex -299.6700744628906 46.91938781738281 2.5
 endloop
endfacet
facet normal -0.0 -0.0 -1.0
 outer loop
  vertex -299.6700744628906 46.91938781738281 2.5
  vertex -299.6700744628906 -46.91938781738281 2.5
  vertex -304.5559997558594 55.14079284667969 2.5
 endloop
endfacet
facet normal -0.0 0.0 -1.0
 outer loop
  vertex -299.6700744628906 -46.91938781738281 2.5
  vertex -304.5559997558594 -55.14079284667969 2.5
  vertex -304.5559997558594 55.14079284667969 2.5
 endloop
endfacet
facet normal -0.0 -0.0 -1.0
 outer loop
  vertex -304.5559997558594 55.14079284667969 2.5
  vertex -304.5559997558594 -55.14079284667969 2.5
  vertex -310.2049865722656 62.85785675048828 2.5
 endloop
endfacet
facet normal -0.0 0.0 -1.0
 outer loop
  vertex -304.5559997558594 -55.14079284667969 2.5
  vertex -310.2049865722656 -62.85785675048828 2.5
  vertex -310.2049865722656 62.85785675048828 2.5
 endloop
endfacet
facet normal -0.0 -0.0 -1.0
 outer loop
  vertex -310.2049865722656 62.85785675048828 2.5
  vertex -310.2049865722656 -62.85785675048828 2.5
  vertex -316.5653076171875 70.0 2.5
 endloop
endfacet
facet normal -0.0 0.0 -1.0
 outer loop
  vertex -310.2049865722656 -62.85785675048828 2.5
  vertex -316.5653076171875 -70.0 2.5
  vertex -316.5653076171875 70.0 2.5
 endloop
endfacet
facet normal -0.0 0.0 -1.0
 outer loop
  vertex -316.5653076171875 70.0 2.5
  vertex -334.8041687011719 25.0 2.5
  vertex -459.39385986328125 70.0 2.5
 endloop
endfacet
facet normal 0.0 0.0 -1.0
 outer loop
  vertex -334.8041687011719 25.0 2.5
  vertex -484.8041687011719 25.0 2.5
  vertex -459.39385986328125 70.0 2.5
 endloop
endfacet
facet normal 0.0 0.0 -1.0
 outer loop
  vertex -459.39385986328125 70.0 2.5
  vertex -484.8041687011719 25.0 2.5
  vertex -465.21368408203125 63.52081298828125 2.5
 endloop
endfacet
facet normal 0.0 0.0 -1.0
 outer loop
  vertex -484.8041687011719 25.0 2.5
  vertex -482.26171875 33.329833984375 2.5
  vertex -465.21368408203125 63.52081298828125 2.5
 endloop
endfacet
facet normal 0.0 0.0 -1.0
 outer loop
  vertex -465.21368408203125 63.52081298828125 2.5
  vertex -482.26171875 33.329833984375 2.5
  vertex -470.44769287109375 56.559818267822266 2.5
 endloop
endfacet
facet normal 0.0 0.0 -1.0
 outer loop
  vertex -482.26171875 33.329833984375 2.5
  vertex -479.004150390625 41.4068603515625 2.5
  vertex -470.44769287109375 56.559818267822266 2.5
 endloop
endfacet
facet normal 0.0 0.0 -1.0
 outer loop
  vertex -470.44769287109375 56.559818267822266 2.5
  vertex -479.004150390625 41.4068603515625 2.5
  vertex -475.05615234375 49.16981506347656 2.5
 endloop
endfacet
facet normal 0.0 0.0 -1.0
 outer loop
  vertex -334.8041687011719 25.0 2.5
  vertex -316.5653076171875 70.0 2.5
  vertex -334.8041687011719 -25.0 2.5
 endloop
endfacet
facet normal 0.0 -0.0 -1.0
 outer loop
  vertex -316.5653076171875 70.0 2.5
  vertex -316.5653076171875 -70.0 2.5
  vertex -334.8041687011719 -25.0 2.5
 endloop
endfacet
facet normal -0.0 -0.0 -1.0
 outer loop
  vertex -334.8041687011719 -25.0 2.5
  vertex -316.5653076171875 -70.0 2.5
  vertex -484.8041687011719 -25.0 2.5
 endloop
endfacet
facet normal 0.0 0.0 -1.0
 outer loop
  vertex -316.5653076171875 -70.0 2.5
  vertex -459.39385986328125 -70.0 2.5
  vertex -484.8041687011719 -25.0 2.5
 endloop
endfacet
facet normal 0.0 0.0 -1.0
 outer loop
  vertex -484.8041687011719 -25.0 2.5
  vertex -459.39385986328125 -70.0 2.5
  vertex -482.26171875 -33.329833984375 2.5
 endloop
endfacet
facet normal 0.0 0.0 -1.0
 outer loop
  vertex -459.39385986328125 -70.0 2.5
  vertex -465.21368408203125 -63.52081298828125 2.5
  vertex -482.26171875 -33.329833984375 2.5
 endloop
endfacet
facet normal 0.0 0.0 -1.0
 outer loop
  vertex -482.26171875 -33.329833984375 2.5
  vertex -465.21368408203125 -63.52081298828125 2.5
  vertex -479.004150390625 -41.4068603515625 2.5
 endloop
endfacet
facet normal 0.0 0.0 -1.0
 outer loop
  vertex -465.21368408203125 -63.52081298828125 2.5
  vertex -470.44769287109375 -56.559818267822266 2.5
  vertex -479.004150390625 -41.4068603515625 2.5
 endloop
endfacet
facet normal 0.0 0.0 -1.0
 outer loop
  vertex -479.004150390625 -41.4068603515625 2.5
  vertex -470.44769287109375 -56.559818267822266 2.5
  vertex -475.05615234375 -49.16981506347656 2.5
 endloop
endfacet
facet normal -1.0 -0.0 0.0
 outer loop
  vertex -80.0 30.0 10.0
  vertex -80.0 20.0 7.5
  vertex -80.0 -30.0 10.0
 endloop
endfacet
facet normal -1.0 0.0 0.0
 outer loop
  vertex -80.0 20.0 7.5
  vertex -80.0 -20.0 7.5
  vertex -80.0 -30.0 10.0
 endloop
endfacet
facet normal -1.0 0.0 0.0
 outer loop
  vertex -80.0 -30.0 10.0
  vertex -80.0 -20.0 7.5
  vertex -80.0 -30.0 0.0
 endloop
endfacet
facet normal -1.0 0.0 -0.0
 outer loop
  vertex -80.0 -20.0 7.5
  vertex -80.0 -20.0 2.5
  vertex -80.0 -30.0 0.0
 endloop
endfacet
facet normal -1.0 0.0 0.0
 outer loop
  vertex -80.0 -30.0 0.0
  vertex -80.0 -20.0 2.5
  vertex -80.0 30.0 0.0
 endloop
endfacet
facet normal -1.0 0.0 0.0
 outer loop
  vertex -80.0 -20.0 2.5
  vertex -80.0 20.0 2.5
  vertex -80.0 30.0 0.0
 endloop
endfacet
facet normal -1.0 0.0 0.0
 outer loop
  vertex -80.0 30.0 0.0
  vertex -80.0 20.0 2.5
  vertex -80.0 30.0 10.0
 endloop
endfacet
facet normal -1.0 0.0 0.0
 outer loop
  vertex -80.0 20.0 2.5
  vertex -80.0 20.0 7.5
  vertex -80.0 30.0 10.0
 endloop
endfacet
facet normal 0.9691110253334045 0.24662497639656067 0.0
 outer loop
  vertex -290.0 20.0 2.5
  vertex -292.358642578125 29.268268585205078 2.5
  vertex -292.358642578125 29.268268585205078 7.5
 endloop
endfacet
facet normal 0.9691110253334045 0.24662497639656067 -0.0
 outer loop
  vertex -290.0 20.0 2.5
  vertex -292.358642578125 29.268268585205078 7.5
  vertex -290.0 20.0 7.5
 endloop
endfacet
facet normal 0.9411211013793945 0.3380695879459381 0.0
 outer loop
  vertex -292.358642578125 29.268268585205078 2.5
  vertex -295.5918273925781 38.268836975097656 2.5
  vertex -295.5918273925781 38.268836975097656 7.5
 endloop
endfacet
facet normal 0.9411211013793945 0.3380695879459381 -0.0
 outer loop
  vertex -292.358642578125 29.268268585205078 2.5
  vertex -295.5918273925781 38.268836975097656 7.5
  vertex -292.358642578125 29.268268585205078 7.5
 endloop
endfacet
facet normal 0.9045203924179077 0.4264303743839264 0.0
 outer loop
  vertex -295.5918273925781 38.268836975097656 2.5
  vertex -299.6700744628906 46.91938781738281 2.5
  vertex -299.6700744628906 46.91938781738281 7.5
 endloop
endfacet
facet normal 0.9045203924179077 0.4264303743839264 -0.0
 outer loop
  vertex -295.5918273925781 38.268836975097656 2.5
  vertex -299.6700744628906 46.91938781738281 7.5
  vertex -295.5918273925781 38.268836975097656 7.5
 endloop
endfacet
facet normal 0.859649658203125 0.5108839273452759 0.0
 outer loop
  vertex -299.6700744628906 46.91938781738281 2.5
  vertex -304.5559997558594 55.14079284667969 2.5
  vertex -304.5559997558594 55.14079284667969 7.5
 endloop
endfacet
facet normal 0.859649658203125 0.5108839273452759 -0.0
 outer loop
  vertex -299.6700744628906 46.91938781738281 2.5
  vertex -304.5559997558594 55.14079284667969 7.5
  vertex -299.6700744628906 46.91938781738281 7.5
 endloop
endfacet
facet normal 0.8069129586219788 0.5906703472137451 0.0
 outer loop
  vertex -304.5559997558594 55.14079284667969 2.5
  vertex -310.2049865722656 62.85785675048828 2.5
  vertex -310.2049865722656 62.85785675048828 7.5
 endloop
endfacet
facet normal 0.8069129586219788 0.5906703472137451 -0.0
 outer loop
  vertex -304.5559997558594 55.14079284667969 2.5
  vertex -310.2049865722656 62.85785675048828 7.5
  vertex -304.5559997558594 55.14079284667969 7.5
 endloop
endfacet
facet normal 0.7467989921569824 0.6650498509407043 0.0
 outer loop
  vertex -310.2049865722656 62.85785675048828 2.5
  vertex -316.5653076171875 70.0 2.5
  vertex -316.5653076171875 70.0 7.5
 endloop
endfacet
facet normal 0.7467989921569824 0.6650498509407043 -0.0
 outer loop
  vertex -310.2049865722656 62.85785675048828 2.5
  vertex -316.5653076171875 70.0 7.5
  vertex -310.2049865722656 62.85785675048828 7.5
 endloop
endfacet
facet normal 0.0 1.0 0.0
 outer loop
  vertex -316.5653076171875 70.0 7.5
  vertex -316.5653076171875 70.0 2.5
  vertex -459.39385986328125 70.0 2.5
 endloop
endfacet
facet normal 0.0 1.0 0.0
 outer loop
  vertex -316.5653076171875 70.0 7.5
  vertex -459.39385986328125 70.0 2.5
  vertex -459.39385986328125 70.0 7.5
 endloop
endfacet
facet normal -0.7439472079277039 0.6682384610176086 0.0
 outer loop
  vertex -459.39385986328125 70.0 2.5
  vertex -465.21368408203125 63.52081298828125 2.5
  vertex -465.21368408203125 63.52081298828125 7.5
 endloop
endfacet
facet normal -0.7439472079277039 0.6682384610176086 0.0
 outer loop
  vertex -459.39385986328125 70.0 2.5
  vertex -465.21368408203125 63.52081298828125 7.5
  vertex -459.39385986328125 70.0 7.5
 endloop
endfacet
facet normal -0.7992684245109558 0.6009741425514221 0.0
 outer loop
  vertex -465.21368408203125 63.52081298828125 2.5
  vertex -470.44769287109375 56.559818267822266 2.5
  vertex -470.44769287109375 56.559818267822266 7.5
 endloop
endfacet
facet normal -0.7992684245109558 0.6009741425514221 0.0
 outer loop
  vertex -465.21368408203125 63.52081298828125 2.5
  vertex -470.44769287109375 56.559818267822266 7.5
  vertex -465.21368408203125 63.52081298828125 7.5
 endloop
endfacet
facet normal -0.8485289812088013 0.5291488170623779 0.0
 outer loop
  vertex -470.44769287109375 56.559818267822266 2.5
  vertex -475.05615234375 49.16981506347656 2.5
  vertex -475.05615234375 49.16981506347656 7.5
 endloop
endfacet
facet normal -0.8485289812088013 0.5291488170623779 0.0
 outer loop
  vertex -470.44769287109375 56.559818267822266 2.5
  vertex -475.05615234375 49.16981506347656 7.5
  vertex -470.44769287109375 56.559818267822266 7.5
 endloop
endfacet
facet normal -0.8913511037826538 0.45331352949142456 0.0
 outer loop
  vertex -475.05615234375 49.16981506347656 2.5
  vertex -479.004150390625 41.4068603515625 2.5
  vertex -479.004150390625 41.4068603515625 7.5
 endloop
endfacet
facet normal -0.8913511037826538 0.45331352949142456 0.0
 outer loop
  vertex -475.05615234375 49.16981506347656 2.5
  vertex -479.004150390625 41.4068603515625 7.5
  vertex -475.05615234375 49.16981506347656 7.5
 endloop
endfacet
facet normal -0.9274135231971741 0.3740377724170685 0.0
 outer loop
  vertex -479.004150390625 41.4068603515625 2.5
  vertex -482.26171875 33.329833984375 2.5
  vertex -482.26171875 33.329833984375 7.5
 endloop
endfacet
facet normal -0.9274135231971741 0.3740377724170685 0.0
 outer loop
  vertex -479.004150390625 41.4068603515625 2.5
  vertex -482.26171875 33.329833984375 7.5
  vertex -479.004150390625 41.4068603515625 7.5
 endloop
endfacet
facet normal -0.9564406871795654 0.29192689061164856 0.0
 outer loop
  vertex -482.26171875 33.329833984375 2.5
  vertex -484.8041687011719 25.0 2.5
  vertex -484.8041687011719 25.0 7.5
 endloop
endfacet
facet normal -0.9564406871795654 0.29192689061164856 0.0
 outer loop
  vertex -482.26171875 33.329833984375 2.5
  vertex -484.8041687011719 25.0 7.5
  vertex -482.26171875 33.329833984375 7.5
 endloop
endfacet
facet normal 0.0 -1.0 0.0
 outer loop
  vertex -484.8041687011719 25.0 7.5
  vertex -484.8041687011719 25.0 2.5
  vertex -334.8041687011719 25.0 2.5
 endloop
endfacet
facet normal 0.0 -1.0 0.0
 outer loop
  vertex -484.8041687011719 25.0 7.5
  vertex -334.8041687011719 25.0 2.5
  vertex -334.8041687011719 25.0 7.5
 endloop
endfacet
facet normal -1.0 0.0 -0.0
 outer loop
  vertex -334.8041687011719 25.0 7.5
  vertex -334.8041687011719 25.0 2.5
  vertex -334.8041687011719 -25.0 2.5
 endloop
endfacet
facet normal -1.0 -0.0 0.0
 outer loop
  vertex -334.8041687011719 25.0 7.5
  vertex -334.8041687011719 -25.0 2.5
  vertex -334.8041687011719 -25.0 7.5
 endloop
endfacet
facet normal 0.0 1.0 0.0
 outer loop
  vertex -334.8041687011719 -25.0 7.5
  vertex -334.8041687011719 -25.0 2.5
  vertex -484.8041687011719 -25.0 2.5
 endloop
endfacet
facet normal 0.0 1.0 0.0
 outer loop
  vertex -334.8041687011719 -25.0 7.5
  vertex -484.8041687011719 -25.0 2.5
  vertex -484.8041687011719 -25.0 7.5
 endloop
endfacet
facet normal -0.9564406871795654 -0.29192689061164856 0.0
 outer loop
  vertex -484.8041687011719 -25.0 2.5
  vertex -482.26171875 -33.329833984375 2.5
  vertex -482.26171875 -33.329833984375 7.5
 endloop
endfacet
facet normal -0.9564406871795654 -0.29192689061164856 0.0
 outer loop
  vertex -484.8041687011719 -25.0 2.5
  vertex -482.26171875 -33.329833984375 7.5
  vertex -484.8041687011719 -25.0 7.5
 endloop
endfacet
facet normal -0.9274135231971741 -0.3740377724170685 0.0
 outer loop
  vertex -482.26171875 -33.329833984375 2.5
  vertex -479.004150390625 -41.4068603515625 2.5
  vertex -479.004150390625 -41.4068603515625 7.5
 endloop
endfacet
facet normal -0.9274135231971741 -0.3740377724170685 0.0
 outer loop
  vertex -482.26171875 -33.329833984375 2.5
  vertex -479.004150390625 -41.4068603515625 7.5
  vertex -482.26171875 -33.329833984375 7.5
 endloop
endfacet
facet normal -0.8913511037826538 -0.45331352949142456 0.0
 outer loop
  vertex -479.004150390625 -41.4068603515625 2.5
  vertex -475.05615234375 -49.16981506347656 2.5
  vertex -475.05615234375 -49.16981506347656 7.5
 endloop
endfacet
facet normal -0.8913511037826538 -0.45331352949142456 0.0
 outer loop
  vertex -479.004150390625 -41.4068603515625 2.5
  vertex -475.05615234375 -49.16981506347656 7.5
  vertex -479.004150390625 -41.4068603515625 7.5
 endloop
endfacet
facet normal -0.8485289812088013 -0.5291488170623779 0.0
 outer loop
  vertex -475.05615234375 -49.16981506347656 2.5
  vertex -470.44769287109375 -56.559818267822266 2.5
  vertex -470.44769287109375 -56.559818267822266 7.5
 endloop
endfacet
facet normal -0.8485289812088013 -0.5291488170623779 0.0
 outer loop
  vertex -475.05615234375 -49.16981506347656 2.5
  vertex -470.44769287109375 -56.559818267822266 7.5
  vertex -475.05615234375 -49.16981506347656 7.5
 endloop
endfacet
facet normal -0.7992684245109558 -0.6009741425514221 0.0
 outer loop
  vertex -470.44769287109375 -56.559818267822266 2.5
  vertex -465.21368408203125 -63.52081298828125 2.5
  vertex -465.21368408203125 -63.52081298828125 7.5
 endloop
endfacet
facet normal -0.7992684245109558 -0.6009741425514221 0.0
 outer loop
  vertex -470.44769287109375 -56.559818267822266 2.5
  vertex -465.21368408203125 -63.52081298828125 7.5
  vertex -470.44769287109375 -56.559818267822266 7.5
 endloop
endfacet
facet normal -0.7439472079277039 -0.6682384610176086 0.0
 outer loop
  vertex -465.21368408203125 -63.52081298828125 2.5
  vertex -459.39385986328125 -70.0 2.5
  vertex -459.39385986328125 -70.0 7.5
 endloop
endfacet
facet normal -0.7439472079277039 -0.6682384610176086 0.0
 outer loop
  vertex -465.21368408203125 -63.52081298828125 2.5
  vertex -459.39385986328125 -70.0 7.5
  vertex -465.21368408203125 -63.52081298828125 7.5
 endloop
endfacet
facet normal 0.0 -1.0 0.0
 outer loop
  vertex -459.39385986328125 -70.0 7.5
  vertex -459.39385986328125 -70.0 2.5
  vertex -316.5653076171875 -70.0 2.5
 endloop
endfacet
facet normal 0.0 -1.0 0.0
 outer loop
  vertex -459.39385986328125 -70.0 7.5
  vertex -316.5653076171875 -70.0 2.5
  vertex -316.5653076171875 -70.0 7.5
 endloop
endfacet
facet normal 0.7467989921569824 -0.6650498509407043 0.0
 outer loop
  vertex -316.5653076171875 -70.0 2.5
  vertex -310.2049865722656 -62.85785675048828 2.5
  vertex -310.2049865722656 -62.85785675048828 7.5
 endloop
endfacet
facet normal 0.7467989921569824 -0.6650498509407043 0.0
 outer loop
  vertex -316.5653076171875 -70.0 2.5
  vertex -310.2049865722656 -62.85785675048828 7.5
  vertex -316.5653076171875 -70.0 7.5
 endloop
endfacet
facet normal 0.8069129586219788 -0.5906703472137451 0.0
 outer loop
  vertex -310.2049865722656 -62.85785675048828 2.5
  vertex -304.5559997558594 -55.14079284667969 2.5
  vertex -304.5559997558594 -55.14079284667969 7.5
 endloop
endfacet
facet normal 0.8069129586219788 -0.5906703472137451 0.0
 outer loop
  vertex -310.2049865722656 -62.85785675048828 2.5
  vertex -304.5559997558594 -55.14079284667969 7.5
  vertex -310.2049865722656 -62.85785675048828 7.5
 endloop
endfacet
facet normal 0.859649658203125 -0.5108839273452759 0.0
 outer loop
  vertex -304.5559997558594 -55.14079284667969 2.5
  vertex -299.6700744628906 -46.91938781738281 2.5
  vertex -299.6700744628906 -46.91938781738281 7.5
 endloop
endfacet
facet normal 0.859649658203125 -0.5108839273452759 0.0
 outer loop
  vertex -304.5559997558594 -55.14079284667969 2.5
  vertex -299.6700744628906 -46.91938781738281 7.5
  vertex -304.5559997558594 -55.14079284667969 7.5
 endloop
endfacet
facet normal 0.9045203924179077 -0.4264303743839264 0.0
 outer loop
  vertex -299.6700744628906 -46.91938781738281 2.5
  vertex -295.5918273925781 -38.268836975097656 2.5
  vertex -295.5918273925781 -38.268836975097656 7.5
 endloop
endfacet
facet normal 0.9045203924179077 -0.4264303743839264 0.0
 outer loop
  vertex -299.6700744628906 -46.91938781738281 2.5
  vertex -295.5918273925781 -38.268836975097656 7.5
  vertex -299.6700744628906 -46.91938781738281 7.5
 endloop
endfacet
facet normal 0.9411211013793945 -0.3380695879459381 0.0
 outer loop
  vertex -295.5918273925781 -38.268836975097656 2.5
  vertex -292.358642578125 -29.268268585205078 2.5
  vertex -292.358642578125 -29.268268585205078 7.5
 endloop
endfacet
facet normal 0.9411211013793945 -0.3380695879459381 0.0
 outer loop
  vertex -295.5918273925781 -38.268836975097656 2.5
  vertex -292.358642578125 -29.268268585205078 7.5
  vertex -295.5918273925781 -38.268836975097656 7.5
 endloop
endfacet
facet normal 0.9691110253334045 -0.24662497639656067 0.0
 outer loop
  vertex -292.358642578125 -29.268268585205078 2.5
  vertex -290.0 -20.0 2.5
  vertex -290.0 -20.0 7.5
 endloop
endfacet
facet normal 0.9691110253334045 -0.24662497639656067 0.0
 outer loop
  vertex -292.358642578125 -29.268268585205078 2.5
  vertex -290.0 -20.0 7.5
  vertex -292.358642578125 -29.268268585205078 7.5
 endloop
endfacet
facet normal 0.0 0.0 -1.0
 outer loop
  vertex -35.83950424194336 -34.86444854736328 0.0
  vertex -40.0 -30.0 0.0
  vertex -31.09163475036621 -39.15750503540039 0.0
 endloop
endfacet
facet normal 0.0 0.0 -1.0
 outer loop
  vertex -80.0 -30.0 0.0
  vertex -80.0 30.0 0.0
  vertex -40.0 -30.0 0.0
 endloop
endfacet
facet normal 0.0 0.0 -1.0
 outer loop
  vertex -40.0 -30.0 0.0
  vertex -80.0 30.0 0.0
  vertex -31.09163475036621 -39.15750503540039 0.0
 endloop
endfacet
facet normal 0.0 0.0 -1.0
 outer loop
  vertex -80.0 30.0 0.0
  vertex -40.0 30.0 0.0
  vertex -31.09163475036621 -39.15750503540039 0.0
 endloop
endfacet
facet normal 0.0 0.0 -1.0
 outer loop
  vertex -31.09163475036621 -39.15750503540039 0.0
  vertex -40.0 30.0 0.0
  vertex -25.834203720092773 -42.808807373046875 0.0
 endloop
endfacet
facet normal 0.0 0.0 -1.0
 outer loop
  vertex -40.0 30.0 0.0
  vertex -35.83950424194336 34.86444854736328 0.0
  vertex -25.834203720092773 -42.808807373046875 0.0
 endloop
endfacet
facet normal 0.0 0.0 -1.0
 outer loop
  vertex -25.834203720092773 -42.808807373046875 0.0
  vertex -35.83950424194336 34.86444854736328 0.0
  vertex -20.15337371826172 -45.758514404296875 0.0
 endloop
endfacet
facet normal 0.0 0.0 -1.0
 outer loop
  vertex -35.83950424194336 34.86444854736328 0.0
  vertex -31.09163475036621 39.15750503540039 0.0
  vertex -20.15337371826172 -45.758514404296875 0.0
 endloop
endfacet
facet normal 0.0 0.0 -1.0
 outer loop
  vertex -20.15337371826172 -45.758514404296875 0.0
  vertex -31.09163475036621 39.15750503540039 0.0
  vertex -14.14224910736084 -47.958282470703125 0.0
 endloop
endfacet
facet normal 0.0 0.0 -1.0
 outer loop
  vertex -31.09163475036621 39.15750503540039 0.0
  vertex -25.834203720092773 42.808807373046875 0.0
  vertex -14.14224910736084 -47.958282470703125 0.0
 endloop
endfacet
facet normal 0.0 0.0 -1.0
 outer loop
  vertex -14.14224910736084 -47.958282470703125 0.0
  vertex -25.834203720092773 42.808807373046875 0.0
  vertex -7.899347305297852 -49.3720588684082 0.0
 endloop
endfacet
facet normal 0.0 0.0 -1.0
 outer loop
  vertex -25.834203720092773 42.808807373046875 0.0
  vertex -20.15337371826172 45.758514404296875 0.0
  vertex -7.899347305297852 -49.3720588684082 0.0
 endloop
endfacet
facet normal 0.0 0.0 -1.0
 outer loop
  vertex -7.899347305297852 -49.3720588684082 0.0
  vertex -20.15337371826172 45.758514404296875 0.0
  vertex -1.5269829034805298 -49.97667694091797 0.0
 endloop
endfacet
facet normal 0.0 0.0 -1.0
 outer loop
  vertex -20.15337371826172 45.758514404296875 0.0
  vertex -14.14224910736084 47.958282470703125 0.0
  vertex -1.5269829034805298 -49.97667694091797 0.0
 endloop
endfacet
facet normal 0.0 0.0 -1.0
 outer loop
  vertex -1.5269829034805298 -49.97667694091797 0.0
  vertex -14.14224910736084 47.958282470703125 0.0
  vertex 4.870407581329346 -49.76222610473633 0.0
 endloop
endfacet
facet normal 0.0 0.0 -1.0
 outer loop
  vertex -14.14224910736084 47.958282470703125 0.0
  vertex -7.899347305297852 49.3720588684082 0.0
  vertex 4.870407581329346 -49.76222610473633 0.0
 endloop
endfacet
facet normal 0.0 0.0 -1.0
 outer loop
  vertex 4.870407581329346 -49.76222610473633 0.0
  vertex -7.899347305297852 49.3720588684082 0.0
  vertex 11.187976837158203 -48.73221969604492 0.0
 endloop
endfacet
facet normal 0.0 0.0 -1.0
 outer loop
  vertex -7.899347305297852 49.3720588684082 0.0
  vertex -1.5269829034805298 49.97667694091797 0.0
  vertex 11.187976837158203 -48.73221969604492 0.0
 endloop
endfacet
facet normal 0.0 0.0 -1.0
 outer loop
  vertex 11.187976837158203 -48.73221969604492 0.0
  vertex -1.5269829034805298 49.97667694091797 0.0
  vertex 17.322185516357422 -46.90353775024414 0.0
 endloop
endfacet
facet normal 0.0 0.0 -1.0
 outer loop
  vertex -1.5269829034805298 49.97667694091797 0.0
  vertex 4.870407581329346 49.76222610473633 0.0
  vertex 17.322185516357422 -46.90353775024414 0.0
 endloop
endfacet
facet normal 0.0 0.0 -1.0
 outer loop
  vertex 17.322185516357422 -46.90353775024414 0.0
  vertex 4.870407581329346 49.76222610473633 0.0
  vertex 23.172500610351562 -44.30615234375 0.0
 endloop
endfacet
facet normal 0.0 0.0 -1.0
 outer loop
  vertex 4.870407581329346 49.76222610473633 0.0
  vertex 11.187976837158203 48.73221969604492 0.0
  vertex 23.172500610351562 -44.30615234375 0.0
 endloop
endfacet
facet normal 0.0 0.0 -1.0
 outer loop
  vertex 23.172500610351562 -44.30615234375 0.0
  vertex 11.187976837158203 48.73221969604492 0.0
  vertex 28.64303970336914 -40.98263168334961 0.0
 endloop
endfacet
facet normal 0.0 0.0 -1.0
 outer loop
  vertex 11.187976837158203 48.73221969604492 0.0
  vertex 17.322185516357422 46.90353775024414 0.0
  vertex 28.64303970336914 -40.98263168334961 0.0
 endloop
endfacet
facet normal 0.0 0.0 -1.0
 outer loop
  vertex 28.64303970336914 -40.98263168334961 0.0
  vertex 17.322185516357422 46.90353775024414 0.0
  vertex 33.64414978027344 -36.98744583129883 0.0
 endloop
endfacet
facet normal 0.0 0.0 -1.0
 outer loop
  vertex 17.322185516357422 46.90353775024414 0.0
  vertex 23.172500610351562 44.30615234375 0.0
  vertex 33.64414978027344 -36.98744583129883 0.0
 endloop
endfacet
facet normal 0.0 0.0 -1.0
 outer loop
  vertex 33.64414978027344 -36.98744583129883 0.0
  vertex 23.172500610351562 44.30615234375 0.0
  vertex 38.0938606262207 -32.38607406616211 0.0
 endloop
endfacet
facet normal 0.0 0.0 -1.0
 outer loop
  vertex 23.172500610351562 44.30615234375 0.0
  vertex 28.64303970336914 40.98263168334961 0.0
  vertex 38.0938606262207 -32.38607406616211 0.0
 endloop
endfacet
facet normal 0.0 0.0 -1.0
 outer loop
  vertex 38.0938606262207 -32.38607406616211 0.0
  vertex 28.64303970336914 40.98263168334961 0.0
  vertex 41.919254302978516 -27.253921508789062 0.0
 endloop
endfacet
facet normal 0.0 0.0 -1.0
 outer loop
  vertex 28.64303970336914 40.98263168334961 0.0
  vertex 33.64414978027344 36.98744583129883 0.0
  vertex 41.919254302978516 -27.253921508789062 0.0
 endloop
endfacet
facet normal 0.0 0.0 -1.0
 outer loop
  vertex 41.919254302978516 -27.253921508789062 0.0
  vertex 33.64414978027344 36.98744583129883 0.0
  vertex 45.0576286315918 -21.67510414123535 0.0
 endloop
endfacet
facet normal 0.0 0.0 -1.0
 outer loop
  vertex 33.64414978027344 36.98744583129883 0.0
  vertex 38.0938606262207 32.38607406616211 0.0
  vertex 45.0576286315918 -21.67510414123535 0.0
 endloop
endfacet
facet normal 0.0 0.0 -1.0
 outer loop
  vertex 45.0576286315918 -21.67510414123535 0.0
  vertex 38.0938606262207 32.38607406616211 0.0
  vertex 47.457550048828125 -15.74105453491211 0.0
 endloop
endfacet
facet normal 0.0 0.0 -1.0
 outer loop
  vertex 38.0938606262207 32.38607406616211 0.0
  vertex 41.919254302978516 27.253921508789062 0.0
  vertex 47.457550048828125 -15.74105453491211 0.0
 endloop
endfacet
facet normal 0.0 0.0 -1.0
 outer loop
  vertex 47.457550048828125 -15.74105453491211 0.0
  vertex 41.919254302978516 27.253921508789062 0.0
  vertex 49.07969284057617 -9.549022674560547 0.0
 endloop
endfacet
facet normal 0.0 0.0 -1.0
 outer loop
  vertex 41.919254302978516 27.253921508789062 0.0
  vertex 45.0576286315918 21.67510414123535 0.0
  vertex 49.07969284057617 -9.549022674560547 0.0
 endloop
endfacet
facet normal 0.0 0.0 -1.0
 outer loop
  vertex 49.07969284057617 -9.549022674560547 0.0
  vertex 45.0576286315918 21.67510414123535 0.0
  vertex 49.897464752197266 -3.2004919052124023 0.0
 endloop
endfacet
facet normal 0.0 0.0 -1.0
 outer loop
  vertex 45.0576286315918 21.67510414123535 0.0
  vertex 47.457550048828125 15.74105453491211 0.0
  vertex 49.897464752197266 -3.2004919052124023 0.0
 endloop
endfacet
facet normal 0.0 0.0 -1.0
 outer loop
  vertex 49.897464752197266 -3.2004919052124023 0.0
  vertex 47.457550048828125 15.74105453491211 0.0
  vertex 49.897464752197266 3.2004919052124023 0.0
 endloop
endfacet
facet normal 0.0 0.0 -1.0
 outer loop
  vertex 47.457550048828125 15.74105453491211 0.0
  vertex 49.07969284057617 9.549022674560547 0.0
  vertex 49.897464752197266 3.2004919052124023 0.0
 endloop
endfacet
facet normal 0.0 -1.0 0.0
 outer loop
  vertex -80.0 -30.0 10.0
  vertex -80.0 -30.0 0.0
  vertex -40.0 -30.0 0.0
 endloop
endfacet
facet normal 0.0 -1.0 0.0
 outer loop
  vertex -80.0 -30.0 10.0
  vertex -40.0 -30.0 0.0
  vertex -40.0 -30.0 10.0
 endloop
endfacet
facet normal 0.0 0.0 1.0
 outer loop
  vertex -80.0 -30.0 10.0
  vertex -40.0 -30.0 10.0
  vertex -80.0 30.0 10.0
 endloop
endfacet
facet normal -0.0 -0.0 1.0
 outer loop
  vertex -40.0 -30.0 10.0
  vertex -35.83950424194336 -34.86444854736328 10.0
  vertex -80.0 30.0 10.0
 endloop
endfacet
facet normal -0.0 0.0 1.0
 outer loop
  vertex -80.0 30.0 10.0
  vertex -35.83950424194336 -34.86444854736328 10.0
  vertex -40.0 30.0 10.0
 endloop
endfacet
facet normal -0.0 -0.0 1.0
 outer loop
  vertex -35.83950424194336 -34.86444854736328 10.0
  vertex -31.09163475036621 -39.15750503540039 10.0
  vertex -40.0 30.0 10.0
 endloop
endfacet
facet normal -0.0 0.0 1.0
 outer loop
  vertex -40.0 30.0 10.0
  vertex -31.09163475036621 -39.15750503540039 10.0
  vertex -35.83950424194336 34.86444854736328 10.0
 endloop
endfacet
facet normal -0.0 -0.0 1.0
 outer loop
  vertex -31.09163475036621 -39.15750503540039 10.0
  vertex -25.834203720092773 -42.808807373046875 10.0
  vertex -35.83950424194336 34.86444854736328 10.0
 endloop
endfacet
facet normal -0.0 0.0 1.0
 outer loop
  vertex -35.83950424194336 34.86444854736328 10.0
  vertex -25.834203720092773 -42.808807373046875 10.0
  vertex -31.09163475036621 39.15750503540039 10.0
 endloop
endfacet
facet normal -0.0 -0.0 1.0
 outer loop
  vertex -25.834203720092773 -42.808807373046875 10.0
  vertex -20.15337371826172 -45.758514404296875 10.0
  vertex -31.09163475036621 39.15750503540039 10.0
 endloop
endfacet
facet normal -0.0 0.0 1.0
 outer loop
  vertex -31.09163475036621 39.15750503540039 10.0
  vertex -20.15337371826172 -45.758514404296875 10.0
  vertex -25.834203720092773 42.808807373046875 10.0
 endloop
endfacet
facet normal -0.0 -0.0 1.0
 outer loop
  vertex -20.15337371826172 -45.758514404296875 10.0
  vertex -14.14224910736084 -47.958282470703125 10.0
  vertex -25.834203720092773 42.808807373046875 10.0
 endloop
endfacet
facet normal -0.0 0.0 1.0
 outer loop
  vertex -25.834203720092773 42.808807373046875 10.0
  vertex -14.14224910736084 -47.958282470703125 10.0
  vertex -20.15337371826172 45.758514404296875 10.0
 endloop
endfacet
facet normal -0.0 -0.0 1.0
 outer loop
  vertex -14.14224910736084 -47.958282470703125 10.0
  vertex -7.899347305297852 -49.3720588684082 10.0
  vertex -20.15337371826172 45.758514404296875 10.0
 endloop
endfacet
facet normal -0.0 0.0 1.0
 outer loop
  vertex -20.15337371826172 45.758514404296875 10.0
  vertex -7.899347305297852 -49.3720588684082 10.0
  vertex -14.14224910736084 47.958282470703125 10.0
 endloop
endfacet
facet normal -0.0 -0.0 1.0
 outer loop
  vertex -7.899347305297852 -49.3720588684082 10.0
  vertex -1.5269829034805298 -49.97667694091797 10.0
  vertex -14.14224910736084 47.958282470703125 10.0
 endloop
endfacet
facet normal -0.0 0.0 1.0
 outer loop
  vertex -14.14224910736084 47.958282470703125 10.0
  vertex -1.5269829034805298 -49.97667694091797 10.0
  vertex -7.899347305297852 49.3720588684082 10.0
 endloop
endfacet
facet normal 0.0 -0.0 1.0
 outer loop
  vertex -1.5269829034805298 -49.97667694091797 10.0
  vertex 4.870407581329346 -49.76222610473633 10.0
  vertex -7.899347305297852 49.3720588684082 10.0
 endloop
endfacet
facet normal -0.0 0.0 1.0
 outer loop
  vertex -7.899347305297852 49.3720588684082 10.0
  vertex 4.870407581329346 -49.76222610473633 10.0
  vertex -1.5269829034805298 49.97667694091797 10.0
 endloop
endfacet
facet normal 0.0 -0.0 1.0
 outer loop
  vertex 4.870407581329346 -49.76222610473633 10.0
  vertex 11.187976837158203 -48.73221969604492 10.0
  vertex -1.5269829034805298 49.97667694091797 10.0
 endloop
endfacet
facet normal 0.0 0.0 1.0
 outer loop
  vertex -1.5269829034805298 49.97667694091797 10.0
  vertex 11.187976837158203 -48.73221969604492 10.0
  vertex 4.870407581329346 49.76222610473633 10.0
 endloop
endfacet
facet normal 0.0 -0.0 1.0
 outer loop
  vertex 11.187976837158203 -48.73221969604492 10.0
  vertex 17.322185516357422 -46.90353775024414 10.0
  vertex 4.870407581329346 49.76222610473633 10.0
 endloop
endfacet
facet normal 0.0 0.0 1.0
 outer loop
  vertex 4.870407581329346 49.76222610473633 10.0
  vertex 17.322185516357422 -46.90353775024414 10.0
  vertex 11.187976837158203 48.73221969604492 10.0
 endloop
endfacet
facet normal 0.0 -0.0 1.0
 outer loop
  vertex 17.322185516357422 -46.90353775024414 10.0
  vertex 23.172500610351562 -44.30615234375 10.0
  vertex 11.187976837158203 48.73221969604492 10.0
 endloop
endfacet
facet normal 0.0 0.0 1.0
 outer loop
  vertex 11.187976837158203 48.73221969604492 10.0
  vertex 23.172500610351562 -44.30615234375 10.0
  vertex 17.322185516357422 46.90353775024414 10.0
 endloop
endfacet
facet normal 0.0 -0.0 1.0
 outer loop
  vertex 23.172500610351562 -44.30615234375 10.0
  vertex 28.64303970336914 -40.98263168334961 10.0
  vertex 17.322185516357422 46.90353775024414 10.0
 endloop
endfacet
facet normal 0.0 0.0 1.0
 outer loop
  vertex 17.322185516357422 46.90353775024414 10.0
  vertex 28.64303970336914 -40.98263168334961 10.0
  vertex 23.172500610351562 44.30615234375 10.0
 endloop
endfacet
facet normal 0.0 -0.0 1.0
 outer loop
  vertex 28.64303970336914 -40.98263168334961 10.0
  vertex 33.64414978027344 -36.98744583129883 10.0
  vertex 23.172500610351562 44.30615234375 10.0
 endloop
endfacet
facet normal 0.0 0.0 1.0
 outer loop
  vertex 23.172500610351562 44.30615234375 10.0
  vertex 33.64414978027344 -36.98744583129883 10.0
  vertex 28.64303970336914 40.98263168334961 10.0
 endloop
endfacet
facet normal 0.0 -0.0 1.0
 outer loop
  vertex 33.64414978027344 -36.98744583129883 10.0
  vertex 38.0938606262207 -32.38607406616211 10.0
  vertex 28.64303970336914 40.98263168334961 10.0
 endloop
endfacet
facet normal 0.0 0.0 1.0
 outer loop
  vertex 28.64303970336914 40.98263168334961 10.0
  vertex 38.0938606262207 -32.38607406616211 10.0
  vertex 33.64414978027344 36.98744583129883 10.0
 endloop
endfacet
facet normal 0.0 -0.0 1.0
 outer loop
  vertex 38.0938606262207 -32.38607406616211 10.0
  vertex 41.919254302978516 -27.253921508789062 10.0
  vertex 33.64414978027344 36.98744583129883 10.0
 endloop
endfacet
facet normal 0.0 0.0 1.0
 outer loop
  vertex 33.64414978027344 36.98744583129883 10.0
  vertex 41.919254302978516 -27.253921508789062 10.0
  vertex 38.0938606262207 32.38607406616211 10.0
 endloop
endfacet
facet normal 0.0 -0.0 1.0
 outer loop
  vertex 41.919254302978516 -27.253921508789062 10.0
  vertex 45.0576286315918 -21.67510414123535 10.0
  vertex 38.0938606262207 32.38607406616211 10.0
 endloop
endfacet
facet normal 0.0 0.0 1.0
 outer loop
  vertex 38.0938606262207 32.38607406616211 10.0
  vertex 45.0576286315918 -21.67510414123535 10.0
  vertex 41.919254302978516 27.253921508789062 10.0
 endloop
endfacet
facet normal 0.0 -0.0 1.0
 outer loop
  vertex 45.0576286315918 -21.67510414123535 10.0
  vertex 47.457550048828125 -15.74105453491211 10.0
  vertex 41.919254302978516 27.253921508789062 10.0
 endloop
endfacet
facet normal 0.0 0.0 1.0
 outer loop
  vertex 41.919254302978516 27.253921508789062 10.0
  vertex 47.457550048828125 -15.74105453491211 10.0
  vertex 45.0576286315918 21.67510414123535 10.0
 endloop
endfacet
facet normal 0.0 -0.0 1.0
 outer loop
  vertex 47.457550048828125 -15.74105453491211 10.0
  vertex 49.07969284057617 -9.549022674560547 10.0
  vertex 45.0576286315918 21.67510414123535 10.0
 endloop
endfacet
facet normal 0.0 0.0 1.0
 outer loop
  vertex 45.0576286315918 21.67510414123535 10.0
  vertex 49.07969284057617 -9.549022674560547 10.0
  vertex 47.457550048828125 15.74105453491211 10.0
 endloop
endfacet
facet normal 0.0 -0.0 1.0
 outer loop
  vertex 49.07969284057617 -9.549022674560547 10.0
  vertex 49.897464752197266 -3.2004919052124023 10.0
  vertex 47.457550048828125 15.74105453491211 10.0
 endloop
endfacet
facet normal 0.0 0.0 1.0
 outer loop
  vertex 47.457550048828125 15.74105453491211 10.0
  vertex 49.897464752197266 -3.2004919052124023 10.0
  vertex 49.07969284057617 9.549022674560547 10.0
 endloop
endfacet
facet normal 0.0 -0.0 1.0
 outer loop
  vertex 49.897464752197266 -3.2004919052124023 10.0
  vertex 49.897464752197266 3.2004919052124023 10.0
  vertex 49.07969284057617 9.549022674560547 10.0
 endloop
endfacet
facet normal 0.0 1.0 0.0
 outer loop
  vertex -40.0 30.0 10.0
  vertex -40.0 30.0 0.0
  vertex -80.0 30.0 0.0
 endloop
endfacet
facet normal 0.0 1.0 0.0
 outer loop
  vertex -40.0 30.0 10.0
  vertex -80.0 30.0 0.0
  vertex -80.0 30.0 10.0
 endloop
endfacet
facet normal -0.7599533796310425 -0.6499776840209961 0.0
 outer loop
  vertex -40.0 -30.0 0.0
  vertex -35.83950424194336 -34.86444854736328 0.0
  vertex -35.83950424194336 -34.86444854736328 10.0
 endloop
endfacet
facet normal -0.7599533796310425 -0.6499776840209961 0.0
 outer loop
  vertex -40.0 -30.0 0.0
  vertex -35.83950424194336 -34.86444854736328 10.0
  vertex -40.0 -30.0 10.0
 endloop
endfacet
facet normal -0.6706869602203369 -0.7417405247688293 0.0
 outer loop
  vertex -35.83950424194336 -34.86444854736328 0.0
  vertex -31.09163475036621 -39.15750503540039 0.0
  vertex -31.09163475036621 -39.15750503540039 10.0
 endloop
endfacet
facet normal -0.6706869602203369 -0.7417405247688293 0.0
 outer loop
  vertex -35.83950424194336 -34.86444854736328 0.0
  vertex -31.09163475036621 -39.15750503540039 10.0
  vertex -35.83950424194336 -34.86444854736328 10.0
 endloop
endfacet
facet normal -0.5704283118247986 -0.8213474154472351 0.0
 outer loop
  vertex -31.09163475036621 -39.15750503540039 0.0
  vertex -25.834203720092773 -42.808807373046875 0.0
  vertex -25.834203720092773 -42.808807373046875 10.0
 endloop
endfacet
facet normal -0.5704283118247986 -0.8213474154472351 0.0
 outer loop
  vertex -31.09163475036621 -39.15750503540039 0.0
  vertex -25.834203720092773 -42.808807373046875 10.0
  vertex -31.09163475036621 -39.15750503540039 10.0
 endloop
endfacet
facet normal -0.46082085371017456 -0.8874931931495667 0.0
 outer loop
  vertex -25.834203720092773 -42.808807373046875 0.0
  vertex -20.15337371826172 -45.758514404296875 0.0
  vertex -20.15337371826172 -45.758514404296875 10.0
 endloop
endfacet
facet normal -0.46082085371017456 -0.8874931931495667 0.0
 outer loop
  vertex -25.834203720092773 -42.808807373046875 0.0
  vertex -20.15337371826172 -45.758514404296875 10.0
  vertex -25.834203720092773 -42.808807373046875 10.0
 endloop
endfacet
facet normal -0.3436609208583832 -0.9390937685966492 0.0
 outer loop
  vertex -20.15337371826172 -45.758514404296875 0.0
  vertex -14.14224910736084 -47.958282470703125 0.0
  vertex -14.14224910736084 -47.958282470703125 10.0
 endloop
endfacet
facet normal -0.3436609208583832 -0.9390937685966492 0.0
 outer loop
  vertex -20.15337371826172 -45.758514404296875 0.0
  vertex -14.14224910736084 -47.958282470703125 10.0
  vertex -20.15337371826172 -45.758514404296875 10.0
 endloop
endfacet
facet normal -0.22086864709854126 -0.9753036499023438 0.0
 outer loop
  vertex -14.14224910736084 -47.958282470703125 0.0
  vertex -7.899347305297852 -49.3720588684082 0.0
  vertex -7.899347305297852 -49.3720588684082 10.0
 endloop
endfacet
facet normal -0.22086864709854126 -0.9753036499023438 0.0
 outer loop
  vertex -14.14224910736084 -47.958282470703125 0.0
  vertex -7.899347305297852 -49.3720588684082 10.0
  vertex -14.14224910736084 -47.958282470703125 10.0
 endloop
endfacet
facet normal -0.09445706009864807 -0.9955289959907532 0.0
 outer loop
  vertex -7.899347305297852 -49.3720588684082 0.0
  vertex -1.5269829034805298 -49.97667694091797 0.0
  vertex -1.5269829034805298 -49.97667694091797 10.0
 endloop
endfacet
facet normal -0.09445706009864807 -0.9955289959907532 0.0
 outer loop
  vertex -7.899347305297852 -49.3720588684082 0.0
  vertex -1.5269829034805298 -49.97667694091797 10.0
  vertex -7.899347305297852 -49.3720588684082 10.0
 endloop
endfacet
facet normal 0.03350279480218887 -0.9994386434555054 0.0
 outer loop
  vertex -1.5269829034805298 -49.97667694091797 0.0
  vertex 4.870407581329346 -49.76222610473633 0.0
  vertex 4.870407581329346 -49.76222610473633 10.0
 endloop
endfacet
facet normal 0.03350279480218887 -0.9994386434555054 0.0
 outer loop
  vertex -1.5269829034805298 -49.97667694091797 0.0
  vertex 4.870407581329346 -49.76222610473633 10.0
  vertex -1.5269829034805298 -49.97667694091797 10.0
 endloop
endfacet
facet normal 0.16091375052928925 -0.986968457698822 0.0
 outer loop
  vertex 4.870407581329346 -49.76222610473633 0.0
  vertex 11.187976837158203 -48.73221969604492 0.0
  vertex 11.187976837158203 -48.73221969604492 10.0
 endloop
endfacet
facet normal 0.16091375052928925 -0.986968457698822 0.0
 outer loop
  vertex 4.870407581329346 -49.76222610473633 0.0
  vertex 11.187976837158203 -48.73221969604492 10.0
  vertex 4.870407581329346 -49.76222610473633 10.0
 endloop
endfacet
facet normal 0.285687655210495 -0.9583228230476379 0.0
 outer loop
  vertex 11.187976837158203 -48.73221969604492 0.0
  vertex 17.322185516357422 -46.90353775024414 0.0
  vertex 17.322185516357422 -46.90353775024414 10.0
 endloop
endfacet
facet normal 0.285687655210495 -0.9583228230476379 0.0
 outer loop
  vertex 11.187976837158203 -48.73221969604492 0.0
  vertex 17.322185516357422 -46.90353775024414 10.0
  vertex 11.187976837158203 -48.73221969604492 10.0
 endloop
endfacet
facet normal 0.40577906370162964 -0.9139711856842041 0.0
 outer loop
  vertex 17.322185516357422 -46.90353775024414 0.0
  vertex 23.172500610351562 -44.30615234375 0.0
  vertex 23.172500610351562 -44.30615234375 10.0
 endloop
endfacet
facet normal 0.40577906370162964 -0.9139711856842041 0.0
 outer loop
  vertex 17.322185516357422 -46.90353775024414 0.0
  vertex 23.172500610351562 -44.30615234375 10.0
  vertex 17.322185516357422 -46.90353775024414 10.0
 endloop
endfacet
facet normal 0.5192202925682068 -0.8546404242515564 0.0
 outer loop
  vertex 23.172500610351562 -44.30615234375 0.0
  vertex 28.64303970336914 -40.98263168334961 0.0
  vertex 28.64303970336914 -40.98263168334961 10.0
 endloop
endfacet
facet normal 0.5192202925682068 -0.8546404242515564 0.0
 outer loop
  vertex 23.172500610351562 -44.30615234375 0.0
  vertex 28.64303970336914 -40.98263168334961 10.0
  vertex 23.172500610351562 -44.30615234375 10.0
 endloop
endfacet
facet normal 0.6241517066955566 -0.7813032269477844 0.0
 outer loop
  vertex 28.64303970336914 -40.98263168334961 0.0
  vertex 33.64414978027344 -36.98744583129883 0.0
  vertex 33.64414978027344 -36.98744583129883 10.0
 endloop
endfacet
facet normal 0.6241517066955566 -0.7813032269477844 0.0
 outer loop
  vertex 28.64303970336914 -40.98263168334961 0.0
  vertex 33.64414978027344 -36.98744583129883 10.0
  vertex 28.64303970336914 -40.98263168334961 10.0
 endloop
endfacet
facet normal 0.7188542485237122 -0.6951608061790466 0.0
 outer loop
  vertex 33.64414978027344 -36.98744583129883 0.0
  vertex 38.0938606262207 -32.38607406616211 0.0
  vertex 38.0938606262207 -32.38607406616211 10.0
 endloop
endfacet
facet normal 0.7188542485237122 -0.6951608061790466 0.0
 outer loop
  vertex 33.64414978027344 -36.98744583129883 0.0
  vertex 38.0938606262207 -32.38607406616211 10.0
  vertex 33.64414978027344 -36.98744583129883 10.0
 endloop
endfacet
facet normal 0.8017752766609192 -0.5976256728172302 0.0
 outer loop
  vertex 38.0938606262207 -32.38607406616211 0.0
  vertex 41.919254302978516 -27.253921508789062 0.0
  vertex 41.919254302978516 -27.253921508789062 10.0
 endloop
endfacet
facet normal 0.8017752766609192 -0.5976256728172302 0.0
 outer loop
  vertex 38.0938606262207 -32.38607406616211 0.0
  vertex 41.919254302978516 -27.253921508789062 10.0
  vertex 38.0938606262207 -32.38607406616211 10.0
 endloop
endfacet
facet normal 0.8715561628341675 -0.4902955889701843 0.0
 outer loop
  vertex 41.919254302978516 -27.253921508789062 0.0
  vertex 45.0576286315918 -21.67510414123535 0.0
  vertex 45.0576286315918 -21.67510414123535 10.0
 endloop
endfacet
facet normal 0.8715561628341675 -0.4902955889701843 0.0
 outer loop
  vertex 41.919254302978516 -27.253921508789062 0.0
  vertex 45.0576286315918 -21.67510414123535 10.0
  vertex 41.919254302978516 -27.253921508789062 10.0
 endloop
endfacet
facet normal 0.9270530343055725 -0.374930202960968 0.0
 outer loop
  vertex 45.0576286315918 -21.67510414123535 0.0
  vertex 47.457550048828125 -15.74105453491211 0.0
  vertex 47.457550048828125 -15.74105453491211 10.0
 endloop
endfacet
facet normal 0.9270530343055725 -0.374930202960968 0.0
 outer loop
  vertex 45.0576286315918 -21.67510414123535 0.0
  vertex 47.457550048828125 -15.74105453491211 10.0
  vertex 45.0576286315918 -21.67510414123535 10.0
 endloop
endfacet
facet normal 0.9673560857772827 -0.25342079997062683 0.0
 outer loop
  vertex 47.457550048828125 -15.74105453491211 0.0
  vertex 49.07969284057617 -9.549022674560547 0.0
  vertex 49.07969284057617 -9.549022674560547 10.0
 endloop
endfacet
facet normal 0.9673560857772827 -0.25342079997062683 0.0
 outer loop
  vertex 47.457550048828125 -15.74105453491211 0.0
  vertex 49.07969284057617 -9.549022674560547 10.0
  vertex 47.457550048828125 -15.74105453491211 10.0
 endloop
endfacet
facet normal 0.9918054938316345 -0.1277572363615036 0.0
 outer loop
  vertex 49.07969284057617 -9.549022674560547 0.0
  vertex 49.897464752197266 -3.2004919052124023 0.0
  vertex 49.897464752197266 -3.2004919052124023 10.0
 endloop
endfacet
facet normal 0.9918054938316345 -0.1277572363615036 0.0
 outer loop
  vertex 49.07969284057617 -9.549022674560547 0.0
  vertex 49.897464752197266 -3.2004919052124023 10.0
  vertex 49.07969284057617 -9.549022674560547 10.0
 endloop
endfacet
facet normal 1.0 0.0 0.0
 outer loop
  vertex 49.897464752197266 -3.2004919052124023 0.0
  vertex 49.897464752197266 3.2004919052124023 0.0
  vertex 49.897464752197266 3.2004919052124023 10.0
 endloop
endfacet
facet normal 1.0 0.0 0.0
 outer loop
  vertex 49.897464752197266 -3.2004919052124023 0.0
  vertex 49.897464752197266 3.2004919052124023 10.0
  vertex 49.897464752197266 -3.2004919052124023 10.0
 endloop
endfacet
facet normal 0.9918054938316345 0.1277572363615036 0.0
 outer loop
  vertex 49.897464752197266 3.2004919052124023 0.0
  vertex 49.07969284057617 9.549022674560547 0.0
  vertex 49.07969284057617 9.549022674560547 10.0
 endloop
endfacet
facet normal 0.9918054938316345 0.1277572363615036 -0.0
 outer loop
  vertex 49.897464752197266 3.2004919052124023 0.0
  vertex 49.07969284057617 9.549022674560547 10.0
  vertex 49.897464752197266 3.2004919052124023 10.0
 endloop
endfacet
facet normal 0.9673560857772827 0.25342079997062683 0.0
 outer loop
  vertex 49.07969284057617 9.549022674560547 0.0
  vertex 47.457550048828125 15.74105453491211 0.0
  vertex 47.457550048828125 15.74105453491211 10.0
 endloop
endfacet
facet normal 0.9673560857772827 0.25342079997062683 -0.0
 outer loop
  vertex 49.07969284057617 9.549022674560547 0.0
  vertex 47.457550048828125 15.74105453491211 10.0
  vertex 49.07969284057617 9.549022674560547 10.0
 endloop
endfacet
facet normal 0.9270530343055725 0.374930202960968 0.0
 outer loop
  vertex 47.457550048828125 15.74105453491211 0.0
  vertex 45.0576286315918 21.67510414123535 0.0
  vertex 45.0576286315918 21.67510414123535 10.0
 endloop
endfacet
facet normal 0.9270530343055725 0.374930202960968 -0.0
 outer loop
  vertex 47.457550048828125 15.74105453491211 0.0
  vertex 45.0576286315918 21.67510414123535 10.0
  vertex 47.457550048828125 15.74105453491211 10.0
 endloop
endfacet
facet normal 0.8715561628341675 0.4902955889701843 0.0
 outer loop
  vertex 45.0576286315918 21.67510414123535 0.0
  vertex 41.919254302978516 27.253921508789062 0.0
  vertex 41.919254302978516 27.253921508789062 10.0
 endloop
endfacet
facet normal 0.8715561628341675 0.4902955889701843 -0.0
 outer loop
  vertex 45.0576286315918 21.67510414123535 0.0
  vertex 41.919254302978516 27.253921508789062 10.0
  vertex 45.0576286315918 21.67510414123535 10.0
 endloop
endfacet
facet normal 0.8017752766609192 0.5976256728172302 0.0
 outer loop
  vertex 41.919254302978516 27.253921508789062 0.0
  vertex 38.0938606262207 32.38607406616211 0.0
  vertex 38.0938606262207 32.38607406616211 10.0
 endloop
endfacet
facet normal 0.8017752766609192 0.5976256728172302 -0.0
 outer loop
  vertex 41.919254302978516 27.253921508789062 0.0
  vertex 38.0938606262207 32.38607406616211 10.0
  vertex 41.919254302978516 27.253921508789062 10.0
 endloop
endfacet
facet normal 0.7188542485237122 0.6951608061790466 0.0
 outer loop
  vertex 38.0938606262207 32.38607406616211 0.0
  vertex 33.64414978027344 36.98744583129883 0.0
  vertex 33.64414978027344 36.98744583129883 10.0
 endloop
endfacet
facet normal 0.7188542485237122 0.6951608061790466 -0.0
 outer loop
  vertex 38.0938606262207 32.38607406616211 0.0
  vertex 33.64414978027344 36.98744583129883 10.0
  vertex 38.0938606262207 32.38607406616211 10.0
 endloop
endfacet
facet normal 0.6241517066955566 0.7813032269477844 0.0
 outer loop
  vertex 33.64414978027344 36.98744583129883 0.0
  vertex 28.64303970336914 40.98263168334961 0.0
  vertex 28.64303970336914 40.98263168334961 10.0
 endloop
endfacet
facet normal 0.6241517066955566 0.7813032269477844 -0.0
 outer loop
  vertex 33.64414978027344 36.98744583129883 0.0
  vertex 28.64303970336914 40.98263168334961 10.0
  vertex 33.64414978027344 36.98744583129883 10.0
 endloop
endfacet
facet normal 0.5192202925682068 0.8546404242515564 0.0
 outer loop
  vertex 28.64303970336914 40.98263168334961 0.0
  vertex 23.172500610351562 44.30615234375 0.0
  vertex 23.172500610351562 44.30615234375 10.0
 endloop
endfacet
facet normal 0.5192202925682068 0.8546404242515564 -0.0
 outer loop
  vertex 28.64303970336914 40.98263168334961 0.0
  vertex 23.172500610351562 44.30615234375 10.0
  vertex 28.64303970336914 40.98263168334961 10.0
 endloop
endfacet
facet normal 0.40577906370162964 0.9139711856842041 0.0
 outer loop
  vertex 23.172500610351562 44.30615234375 0.0
  vertex 17.322185516357422 46.90353775024414 0.0
  vertex 17.322185516357422 46.90353775024414 10.0
 endloop
endfacet
facet normal 0.40577906370162964 0.9139711856842041 -0.0
 outer loop
  vertex 23.172500610351562 44.30615234375 0.0
  vertex 17.322185516357422 46.90353775024414 10.0
  vertex 23.172500610351562 44.30615234375 10.0
 endloop
endfacet
facet normal 0.285687655210495 0.9583228230476379 0.0
 outer loop
  vertex 17.322185516357422 46.90353775024414 0.0
  vertex 11.187976837158203 48.73221969604492 0.0
  vertex 11.187976837158203 48.73221969604492 10.0
 endloop
endfacet
facet normal 0.285687655210495 0.9583228230476379 -0.0
 outer loop
  vertex 17.322185516357422 46.90353775024414 0.0
  vertex 11.187976837158203 48.73221969604492 10.0
  vertex 17.322185516357422 46.90353775024414 10.0
 endloop
endfacet
facet normal 0.16091375052928925 0.986968457698822 0.0
 outer loop
  vertex 11.187976837158203 48.73221969604492 0.0
  vertex 4.870407581329346 49.76222610473633 0.0
  vertex 4.870407581329346 49.76222610473633 10.0
 endloop
endfacet
facet normal 0.16091375052928925 0.986968457698822 -0.0
 outer loop
  vertex 11.187976837158203 48.73221969604492 0.0
  vertex 4.870407581329346 49.76222610473633 10.0
  vertex 11.187976837158203 48.73221969604492 10.0
 endloop
endfacet
facet normal 0.03350279480218887 0.9994386434555054 0.0
 outer loop
  vertex 4.870407581329346 49.76222610473633 0.0
  vertex -1.5269829034805298 49.97667694091797 0.0
  vertex -1.5269829034805298 49.97667694091797 10.0
 endloop
endfacet
facet normal 0.03350279480218887 0.9994386434555054 -0.0
 outer loop
  vertex 4.870407581329346 49.76222610473633 0.0
  vertex -1.5269829034805298 49.97667694091797 10.0
  vertex 4.870407581329346 49.76222610473633 10.0
 endloop
endfacet
facet normal -0.09445706009864807 0.9955289959907532 0.0
 outer loop
  vertex -1.5269829034805298 49.97667694091797 0.0
  vertex -7.899347305297852 49.3720588684082 0.0
  vertex -7.899347305297852 49.3720588684082 10.0
 endloop
endfacet
facet normal -0.09445706009864807 0.9955289959907532 0.0
 outer loop
  vertex -1.5269829034805298 49.97667694091797 0.0
  vertex -7.899347305297852 49.3720588684082 10.0
  vertex -1.5269829034805298 49.97667694091797 10.0
 endloop
endfacet
facet normal -0.22086864709854126 0.9753036499023438 0.0
 outer loop
  vertex -7.899347305297852 49.3720588684082 0.0
  vertex -14.14224910736084 47.958282470703125 0.0
  vertex -14.14224910736084 47.958282470703125 10.0
 endloop
endfacet
facet normal -0.22086864709854126 0.9753036499023438 0.0
 outer loop
  vertex -7.899347305297852 49.3720588684082 0.0
  vertex -14.14224910736084 47.958282470703125 10.0
  vertex -7.899347305297852 49.3720588684082 10.0
 endloop
endfacet
facet normal -0.3436609208583832 0.9390937685966492 0.0
 outer loop
  vertex -14.14224910736084 47.958282470703125 0.0
  vertex -20.15337371826172 45.758514404296875 0.0
  vertex -20.15337371826172 45.758514404296875 10.0
 endloop
endfacet
facet normal -0.3436609208583832 0.9390937685966492 0.0
 outer loop
  vertex -14.14224910736084 47.958282470703125 0.0
  vertex -20.15337371826172 45.758514404296875 10.0
  vertex -14.14224910736084 47.958282470703125 10.0
 endloop
endfacet
facet normal -0.46082085371017456 0.8874931931495667 0.0
 outer loop
  vertex -20.15337371826172 45.758514404296875 0.0
  vertex -25.834203720092773 42.808807373046875 0.0
  vertex -25.834203720092773 42.808807373046875 10.0
 endloop
endfacet
facet normal -0.46082085371017456 0.8874931931495667 0.0
 outer loop
  vertex -20.15337371826172 45.758514404296875 0.0
  vertex -25.834203720092773 42.808807373046875 10.0
  vertex -20.15337371826172 45.758514404296875 10.0
 endloop
endfacet
facet normal -0.5704283118247986 0.8213474154472351 0.0
 outer loop
  vertex -25.834203720092773 42.808807373046875 0.0
  vertex -31.09163475036621 39.15750503540039 0.0
  vertex -31.09163475036621 39.15750503540039 10.0
 endloop
endfacet
facet normal -0.5704283118247986 0.8213474154472351 0.0
 outer loop
  vertex -25.834203720092773 42.808807373046875 0.0
  vertex -31.09163475036621 39.15750503540039 10.0
  vertex -25.834203720092773 42.808807373046875 10.0
 endloop
endfacet
facet normal -0.6706869602203369 0.7417405247688293 0.0
 outer loop
  vertex -31.09163475036621 39.15750503540039 0.0
  vertex -35.83950424194336 34.86444854736328 0.0
  vertex -35.83950424194336 34.86444854736328 10.0
 endloop
endfacet
facet normal -0.6706869602203369 0.7417405247688293 0.0
 outer loop
  vertex -31.09163475036621 39.15750503540039 0.0
  vertex -35.83950424194336 34.86444854736328 10.0
  vertex -31.09163475036621 39.15750503540039 10.0
 endloop
endfacet
facet normal -0.7599533796310425 0.6499776840209961 0.0
 outer loop
  vertex -35.83950424194336 34.86444854736328 0.0
  vertex -40.0 30.0 0.0
  vertex -40.0 30.0 10.0
 endloop
endfacet
facet normal -0.7599533796310425 0.6499776840209961 0.0
 outer loop
  vertex -35.83950424194336 34.86444854736328 0.0
  vertex -40.0 30.0 10.0
  vertex -35.83950424194336 34.86444854736328 10.0
 endloop
endfacet
endsolid
